<?xml version="1.0" encoding="UTF-8" standalone="no"?>
<!DOCTYPE svg PUBLIC "-//W3C//DTD SVG 1.1//EN"
 "http://www.w3.org/Graphics/SVG/1.1/DTD/svg11.dtd">
<!-- Generated by graphviz version 2.43.0 (0)
 -->
<!-- Title: linux_flow_dissector Pages: 1 -->
<svg width="2918pt" height="731pt"
 viewBox="0.00 0.00 2917.62 730.59" xmlns="http://www.w3.org/2000/svg" xmlns:xlink="http://www.w3.org/1999/xlink">
<g id="graph0" class="graph" transform="scale(1 1) rotate(0) translate(4 726.59)">
<title>linux_flow_dissector</title>
<polygon fill="white" stroke="transparent" points="-4,4 -4,-726.59 2913.62,-726.59 2913.62,4 -4,4"/>
<!-- parse_ethernet -->
<g id="node1" class="node">
<title>parse_ethernet</title>
<polygon fill="none" stroke="black" points="2162.62,-722.59 2034.62,-722.59 2034.62,-684.59 2162.62,-684.59 2162.62,-722.59"/>
<text text-anchor="middle" x="2098.62" y="-707.39" font-family="Helvetica,sans-Serif" font-size="14.00">parse_ethernet</text>
<text text-anchor="middle" x="2098.62" y="-692.39" font-family="Helvetica,sans-Serif" font-size="14.00">extract ethernet</text>
</g>
<!-- parse_vlan_ad -->
<g id="node2" class="node">
<title>parse_vlan_ad</title>
<polygon fill="none" stroke="black" points="1860.12,-633.59 1737.12,-633.59 1737.12,-595.59 1860.12,-595.59 1860.12,-633.59"/>
<text text-anchor="middle" x="1798.62" y="-618.39" font-family="Helvetica,sans-Serif" font-size="14.00">parse_vlan_ad</text>
<text text-anchor="middle" x="1798.62" y="-603.39" font-family="Helvetica,sans-Serif" font-size="14.00">extract vlan_ad</text>
</g>
<!-- parse_ethernet&#45;&gt;parse_vlan_ad -->
<g id="edge4" class="edge">
<title>parse_ethernet&#45;&gt;parse_vlan_ad</title>
<path fill="none" stroke="black" d="M2034.54,-701.71C1985.61,-698.96 1917.49,-690.58 1862.62,-666.59 1848.37,-660.37 1834.61,-650.14 1823.52,-640.48"/>
<polygon fill="black" stroke="black" points="1825.71,-637.73 1815.95,-633.6 1821,-642.92 1825.71,-637.73"/>
<text text-anchor="middle" x="1973.62" y="-655.39" font-family="Times,serif" font-size="14.00">ethernet.ethertype == 0x88a8</text>
</g>
<!-- parse_vlan_q -->
<g id="node3" class="node">
<title>parse_vlan_q</title>
<polygon fill="none" stroke="black" points="2119.12,-525.59 2004.12,-525.59 2004.12,-487.59 2119.12,-487.59 2119.12,-525.59"/>
<text text-anchor="middle" x="2061.62" y="-510.39" font-family="Helvetica,sans-Serif" font-size="14.00">parse_vlan_q</text>
<text text-anchor="middle" x="2061.62" y="-495.39" font-family="Helvetica,sans-Serif" font-size="14.00">extract vlan_q</text>
</g>
<!-- parse_ethernet&#45;&gt;parse_vlan_q -->
<g id="edge3" class="edge">
<title>parse_ethernet&#45;&gt;parse_vlan_q</title>
<path fill="none" stroke="black" d="M2098.5,-684.17C2097.94,-657.11 2095.4,-605.22 2084.62,-562.59 2082.27,-553.33 2078.63,-543.6 2074.93,-534.95"/>
<polygon fill="black" stroke="black" points="2078.07,-533.4 2070.79,-525.71 2071.69,-536.27 2078.07,-533.4"/>
<text text-anchor="middle" x="2207.12" y="-610.89" font-family="Times,serif" font-size="14.00">ethernet.ethertype == 0x8100</text>
</g>
<!-- parse_ipv4 -->
<g id="node4" class="node">
<title>parse_ipv4</title>
<polygon fill="none" stroke="black" points="1323.62,-290.59 1223.62,-290.59 1223.62,-252.59 1323.62,-252.59 1323.62,-290.59"/>
<text text-anchor="middle" x="1273.62" y="-275.39" font-family="Helvetica,sans-Serif" font-size="14.00">parse_ipv4</text>
<text text-anchor="middle" x="1273.62" y="-260.39" font-family="Helvetica,sans-Serif" font-size="14.00">extract ipv4</text>
</g>
<!-- parse_ethernet&#45;&gt;parse_ipv4 -->
<g id="edge1" class="edge">
<title>parse_ethernet&#45;&gt;parse_ipv4</title>
<path fill="none" stroke="black" d="M2034.4,-703.14C1828.1,-704.05 1195.62,-699.95 1195.62,-615.59 1195.62,-615.59 1195.62,-615.59 1195.62,-378.59 1195.62,-346.03 1219.78,-316.88 1241.21,-297.43"/>
<polygon fill="black" stroke="black" points="1243.69,-299.91 1248.94,-290.71 1239.09,-294.63 1243.69,-299.91"/>
<text text-anchor="middle" x="1302.62" y="-502.89" font-family="Times,serif" font-size="14.00">ethernet.ethertype == 0x800</text>
</g>
<!-- parse_ipv6 -->
<g id="node5" class="node">
<title>parse_ipv6</title>
<polygon fill="none" stroke="black" points="871.62,-398.59 771.62,-398.59 771.62,-360.59 871.62,-360.59 871.62,-398.59"/>
<text text-anchor="middle" x="821.62" y="-383.39" font-family="Helvetica,sans-Serif" font-size="14.00">parse_ipv6</text>
<text text-anchor="middle" x="821.62" y="-368.39" font-family="Helvetica,sans-Serif" font-size="14.00">extract ipv6</text>
</g>
<!-- parse_ethernet&#45;&gt;parse_ipv6 -->
<g id="edge2" class="edge">
<title>parse_ethernet&#45;&gt;parse_ipv6</title>
<path fill="none" stroke="black" d="M2034.35,-702.9C1853.83,-703.31 1344.66,-701.26 1181.62,-666.59 1077.24,-644.4 1042.16,-643.98 958.62,-577.59 898.85,-530.11 854.46,-449.68 834.05,-407.79"/>
<polygon fill="black" stroke="black" points="837.19,-406.25 829.72,-398.73 830.87,-409.27 837.19,-406.25"/>
<text text-anchor="middle" x="1070.12" y="-566.39" font-family="Times,serif" font-size="14.00">ethernet.ethertype == 0x86dd</text>
</g>
<!-- parse_mpls -->
<g id="node8" class="node">
<title>parse_mpls</title>
<polygon fill="none" stroke="black" points="2295.62,-398.59 2191.62,-398.59 2191.62,-360.59 2295.62,-360.59 2295.62,-398.59"/>
<text text-anchor="middle" x="2243.62" y="-383.39" font-family="Helvetica,sans-Serif" font-size="14.00">parse_mpls</text>
<text text-anchor="middle" x="2243.62" y="-368.39" font-family="Helvetica,sans-Serif" font-size="14.00">extract mpls</text>
</g>
<!-- parse_ethernet&#45;&gt;parse_mpls -->
<g id="edge5" class="edge">
<title>parse_ethernet&#45;&gt;parse_mpls</title>
<path fill="none" stroke="black" d="M2162.63,-692C2209.55,-682.14 2273.38,-664.23 2322.62,-633.59 2359.45,-610.67 2358.66,-593 2389.62,-562.59 2442.36,-510.78 2482.73,-518.22 2512.62,-450.59 2515.31,-444.49 2516.83,-440.76 2512.62,-435.59 2487.05,-404.27 2377.22,-390.31 2306.05,-384.45"/>
<polygon fill="black" stroke="black" points="2306.09,-380.94 2295.84,-383.65 2305.54,-387.92 2306.09,-380.94"/>
<text text-anchor="middle" x="2501.12" y="-566.39" font-family="Times,serif" font-size="14.00">ethernet.ethertype == 0x8847</text>
</g>
<!-- parse_ethernet&#45;&gt;parse_mpls -->
<g id="edge6" class="edge">
<title>parse_ethernet&#45;&gt;parse_mpls</title>
<path fill="none" stroke="black" d="M2162.62,-696.5C2287.41,-683.18 2556.01,-646.97 2612.62,-577.59 2652.58,-528.62 2661.96,-483.41 2620.62,-435.59 2615.49,-429.67 2411.61,-402.41 2305.86,-388.62"/>
<polygon fill="black" stroke="black" points="2306.31,-385.15 2295.95,-387.33 2305.41,-392.09 2306.31,-385.15"/>
<text text-anchor="middle" x="2735.12" y="-566.39" font-family="Times,serif" font-size="14.00">ethernet.ethertype == 0x8848</text>
</g>
<!-- reject_0 -->
<g id="node12" class="node">
<title>reject_0</title>
<polygon fill="none" stroke="black" points="2724.62,-417.59 2546.62,-379.59 2724.62,-341.59 2902.62,-379.59 2724.62,-417.59"/>
<text text-anchor="middle" x="2724.62" y="-383.39" font-family="Helvetica,sans-Serif" font-size="14.00">reject:</text>
<text text-anchor="middle" x="2724.62" y="-368.39" font-family="Helvetica,sans-Serif" font-size="14.00">unsupported ethertype</text>
</g>
<!-- parse_ethernet&#45;&gt;reject_0 -->
<g id="edge7" class="edge">
<title>parse_ethernet&#45;&gt;reject_0</title>
<path fill="none" stroke="black" stroke-dasharray="5,2" d="M2162.71,-702.26C2328.46,-699.87 2764.34,-683.45 2850.62,-577.59 2893.83,-524.57 2825.58,-456.01 2773.87,-415.33"/>
<polygon fill="black" stroke="black" points="2775.79,-412.39 2765.73,-409.05 2771.51,-417.93 2775.79,-412.39"/>
<text text-anchor="middle" x="2884.12" y="-566.39" font-family="Times,serif" font-size="14.00">default</text>
</g>
<!-- parse_vlan_ad&#45;&gt;parse_vlan_q -->
<g id="edge8" class="edge">
<title>parse_vlan_ad&#45;&gt;parse_vlan_q</title>
<path fill="none" stroke="black" d="M1793.49,-595.31C1791.64,-584.44 1791.65,-571.15 1799.62,-562.59 1829.25,-530.73 1953.02,-557.38 1994.62,-544.59 2005.31,-541.3 2016.22,-536.17 2026.05,-530.77"/>
<polygon fill="black" stroke="black" points="2027.81,-533.8 2034.73,-525.78 2024.32,-527.73 2027.81,-533.8"/>
<text text-anchor="middle" x="1942.12" y="-566.39" font-family="Times,serif" font-size="14.00">vlan_ad.encapsulated_proto == 0x8100</text>
</g>
<!-- reject_1 -->
<g id="node13" class="node">
<title>reject_1</title>
<polygon fill="none" stroke="black" points="1706.62,-544.59 1427.62,-506.59 1706.62,-468.59 1985.62,-506.59 1706.62,-544.59"/>
<text text-anchor="middle" x="1706.62" y="-510.39" font-family="Helvetica,sans-Serif" font-size="14.00">reject:</text>
<text text-anchor="middle" x="1706.62" y="-495.39" font-family="Helvetica,sans-Serif" font-size="14.00">802.1AD must be followed by 802.1Q</text>
</g>
<!-- parse_vlan_ad&#45;&gt;reject_1 -->
<g id="edge9" class="edge">
<title>parse_vlan_ad&#45;&gt;reject_1</title>
<path fill="none" stroke="black" stroke-dasharray="5,2" d="M1747.47,-595.44C1739.27,-590.67 1731.54,-584.79 1725.62,-577.59 1719.97,-570.74 1716,-562.36 1713.2,-553.8"/>
<polygon fill="black" stroke="black" points="1716.57,-552.84 1710.51,-544.15 1709.82,-554.72 1716.57,-552.84"/>
<text text-anchor="middle" x="1751.12" y="-566.39" font-family="Times,serif" font-size="14.00">default</text>
</g>
<!-- parse_vlan_q&#45;&gt;parse_ipv4 -->
<g id="edge10" class="edge">
<title>parse_vlan_q&#45;&gt;parse_ipv4</title>
<path fill="none" stroke="black" d="M2035.82,-487.55C2023.85,-480.21 2009.1,-472.54 1994.62,-468.59 1924.26,-449.43 1400.8,-488.67 1338.62,-450.59 1287.51,-419.3 1276.22,-342.43 1273.96,-300.68"/>
<polygon fill="black" stroke="black" points="1277.46,-300.48 1273.56,-290.62 1270.46,-300.76 1277.46,-300.48"/>
<text text-anchor="middle" x="1440.62" y="-375.89" font-family="Times,serif" font-size="14.00">vlan_q.encapsulated_proto == 0x800</text>
</g>
<!-- parse_vlan_q&#45;&gt;parse_ipv6 -->
<g id="edge11" class="edge">
<title>parse_vlan_q&#45;&gt;parse_ipv6</title>
<path fill="none" stroke="black" d="M2035.83,-487.49C2023.87,-480.14 2009.12,-472.48 1994.62,-468.59 1890.06,-440.61 1127.14,-469.8 1020.62,-450.59 967.67,-441.05 909.97,-419.41 870.4,-402.7"/>
<polygon fill="black" stroke="black" points="871.56,-399.39 860.99,-398.68 868.81,-405.83 871.56,-399.39"/>
<text text-anchor="middle" x="1159.12" y="-439.39" font-family="Times,serif" font-size="14.00">vlan_q.encapsulated_proto == 0x86dd</text>
</g>
<!-- parse_vlan_q&#45;&gt;parse_mpls -->
<g id="edge12" class="edge">
<title>parse_vlan_q&#45;&gt;parse_mpls</title>
<path fill="none" stroke="black" d="M2031.12,-487.41C2019.85,-481.05 2006.84,-474.13 1994.62,-468.59 1973.1,-458.85 1958.2,-469.92 1944.62,-450.59 1940.78,-445.14 1940.15,-440.54 1944.62,-435.59 1970.96,-406.41 2082.06,-425.29 2120.62,-417.59 2140.82,-413.56 2162.46,-407.62 2181.87,-401.67"/>
<polygon fill="black" stroke="black" points="2183,-404.99 2191.5,-398.67 2180.91,-398.3 2183,-404.99"/>
<text text-anchor="middle" x="2083.12" y="-439.39" font-family="Times,serif" font-size="14.00">vlan_q.encapsulated_proto == 0x8847</text>
</g>
<!-- parse_vlan_q&#45;&gt;parse_mpls -->
<g id="edge13" class="edge">
<title>parse_vlan_q&#45;&gt;parse_mpls</title>
<path fill="none" stroke="black" d="M2119.22,-498.86C2153.19,-492.02 2194.67,-478.27 2221.62,-450.59 2232.45,-439.47 2237.96,-423.06 2240.75,-408.93"/>
<polygon fill="black" stroke="black" points="2244.26,-409.12 2242.4,-398.69 2237.35,-408 2244.26,-409.12"/>
<text text-anchor="middle" x="2370.12" y="-439.39" font-family="Times,serif" font-size="14.00">vlan_q.encapsulated_proto == 0x8848</text>
</g>
<!-- parse_vlan_q&#45;&gt;reject_0 -->
<g id="edge16" class="edge">
<title>parse_vlan_q&#45;&gt;reject_0</title>
<path fill="none" stroke="black" stroke-dasharray="5,2" d="M2119.19,-502.22C2205.53,-496.35 2373.29,-481.77 2512.62,-450.59 2560.41,-439.9 2612.68,-422.7 2653.36,-408.03"/>
<polygon fill="black" stroke="black" points="2654.71,-411.27 2662.91,-404.56 2652.32,-404.69 2654.71,-411.27"/>
<text text-anchor="middle" x="2591.12" y="-439.39" font-family="Times,serif" font-size="14.00">default</text>
</g>
<!-- reject_2 -->
<g id="node14" class="node">
<title>reject_2</title>
<polygon fill="none" stroke="black" points="1854.62,-417.59 1597.62,-379.59 1854.62,-341.59 2111.62,-379.59 1854.62,-417.59"/>
<text text-anchor="middle" x="1854.62" y="-383.39" font-family="Helvetica,sans-Serif" font-size="14.00">reject:</text>
<text text-anchor="middle" x="1854.62" y="-368.39" font-family="Helvetica,sans-Serif" font-size="14.00">vlan stacking beyond kernel depth</text>
</g>
<!-- parse_vlan_q&#45;&gt;reject_2 -->
<g id="edge14" class="edge">
<title>parse_vlan_q&#45;&gt;reject_2</title>
<path fill="none" stroke="black" d="M2035.81,-487.55C2023.85,-480.21 2009.1,-472.54 1994.62,-468.59 1959.82,-459.11 1370.76,-476.45 1345.62,-450.59 1340.97,-445.81 1341.08,-440.48 1345.62,-435.59 1363.65,-416.15 1557.24,-420.39 1583.62,-417.59 1628.08,-412.88 1676.5,-406.63 1719.95,-400.61"/>
<polygon fill="black" stroke="black" points="1720.59,-404.05 1730.01,-399.21 1719.62,-397.12 1720.59,-404.05"/>
<text text-anchor="middle" x="1484.12" y="-439.39" font-family="Times,serif" font-size="14.00">vlan_q.encapsulated_proto == 0x8100</text>
</g>
<!-- parse_vlan_q&#45;&gt;reject_2 -->
<g id="edge15" class="edge">
<title>parse_vlan_q&#45;&gt;reject_2</title>
<path fill="none" stroke="black" d="M2035.45,-487.54C2023.53,-480.29 2008.92,-472.69 1994.62,-468.59 1958.89,-458.35 1686.18,-477.57 1660.62,-450.59 1636.32,-424.96 1659.55,-408.68 1697.29,-398.36"/>
<polygon fill="black" stroke="black" points="1698.34,-401.71 1707.18,-395.87 1696.63,-394.92 1698.34,-401.71"/>
<text text-anchor="middle" x="1798.62" y="-439.39" font-family="Times,serif" font-size="14.00">vlan_q.encapsulated_proto == 0x88a8</text>
</g>
<!-- parse_tcp -->
<g id="node9" class="node">
<title>parse_tcp</title>
<polygon fill="none" stroke="black" points="796.62,-182.59 704.62,-182.59 704.62,-144.59 796.62,-144.59 796.62,-182.59"/>
<text text-anchor="middle" x="750.62" y="-167.39" font-family="Helvetica,sans-Serif" font-size="14.00">parse_tcp</text>
<text text-anchor="middle" x="750.62" y="-152.39" font-family="Helvetica,sans-Serif" font-size="14.00">extract tcp</text>
</g>
<!-- parse_ipv4&#45;&gt;parse_tcp -->
<g id="edge17" class="edge">
<title>parse_ipv4&#45;&gt;parse_tcp</title>
<path fill="none" stroke="black" d="M1223.39,-256.12C1218.75,-254.89 1214.1,-253.69 1209.62,-252.59 1171.69,-243.3 1160.41,-247.68 1123.62,-234.59 1109.94,-229.73 1108.4,-224.13 1094.62,-219.59 996.53,-187.31 876.27,-173.63 807.03,-168.09"/>
<polygon fill="black" stroke="black" points="807.03,-164.58 796.79,-167.3 806.49,-171.56 807.03,-164.58"/>
<text text-anchor="middle" x="1200.62" y="-223.39" font-family="Times,serif" font-size="14.00">ipv4.protocol == 0x6</text>
</g>
<!-- parse_udp -->
<g id="node10" class="node">
<title>parse_udp</title>
<polygon fill="none" stroke="black" points="172.12,-182.59 75.12,-182.59 75.12,-144.59 172.12,-144.59 172.12,-182.59"/>
<text text-anchor="middle" x="123.62" y="-167.39" font-family="Helvetica,sans-Serif" font-size="14.00">parse_udp</text>
<text text-anchor="middle" x="123.62" y="-152.39" font-family="Helvetica,sans-Serif" font-size="14.00">extract udp</text>
</g>
<!-- parse_ipv4&#45;&gt;parse_udp -->
<g id="edge18" class="edge">
<title>parse_ipv4&#45;&gt;parse_udp</title>
<path fill="none" stroke="black" d="M1223.53,-255.43C1218.86,-254.34 1214.17,-253.37 1209.62,-252.59 1147.72,-242.03 986.25,-257.07 927.62,-234.59 917.57,-230.74 918.73,-223.27 908.62,-219.59 844.58,-196.3 363.26,-209.79 295.62,-201.59 257.42,-196.96 215.17,-187.93 182.1,-179.95"/>
<polygon fill="black" stroke="black" points="182.69,-176.49 172.15,-177.51 181.03,-183.29 182.69,-176.49"/>
<text text-anchor="middle" x="1009.12" y="-223.39" font-family="Times,serif" font-size="14.00">ipv4.protocol == 0x11</text>
</g>
<!-- reject_3 -->
<g id="node15" class="node">
<title>reject_3</title>
<polygon fill="none" stroke="black" points="1293.62,-201.59 1110.62,-163.59 1293.62,-125.59 1476.62,-163.59 1293.62,-201.59"/>
<text text-anchor="middle" x="1293.62" y="-167.39" font-family="Helvetica,sans-Serif" font-size="14.00">reject:</text>
<text text-anchor="middle" x="1293.62" y="-152.39" font-family="Helvetica,sans-Serif" font-size="14.00">unsupported ip protocol</text>
</g>
<!-- parse_ipv4&#45;&gt;reject_3 -->
<g id="edge19" class="edge">
<title>parse_ipv4&#45;&gt;reject_3</title>
<path fill="none" stroke="black" stroke-dasharray="5,2" d="M1277.1,-252.13C1279.28,-240.56 1282.2,-225.11 1284.97,-210.41"/>
<polygon fill="black" stroke="black" points="1288.44,-210.88 1286.86,-200.41 1281.57,-209.58 1288.44,-210.88"/>
<text text-anchor="middle" x="1309.12" y="-223.39" font-family="Times,serif" font-size="14.00">default</text>
</g>
<!-- parse_ipv6_opt -->
<g id="node6" class="node">
<title>parse_ipv6_opt</title>
<polygon fill="none" stroke="black" points="533.62,-290.59 411.62,-290.59 411.62,-252.59 533.62,-252.59 533.62,-290.59"/>
<text text-anchor="middle" x="472.62" y="-275.39" font-family="Helvetica,sans-Serif" font-size="14.00">parse_ipv6_opt</text>
<text text-anchor="middle" x="472.62" y="-260.39" font-family="Helvetica,sans-Serif" font-size="14.00">extract ext_opt</text>
</g>
<!-- parse_ipv6&#45;&gt;parse_ipv6_opt -->
<g id="edge20" class="edge">
<title>parse_ipv6&#45;&gt;parse_ipv6_opt</title>
<path fill="none" stroke="black" d="M771.61,-370.8C721.61,-362.21 642.98,-346.49 577.62,-323.59 555.92,-315.99 532.83,-305.11 513.85,-295.36"/>
<polygon fill="black" stroke="black" points="515.37,-292.2 504.89,-290.67 512.13,-298.4 515.37,-292.2"/>
<text text-anchor="middle" x="669.12" y="-312.39" font-family="Times,serif" font-size="14.00">ipv6.next_header == 0x0</text>
</g>
<!-- parse_ipv6&#45;&gt;parse_ipv6_opt -->
<g id="edge21" class="edge">
<title>parse_ipv6&#45;&gt;parse_ipv6_opt</title>
<path fill="none" stroke="black" d="M811.13,-360.3C800.61,-343.82 782.81,-320.41 760.62,-308.59 724.24,-289.23 616.79,-279.91 543.93,-275.71"/>
<polygon fill="black" stroke="black" points="544.07,-272.21 533.89,-275.15 543.68,-279.2 544.07,-272.21"/>
<text text-anchor="middle" x="876.62" y="-312.39" font-family="Times,serif" font-size="14.00">ipv6.next_header == 0x3c</text>
</g>
<!-- parse_ipv6_frag -->
<g id="node7" class="node">
<title>parse_ipv6_frag</title>
<polygon fill="none" stroke="black" points="432.62,-182.59 304.62,-182.59 304.62,-144.59 432.62,-144.59 432.62,-182.59"/>
<text text-anchor="middle" x="368.62" y="-167.39" font-family="Helvetica,sans-Serif" font-size="14.00">parse_ipv6_frag</text>
<text text-anchor="middle" x="368.62" y="-152.39" font-family="Helvetica,sans-Serif" font-size="14.00">extract ext_frag</text>
</g>
<!-- parse_ipv6&#45;&gt;parse_ipv6_frag -->
<g id="edge22" class="edge">
<title>parse_ipv6&#45;&gt;parse_ipv6_frag</title>
<path fill="none" stroke="black" d="M771.18,-379.34C638.5,-380.13 284.99,-374.18 212.62,-290.59 201.56,-277.83 204.1,-267.18 212.62,-252.59 230.96,-221.19 265.1,-200.11 296.78,-186.48"/>
<polygon fill="black" stroke="black" points="298.15,-189.7 306.07,-182.66 295.49,-183.23 298.15,-189.7"/>
<text text-anchor="middle" x="307.62" y="-267.89" font-family="Times,serif" font-size="14.00">ipv6.next_header == 0x2c</text>
</g>
<!-- parse_ipv6&#45;&gt;parse_tcp -->
<g id="edge23" class="edge">
<title>parse_ipv6&#45;&gt;parse_tcp</title>
<path fill="none" stroke="black" d="M871.69,-369.76C904.11,-362 945.7,-348.01 975.62,-323.59 1001.01,-302.86 1016.23,-278.09 995.62,-252.59 971.61,-222.9 947.46,-247.74 911.62,-234.59 898.36,-229.73 896.38,-225.63 883.62,-219.59 858.49,-207.7 830.09,-195.76 806,-186.06"/>
<polygon fill="black" stroke="black" points="807.24,-182.79 796.66,-182.32 804.64,-189.29 807.24,-182.79"/>
<text text-anchor="middle" x="1097.12" y="-267.89" font-family="Times,serif" font-size="14.00">ipv6.next_header == 0x6</text>
</g>
<!-- parse_ipv6&#45;&gt;parse_udp -->
<g id="edge24" class="edge">
<title>parse_ipv6&#45;&gt;parse_udp</title>
<path fill="none" stroke="black" d="M771.41,-377.04C602.06,-371.3 59.58,-348.5 9.62,-290.59 -21.94,-254.03 33.49,-212.7 77.56,-187.65"/>
<polygon fill="black" stroke="black" points="79.42,-190.62 86.47,-182.71 76.03,-184.5 79.42,-190.62"/>
<text text-anchor="middle" x="105.62" y="-267.89" font-family="Times,serif" font-size="14.00">ipv6.next_header == 0x11</text>
</g>
<!-- parse_ipv6&#45;&gt;reject_3 -->
<g id="edge25" class="edge">
<title>parse_ipv6&#45;&gt;reject_3</title>
<path fill="none" stroke="black" stroke-dasharray="5,2" d="M871.93,-377.35C988.21,-373.36 1270.41,-356.9 1332.62,-290.59 1354.28,-267.5 1349.26,-249.42 1338.62,-219.59 1336.65,-214.08 1333.87,-208.73 1330.64,-203.66"/>
<polygon fill="black" stroke="black" points="1333.47,-201.6 1324.86,-195.43 1327.74,-205.62 1333.47,-201.6"/>
<text text-anchor="middle" x="1374.12" y="-267.89" font-family="Times,serif" font-size="14.00">default</text>
</g>
<!-- parse_ipv6_opt&#45;&gt;parse_ipv6_opt -->
<g id="edge26" class="edge">
<title>parse_ipv6_opt&#45;&gt;parse_ipv6_opt</title>
<path fill="none" stroke="black" d="M533.89,-275.44C544.36,-274.92 551.62,-273.63 551.62,-271.59 551.62,-270.32 548.78,-269.34 544.1,-268.65"/>
<polygon fill="black" stroke="black" points="544.17,-265.15 533.89,-267.74 543.54,-272.12 544.17,-265.15"/>
<text text-anchor="middle" x="654.12" y="-267.89" font-family="Times,serif" font-size="14.00">ext_opt.next_header == 0x0</text>
</g>
<!-- parse_ipv6_opt&#45;&gt;parse_ipv6_opt -->
<g id="edge27" class="edge">
<title>parse_ipv6_opt&#45;&gt;parse_ipv6_opt</title>
<path fill="none" stroke="black" d="M533.62,-277.92C618.35,-281.86 756.62,-279.75 756.62,-271.59 756.62,-263.76 628.94,-261.5 543.79,-264.83"/>
<polygon fill="black" stroke="black" points="543.46,-261.34 533.62,-265.26 543.76,-268.33 543.46,-261.34"/>
<text text-anchor="middle" x="862.62" y="-267.89" font-family="Times,serif" font-size="14.00">ext_opt.next_header == 0x3c</text>
</g>
<!-- parse_ipv6_opt&#45;&gt;parse_ipv6_frag -->
<g id="edge28" class="edge">
<title>parse_ipv6_opt&#45;&gt;parse_ipv6_frag</title>
<path fill="none" stroke="black" d="M411.49,-255.61C392.59,-249.67 375.24,-242.39 369.62,-234.59 361.07,-222.73 360.33,-206.55 361.96,-192.74"/>
<polygon fill="black" stroke="black" points="365.43,-193.18 363.57,-182.75 358.52,-192.06 365.43,-193.18"/>
<text text-anchor="middle" x="475.62" y="-223.39" font-family="Times,serif" font-size="14.00">ext_opt.next_header == 0x2c</text>
</g>
<!-- parse_ipv6_opt&#45;&gt;parse_tcp -->
<g id="edge29" class="edge">
<title>parse_ipv6_opt&#45;&gt;parse_tcp</title>
<path fill="none" stroke="black" d="M533.68,-253.51C549.61,-248.22 566.53,-241.85 581.62,-234.59 592.61,-229.3 593.73,-225.11 604.62,-219.59 633.47,-204.97 667.17,-192.02 694.92,-182.37"/>
<polygon fill="black" stroke="black" points="696.15,-185.65 704.47,-179.09 693.88,-179.03 696.15,-185.65"/>
<text text-anchor="middle" x="707.12" y="-223.39" font-family="Times,serif" font-size="14.00">ext_opt.next_header == 0x6</text>
</g>
<!-- parse_ipv6_opt&#45;&gt;parse_udp -->
<g id="edge30" class="edge">
<title>parse_ipv6_opt&#45;&gt;parse_udp</title>
<path fill="none" stroke="black" d="M411.38,-255.03C406.74,-254.12 402.12,-253.29 397.62,-252.59 369.87,-248.3 167.64,-252 145.62,-234.59 133.07,-224.68 127.54,-207.65 125.16,-192.88"/>
<polygon fill="black" stroke="black" points="128.6,-192.16 123.93,-182.65 121.65,-193 128.6,-192.16"/>
<text text-anchor="middle" x="252.62" y="-223.39" font-family="Times,serif" font-size="14.00">ext_opt.next_header == 0x11</text>
</g>
<!-- parse_ipv6_opt&#45;&gt;reject_3 -->
<g id="edge31" class="edge">
<title>parse_ipv6_opt&#45;&gt;reject_3</title>
<path fill="none" stroke="black" stroke-dasharray="5,2" d="M533.75,-267.68C601.7,-263.6 714.41,-254.35 809.62,-234.59 831.5,-230.05 835.78,-224.34 857.62,-219.59 955.68,-198.26 1068.08,-184.33 1154.2,-175.83"/>
<polygon fill="black" stroke="black" points="1154.69,-179.3 1164.3,-174.84 1154.01,-172.33 1154.69,-179.3"/>
<text text-anchor="middle" x="883.12" y="-223.39" font-family="Times,serif" font-size="14.00">default</text>
</g>
<!-- accept -->
<g id="node11" class="node">
<title>accept</title>
<ellipse fill="none" stroke="black" cx="514.62" cy="-44.3" rx="40.11" ry="40.11"/>
<ellipse fill="none" stroke="black" cx="514.62" cy="-44.3" rx="44.09" ry="44.09"/>
<text text-anchor="middle" x="514.62" y="-40.6" font-family="Helvetica,sans-Serif" font-size="14.00">accept</text>
</g>
<!-- parse_ipv6_frag&#45;&gt;accept -->
<g id="edge32" class="edge">
<title>parse_ipv6_frag&#45;&gt;accept</title>
<path fill="none" stroke="black" d="M391.11,-144.52C412.71,-127.17 445.89,-100.51 472.42,-79.2"/>
<polygon fill="black" stroke="black" points="474.81,-81.76 480.42,-72.77 470.43,-76.31 474.81,-81.76"/>
</g>
<!-- parse_mpls&#45;&gt;accept -->
<g id="edge33" class="edge">
<title>parse_mpls&#45;&gt;accept</title>
<path fill="none" stroke="black" d="M2201.45,-360.5C2088.13,-312.79 1766.6,-183.23 1485.62,-125.59 1142.16,-55.14 718.32,-46.13 569.43,-45.26"/>
<polygon fill="black" stroke="black" points="569.2,-41.76 559.18,-45.21 569.17,-48.76 569.2,-41.76"/>
</g>
<!-- parse_tcp&#45;&gt;accept -->
<g id="edge34" class="edge">
<title>parse_tcp&#45;&gt;accept</title>
<path fill="none" stroke="black" d="M714.26,-144.52C673.74,-124.38 608.02,-91.72 563.13,-69.41"/>
<polygon fill="black" stroke="black" points="564.68,-66.27 554.17,-64.95 561.56,-72.54 564.68,-66.27"/>
</g>
<!-- parse_udp&#45;&gt;accept -->
<g id="edge35" class="edge">
<title>parse_udp&#45;&gt;accept</title>
<path fill="none" stroke="black" d="M172.35,-147.97C246.4,-125.76 386.68,-83.68 462.63,-60.89"/>
<polygon fill="black" stroke="black" points="463.88,-64.17 472.46,-57.94 461.87,-57.47 463.88,-64.17"/>
</g>
</g>
</svg>
