<?xml version="1.0" encoding="UTF-8" standalone="no"?>
<!DOCTYPE svg PUBLIC "-//W3C//DTD SVG 1.1//EN"
 "http://www.w3.org/Graphics/SVG/1.1/DTD/svg11.dtd">
<!-- Generated by graphviz version 2.43.0 (0)
 -->
<!-- Title: linux_flow_dissector Pages: 1 -->
<svg width="3500pt" height="907pt"
 viewBox="0.00 0.00 3500.00 906.59" xmlns="http://www.w3.org/2000/svg" xmlns:xlink="http://www.w3.org/1999/xlink">
<g id="graph0" class="graph" transform="scale(1 1) rotate(0) translate(4 902.59)">
<title>linux_flow_dissector</title>
<polygon fill="white" stroke="transparent" points="-4,4 -4,-902.59 3496,-902.59 3496,4 -4,4"/>
<!-- parse_ethernet -->
<g id="node1" class="node">
<title>parse_ethernet</title>
<polygon fill="none" stroke="black" points="2467,-898.59 2339,-898.59 2339,-860.59 2467,-860.59 2467,-898.59"/>
<text text-anchor="middle" x="2403" y="-883.39" font-family="Helvetica,sans-Serif" font-size="14.00">parse_ethernet</text>
<text text-anchor="middle" x="2403" y="-868.39" font-family="Helvetica,sans-Serif" font-size="14.00">extract ethernet</text>
</g>
<!-- parse_vlan_ad -->
<g id="node2" class="node">
<title>parse_vlan_ad</title>
<polygon fill="none" stroke="black" points="2164.5,-809.59 2041.5,-809.59 2041.5,-771.59 2164.5,-771.59 2164.5,-809.59"/>
<text text-anchor="middle" x="2103" y="-794.39" font-family="Helvetica,sans-Serif" font-size="14.00">parse_vlan_ad</text>
<text text-anchor="middle" x="2103" y="-779.39" font-family="Helvetica,sans-Serif" font-size="14.00">extract vlan_ad</text>
</g>
<!-- parse_ethernet&#45;&gt;parse_vlan_ad -->
<g id="edge4" class="edge">
<title>parse_ethernet&#45;&gt;parse_vlan_ad</title>
<path fill="none" stroke="black" d="M2338.92,-877.71C2289.99,-874.96 2221.88,-866.58 2167,-842.59 2152.75,-836.37 2138.99,-826.14 2127.9,-816.48"/>
<polygon fill="black" stroke="black" points="2130.09,-813.73 2120.33,-809.6 2125.38,-818.92 2130.09,-813.73"/>
<text text-anchor="middle" x="2278" y="-831.39" font-family="Times,serif" font-size="14.00">ethernet.ethertype == 0x88a8</text>
</g>
<!-- parse_vlan_q -->
<g id="node3" class="node">
<title>parse_vlan_q</title>
<polygon fill="none" stroke="black" points="2341.5,-701.59 2226.5,-701.59 2226.5,-663.59 2341.5,-663.59 2341.5,-701.59"/>
<text text-anchor="middle" x="2284" y="-686.39" font-family="Helvetica,sans-Serif" font-size="14.00">parse_vlan_q</text>
<text text-anchor="middle" x="2284" y="-671.39" font-family="Helvetica,sans-Serif" font-size="14.00">extract vlan_q</text>
</g>
<!-- parse_ethernet&#45;&gt;parse_vlan_q -->
<g id="edge3" class="edge">
<title>parse_ethernet&#45;&gt;parse_vlan_q</title>
<path fill="none" stroke="black" d="M2406.27,-860.44C2410.38,-831.87 2414.15,-775.84 2389,-738.59 2379.65,-724.75 2365.68,-714.16 2350.95,-706.15"/>
<polygon fill="black" stroke="black" points="2352.23,-702.87 2341.72,-701.48 2349.07,-709.12 2352.23,-702.87"/>
<text text-anchor="middle" x="2519.5" y="-786.89" font-family="Times,serif" font-size="14.00">ethernet.ethertype == 0x8100</text>
</g>
<!-- parse_ipv4 -->
<g id="node4" class="node">
<title>parse_ipv4</title>
<polygon fill="none" stroke="black" points="1217,-574.59 1117,-574.59 1117,-536.59 1217,-536.59 1217,-574.59"/>
<text text-anchor="middle" x="1167" y="-559.39" font-family="Helvetica,sans-Serif" font-size="14.00">parse_ipv4</text>
<text text-anchor="middle" x="1167" y="-544.39" font-family="Helvetica,sans-Serif" font-size="14.00">extract ipv4</text>
</g>
<!-- parse_ethernet&#45;&gt;parse_ipv4 -->
<g id="edge1" class="edge">
<title>parse_ethernet&#45;&gt;parse_ipv4</title>
<path fill="none" stroke="black" d="M2338.7,-878.95C2160.54,-879.49 1663.21,-877.71 1504,-842.59 1403.41,-820.41 1369.78,-818.75 1290,-753.59 1232.9,-706.96 1194.62,-626.45 1177.4,-584.24"/>
<polygon fill="black" stroke="black" points="1180.62,-582.86 1173.67,-574.86 1174.12,-585.45 1180.62,-582.86"/>
<text text-anchor="middle" x="1397" y="-742.39" font-family="Times,serif" font-size="14.00">ethernet.ethertype == 0x800</text>
</g>
<!-- parse_ipv6 -->
<g id="node5" class="node">
<title>parse_ipv6</title>
<polygon fill="none" stroke="black" points="1209,-379.59 1109,-379.59 1109,-341.59 1209,-341.59 1209,-379.59"/>
<text text-anchor="middle" x="1159" y="-364.39" font-family="Helvetica,sans-Serif" font-size="14.00">parse_ipv6</text>
<text text-anchor="middle" x="1159" y="-349.39" font-family="Helvetica,sans-Serif" font-size="14.00">extract ipv6</text>
</g>
<!-- parse_ethernet&#45;&gt;parse_ipv6 -->
<g id="edge2" class="edge">
<title>parse_ethernet&#45;&gt;parse_ipv6</title>
<path fill="none" stroke="black" d="M2338.97,-871.82C2285.11,-865.66 2206.19,-855.56 2138,-842.59 1914.56,-800.11 1840.59,-829.66 1641,-720.59 1587.76,-691.5 1565.94,-682.34 1542,-626.59 1516.96,-568.28 1591.98,-537.54 1557,-484.59 1519.37,-427.64 1320.84,-387.8 1219.15,-370.8"/>
<polygon fill="black" stroke="black" points="1219.46,-367.31 1209.03,-369.13 1218.32,-374.21 1219.46,-367.31"/>
<text text-anchor="middle" x="1653.5" y="-615.39" font-family="Times,serif" font-size="14.00">ethernet.ethertype == 0x86dd</text>
</g>
<!-- parse_mpls -->
<g id="node10" class="node">
<title>parse_mpls</title>
<polygon fill="none" stroke="black" points="2839,-574.59 2735,-574.59 2735,-536.59 2839,-536.59 2839,-574.59"/>
<text text-anchor="middle" x="2787" y="-559.39" font-family="Helvetica,sans-Serif" font-size="14.00">parse_mpls</text>
<text text-anchor="middle" x="2787" y="-544.39" font-family="Helvetica,sans-Serif" font-size="14.00">extract mpls</text>
</g>
<!-- parse_ethernet&#45;&gt;parse_mpls -->
<g id="edge5" class="edge">
<title>parse_ethernet&#45;&gt;parse_mpls</title>
<path fill="none" stroke="black" d="M2467.17,-877.13C2605.2,-870.03 2928.2,-831.28 3057,-626.59 3080.32,-589.53 2935.96,-569.9 2849.18,-561.57"/>
<polygon fill="black" stroke="black" points="2849.44,-558.08 2839.16,-560.63 2848.79,-565.05 2849.44,-558.08"/>
<text text-anchor="middle" x="3054.5" y="-742.39" font-family="Times,serif" font-size="14.00">ethernet.ethertype == 0x8847</text>
</g>
<!-- parse_ethernet&#45;&gt;parse_mpls -->
<g id="edge6" class="edge">
<title>parse_ethernet&#45;&gt;parse_mpls</title>
<path fill="none" stroke="black" d="M2467.17,-878.52C2635.35,-876.79 3082.01,-861.91 3170,-753.59 3214.79,-698.45 3416.24,-823.65 3072,-611.59 3003.76,-569.56 2910.3,-558.52 2849.31,-556.2"/>
<polygon fill="black" stroke="black" points="2849.16,-552.69 2839.06,-555.87 2848.94,-559.69 2849.16,-552.69"/>
<text text-anchor="middle" x="3380.5" y="-742.39" font-family="Times,serif" font-size="14.00">ethernet.ethertype == 0x8848</text>
</g>
<!-- reject_0 -->
<g id="node14" class="node">
<title>reject_0</title>
<polygon fill="none" stroke="black" points="2528,-593.59 2350,-555.59 2528,-517.59 2706,-555.59 2528,-593.59"/>
<text text-anchor="middle" x="2528" y="-559.39" font-family="Helvetica,sans-Serif" font-size="14.00">reject:</text>
<text text-anchor="middle" x="2528" y="-544.39" font-family="Helvetica,sans-Serif" font-size="14.00">unsupported ethertype</text>
</g>
<!-- parse_ethernet&#45;&gt;reject_0 -->
<g id="edge7" class="edge">
<title>parse_ethernet&#45;&gt;reject_0</title>
<path fill="none" stroke="black" stroke-dasharray="5,2" d="M2467.02,-872.57C2517.26,-864.99 2586.56,-847.93 2635,-809.59 2708.53,-751.4 2715.85,-717.2 2740,-626.59 2741.72,-620.15 2744.08,-616.87 2740,-611.59 2727.05,-594.85 2685.27,-582.27 2642.18,-573.4"/>
<polygon fill="black" stroke="black" points="2642.6,-569.91 2632.1,-571.39 2641.23,-576.77 2642.6,-569.91"/>
<text text-anchor="middle" x="2726.5" y="-742.39" font-family="Times,serif" font-size="14.00">default</text>
</g>
<!-- parse_vlan_ad&#45;&gt;parse_vlan_q -->
<g id="edge8" class="edge">
<title>parse_vlan_ad&#45;&gt;parse_vlan_q</title>
<path fill="none" stroke="black" d="M2098.07,-771.49C2096.3,-760.69 2096.33,-747.41 2104,-738.59 2120.69,-719.41 2192.95,-728.86 2217,-720.59 2227.28,-717.06 2237.84,-712 2247.44,-706.75"/>
<polygon fill="black" stroke="black" points="2249.35,-709.7 2256.32,-701.71 2245.9,-703.61 2249.35,-709.7"/>
<text text-anchor="middle" x="2246.5" y="-742.39" font-family="Times,serif" font-size="14.00">vlan_ad.encapsulated_proto == 0x8100</text>
</g>
<!-- reject_1 -->
<g id="node15" class="node">
<title>reject_1</title>
<polygon fill="none" stroke="black" points="1929,-720.59 1650,-682.59 1929,-644.59 2208,-682.59 1929,-720.59"/>
<text text-anchor="middle" x="1929" y="-686.39" font-family="Helvetica,sans-Serif" font-size="14.00">reject:</text>
<text text-anchor="middle" x="1929" y="-671.39" font-family="Helvetica,sans-Serif" font-size="14.00">802.1AD must be followed by 802.1Q</text>
</g>
<!-- parse_vlan_ad&#45;&gt;reject_1 -->
<g id="edge9" class="edge">
<title>parse_vlan_ad&#45;&gt;reject_1</title>
<path fill="none" stroke="black" stroke-dasharray="5,2" d="M2063.79,-771.58C2052.69,-766.13 2040.72,-759.9 2030,-753.59 2013.25,-743.73 1995.62,-732.02 1979.87,-721.03"/>
<polygon fill="black" stroke="black" points="1981.52,-717.91 1971.33,-715.01 1977.49,-723.63 1981.52,-717.91"/>
<text text-anchor="middle" x="2055.5" y="-742.39" font-family="Times,serif" font-size="14.00">default</text>
</g>
<!-- parse_vlan_q&#45;&gt;parse_ipv4 -->
<g id="edge10" class="edge">
<title>parse_vlan_q&#45;&gt;parse_ipv4</title>
<path fill="none" stroke="black" d="M2258.22,-663.49C2246.26,-656.14 2231.51,-648.47 2217,-644.59 2163.91,-630.39 1277.81,-649.81 1228,-626.59 1208.7,-617.6 1193.08,-599.25 1182.48,-583.6"/>
<polygon fill="black" stroke="black" points="1185.17,-581.31 1176.82,-574.78 1179.28,-585.09 1185.17,-581.31"/>
<text text-anchor="middle" x="1362" y="-615.39" font-family="Times,serif" font-size="14.00">vlan_q.encapsulated_proto == 0x800</text>
</g>
<!-- parse_vlan_q&#45;&gt;parse_ipv6 -->
<g id="edge11" class="edge">
<title>parse_vlan_q&#45;&gt;parse_ipv6</title>
<path fill="none" stroke="black" d="M2257.85,-663.45C2245.95,-656.19 2231.33,-648.61 2217,-644.59 2170.52,-631.58 1820.02,-657.56 1783,-626.59 1703.02,-559.69 1811.27,-465.34 1732,-397.59 1712.76,-381.15 1363.17,-368.13 1219.69,-363.46"/>
<polygon fill="black" stroke="black" points="1219.42,-359.95 1209.31,-363.12 1219.19,-366.94 1219.42,-359.95"/>
<text text-anchor="middle" x="1900.5" y="-488.39" font-family="Times,serif" font-size="14.00">vlan_q.encapsulated_proto == 0x86dd</text>
</g>
<!-- parse_vlan_q&#45;&gt;parse_mpls -->
<g id="edge12" class="edge">
<title>parse_vlan_q&#45;&gt;parse_mpls</title>
<path fill="none" stroke="black" d="M2334.78,-663.42C2390.05,-643.77 2472.65,-614.78 2488,-611.59 2587.09,-591.01 2617.65,-621.26 2715,-593.59 2726.61,-590.29 2738.52,-585.05 2749.24,-579.53"/>
<polygon fill="black" stroke="black" points="2751.16,-582.47 2758.31,-574.65 2747.85,-576.3 2751.16,-582.47"/>
<text text-anchor="middle" x="2626.5" y="-615.39" font-family="Times,serif" font-size="14.00">vlan_q.encapsulated_proto == 0x8847</text>
</g>
<!-- parse_vlan_q&#45;&gt;parse_mpls -->
<g id="edge13" class="edge">
<title>parse_vlan_q&#45;&gt;parse_mpls</title>
<path fill="none" stroke="black" d="M2341.94,-678.48C2462.72,-671.5 2732.91,-653.08 2765,-626.59 2777.25,-616.48 2782.79,-599.6 2785.24,-584.96"/>
<polygon fill="black" stroke="black" points="2788.74,-585.18 2786.54,-574.81 2781.8,-584.29 2788.74,-585.18"/>
<text text-anchor="middle" x="2914.5" y="-615.39" font-family="Times,serif" font-size="14.00">vlan_q.encapsulated_proto == 0x8848</text>
</g>
<!-- parse_vlan_q&#45;&gt;reject_0 -->
<g id="edge16" class="edge">
<title>parse_vlan_q&#45;&gt;reject_0</title>
<path fill="none" stroke="black" stroke-dasharray="5,2" d="M2310.89,-663.57C2341.31,-643.19 2386.94,-612.67 2389,-611.59 2408.94,-601.15 2431.32,-591.47 2452.2,-583.24"/>
<polygon fill="black" stroke="black" points="2453.62,-586.44 2461.67,-579.56 2451.08,-579.92 2453.62,-586.44"/>
<text text-anchor="middle" x="2414.5" y="-615.39" font-family="Times,serif" font-size="14.00">default</text>
</g>
<!-- reject_2 -->
<g id="node16" class="node">
<title>reject_2</title>
<polygon fill="none" stroke="black" points="2053,-593.59 1796,-555.59 2053,-517.59 2310,-555.59 2053,-593.59"/>
<text text-anchor="middle" x="2053" y="-559.39" font-family="Helvetica,sans-Serif" font-size="14.00">reject:</text>
<text text-anchor="middle" x="2053" y="-544.39" font-family="Helvetica,sans-Serif" font-size="14.00">vlan stacking beyond kernel depth</text>
</g>
<!-- parse_vlan_q&#45;&gt;reject_2 -->
<g id="edge14" class="edge">
<title>parse_vlan_q&#45;&gt;reject_2</title>
<path fill="none" stroke="black" d="M2257.85,-663.46C2245.95,-656.19 2231.33,-648.61 2217,-644.59 2171.28,-631.77 1822.86,-660.87 1790,-626.59 1769.04,-604.73 1835.05,-587.2 1906.17,-575.16"/>
<polygon fill="black" stroke="black" points="1906.93,-578.58 1916.23,-573.5 1905.79,-571.67 1906.93,-578.58"/>
<text text-anchor="middle" x="1928.5" y="-615.39" font-family="Times,serif" font-size="14.00">vlan_q.encapsulated_proto == 0x8100</text>
</g>
<!-- parse_vlan_q&#45;&gt;reject_2 -->
<g id="edge15" class="edge">
<title>parse_vlan_q&#45;&gt;reject_2</title>
<path fill="none" stroke="black" d="M2256.68,-663.55C2244.92,-656.58 2230.74,-649.19 2217,-644.59 2162.93,-626.52 2136.64,-659.38 2090,-626.59 2080.96,-620.24 2073.95,-610.97 2068.58,-601.25"/>
<polygon fill="black" stroke="black" points="2071.7,-599.65 2064.11,-592.26 2065.43,-602.77 2071.7,-599.65"/>
<text text-anchor="middle" x="2228" y="-615.39" font-family="Times,serif" font-size="14.00">vlan_q.encapsulated_proto == 0x88a8</text>
</g>
<!-- parse_ipip -->
<g id="node7" class="node">
<title>parse_ipip</title>
<polygon fill="none" stroke="black" points="113,-181.59 25,-181.59 25,-145.59 113,-145.59 113,-181.59"/>
<text text-anchor="middle" x="69" y="-159.89" font-family="Helvetica,sans-Serif" font-size="14.00">parse_ipip</text>
</g>
<!-- parse_ipv4&#45;&gt;parse_ipip -->
<g id="edge17" class="edge">
<title>parse_ipv4&#45;&gt;parse_ipip</title>
<path fill="none" stroke="black" d="M1116.66,-552.56C898.53,-543.4 46,-504.14 46,-449.59 46,-449.59 46,-449.59 46,-270.59 46,-243.08 53.49,-212.45 59.92,-191.22"/>
<polygon fill="black" stroke="black" points="63.28,-192.19 62.96,-181.6 56.61,-190.09 63.28,-192.19"/>
<text text-anchor="middle" x="123" y="-356.89" font-family="Times,serif" font-size="14.00">ipv4.protocol == 0x4</text>
</g>
<!-- parse_ip6ip -->
<g id="node8" class="node">
<title>parse_ip6ip</title>
<polygon fill="none" stroke="black" points="1201.5,-466.59 1104.5,-466.59 1104.5,-430.59 1201.5,-430.59 1201.5,-466.59"/>
<text text-anchor="middle" x="1153" y="-444.89" font-family="Helvetica,sans-Serif" font-size="14.00">parse_ip6ip</text>
</g>
<!-- parse_ipv4&#45;&gt;parse_ip6ip -->
<g id="edge20" class="edge">
<title>parse_ipv4&#45;&gt;parse_ip6ip</title>
<path fill="none" stroke="black" d="M1164.56,-536.3C1162.36,-519.82 1159.1,-495.37 1156.61,-476.63"/>
<polygon fill="black" stroke="black" points="1160.06,-476.08 1155.27,-466.63 1153.12,-477.01 1160.06,-476.08"/>
<text text-anchor="middle" x="1241.5" y="-488.39" font-family="Times,serif" font-size="14.00">ipv4.protocol == 0x29</text>
</g>
<!-- parse_tcp -->
<g id="node11" class="node">
<title>parse_tcp</title>
<polygon fill="none" stroke="black" points="1375,-182.59 1283,-182.59 1283,-144.59 1375,-144.59 1375,-182.59"/>
<text text-anchor="middle" x="1329" y="-167.39" font-family="Helvetica,sans-Serif" font-size="14.00">parse_tcp</text>
<text text-anchor="middle" x="1329" y="-152.39" font-family="Helvetica,sans-Serif" font-size="14.00">extract tcp</text>
</g>
<!-- parse_ipv4&#45;&gt;parse_tcp -->
<g id="edge18" class="edge">
<title>parse_ipv4&#45;&gt;parse_tcp</title>
<path fill="none" stroke="black" d="M1217.3,-539.01C1249.1,-528.74 1290.88,-514.48 1327,-499.59 1330.08,-498.32 1757.23,-293.42 1759,-290.59 1767.97,-276.28 1769.68,-265.68 1759,-252.59 1756.02,-248.94 1500.99,-198.41 1385.14,-175.61"/>
<polygon fill="black" stroke="black" points="1385.53,-172.12 1375.04,-173.62 1384.18,-178.99 1385.53,-172.12"/>
<text text-anchor="middle" x="1730" y="-356.89" font-family="Times,serif" font-size="14.00">ipv4.protocol == 0x6</text>
</g>
<!-- parse_udp -->
<g id="node12" class="node">
<title>parse_udp</title>
<polygon fill="none" stroke="black" points="514.5,-182.59 417.5,-182.59 417.5,-144.59 514.5,-144.59 514.5,-182.59"/>
<text text-anchor="middle" x="466" y="-167.39" font-family="Helvetica,sans-Serif" font-size="14.00">parse_udp</text>
<text text-anchor="middle" x="466" y="-152.39" font-family="Helvetica,sans-Serif" font-size="14.00">extract udp</text>
</g>
<!-- parse_ipv4&#45;&gt;parse_udp -->
<g id="edge19" class="edge">
<title>parse_ipv4&#45;&gt;parse_udp</title>
<path fill="none" stroke="black" d="M1116.81,-553.81C932.41,-550.27 303,-532.13 303,-449.59 303,-449.59 303,-449.59 303,-315.09 303,-268.9 311.63,-252.55 344,-219.59 361.45,-201.83 385.68,-189.29 407.94,-180.73"/>
<polygon fill="black" stroke="black" points="409.15,-184.02 417.34,-177.3 406.75,-177.44 409.15,-184.02"/>
<text text-anchor="middle" x="384.5" y="-356.89" font-family="Times,serif" font-size="14.00">ipv4.protocol == 0x11</text>
</g>
<!-- reject_3 -->
<g id="node17" class="node">
<title>reject_3</title>
<polygon fill="none" stroke="black" points="1715,-201.59 1532,-163.59 1715,-125.59 1898,-163.59 1715,-201.59"/>
<text text-anchor="middle" x="1715" y="-167.39" font-family="Helvetica,sans-Serif" font-size="14.00">reject:</text>
<text text-anchor="middle" x="1715" y="-152.39" font-family="Helvetica,sans-Serif" font-size="14.00">unsupported ip protocol</text>
</g>
<!-- parse_ipv4&#45;&gt;reject_3 -->
<g id="edge21" class="edge">
<title>parse_ipv4&#45;&gt;reject_3</title>
<path fill="none" stroke="black" stroke-dasharray="5,2" d="M1217.13,-548.71C1355.39,-531.37 1736.68,-475.54 1810,-379.59 1852.13,-324.46 1796.39,-247.72 1754.2,-202.39"/>
<polygon fill="black" stroke="black" points="1756.72,-199.97 1747.3,-195.12 1751.64,-204.79 1756.72,-199.97"/>
<text text-anchor="middle" x="1850.5" y="-356.89" font-family="Times,serif" font-size="14.00">default</text>
</g>
<!-- parse_ipv6_opt -->
<g id="node6" class="node">
<title>parse_ipv6_opt</title>
<polygon fill="none" stroke="black" points="1007,-290.59 885,-290.59 885,-252.59 1007,-252.59 1007,-290.59"/>
<text text-anchor="middle" x="946" y="-275.39" font-family="Helvetica,sans-Serif" font-size="14.00">parse_ipv6_opt</text>
<text text-anchor="middle" x="946" y="-260.39" font-family="Helvetica,sans-Serif" font-size="14.00">extract ext_opt</text>
</g>
<!-- parse_ipv6&#45;&gt;parse_ipv6_opt -->
<g id="edge22" class="edge">
<title>parse_ipv6&#45;&gt;parse_ipv6_opt</title>
<path fill="none" stroke="black" d="M1155.65,-341.39C1152.64,-330.26 1147.09,-316.67 1137,-308.59 1118.65,-293.91 1063.73,-284.55 1017.47,-279.06"/>
<polygon fill="black" stroke="black" points="1017.77,-275.58 1007.44,-277.92 1016.98,-282.53 1017.77,-275.58"/>
<text text-anchor="middle" x="1240.5" y="-312.39" font-family="Times,serif" font-size="14.00">ipv6.next_header == 0x0</text>
</g>
<!-- parse_ipv6&#45;&gt;parse_ipv6_opt -->
<g id="edge23" class="edge">
<title>parse_ipv6&#45;&gt;parse_ipv6_opt</title>
<path fill="none" stroke="black" d="M1108.82,-358.46C1051.77,-355.99 963.83,-348.18 943,-323.59 937.68,-317.31 936.61,-308.88 937.41,-300.69"/>
<polygon fill="black" stroke="black" points="940.9,-301.08 939.24,-290.61 934.01,-299.82 940.9,-301.08"/>
<text text-anchor="middle" x="1038" y="-312.39" font-family="Times,serif" font-size="14.00">ipv6.next_header == 0x3c</text>
</g>
<!-- parse_ipv6&#45;&gt;parse_ipip -->
<g id="edge25" class="edge">
<title>parse_ipv6&#45;&gt;parse_ipip</title>
<path fill="none" stroke="black" d="M1108.79,-342.53C1107.18,-342.18 1105.58,-341.87 1104,-341.59 922.65,-309.74 450.79,-351.42 277,-290.59 207.91,-266.41 136.99,-217.19 98.42,-187.93"/>
<polygon fill="black" stroke="black" points="100.3,-184.97 90.23,-181.66 96.04,-190.52 100.3,-184.97"/>
<text text-anchor="middle" x="368.5" y="-267.89" font-family="Times,serif" font-size="14.00">ipv6.next_header == 0x4</text>
</g>
<!-- parse_ipv6&#45;&gt;parse_ip6ip -->
<g id="edge28" class="edge">
<title>parse_ipv6&#45;&gt;parse_ip6ip</title>
<path fill="none" stroke="black" d="M1157.73,-379.86C1156.92,-391.47 1155.85,-406.73 1154.94,-419.83"/>
<polygon fill="black" stroke="black" points="1151.42,-419.97 1154.21,-430.19 1158.4,-420.46 1151.42,-419.97"/>
<text text-anchor="middle" x="1253" y="-401.39" font-family="Times,serif" font-size="14.00">ipv6.next_header == 0x29</text>
</g>
<!-- parse_ipv6_frag -->
<g id="node9" class="node">
<title>parse_ipv6_frag</title>
<polygon fill="none" stroke="black" points="1010,-182.59 882,-182.59 882,-144.59 1010,-144.59 1010,-182.59"/>
<text text-anchor="middle" x="946" y="-167.39" font-family="Helvetica,sans-Serif" font-size="14.00">parse_ipv6_frag</text>
<text text-anchor="middle" x="946" y="-152.39" font-family="Helvetica,sans-Serif" font-size="14.00">extract ext_frag</text>
</g>
<!-- parse_ipv6&#45;&gt;parse_ipv6_frag -->
<g id="edge24" class="edge">
<title>parse_ipv6&#45;&gt;parse_ipv6_frag</title>
<path fill="none" stroke="black" d="M1108.76,-342.68C1107.16,-342.29 1105.57,-341.93 1104,-341.59 1012.5,-322 747.65,-360.99 686,-290.59 674.87,-277.89 676.16,-266.32 686,-252.59 727.96,-194.09 810.96,-173.99 871.94,-167.34"/>
<polygon fill="black" stroke="black" points="872.3,-170.82 881.9,-166.35 871.61,-163.85 872.3,-170.82"/>
<text text-anchor="middle" x="781" y="-267.89" font-family="Times,serif" font-size="14.00">ipv6.next_header == 0x2c</text>
</g>
<!-- parse_ipv6&#45;&gt;parse_tcp -->
<g id="edge26" class="edge">
<title>parse_ipv6&#45;&gt;parse_tcp</title>
<path fill="none" stroke="black" d="M1209.05,-355C1287.26,-346.78 1433.21,-326.93 1469,-290.59 1491.51,-267.74 1500.45,-245.83 1482,-219.59 1460.3,-188.73 1419.54,-175.1 1385.55,-169.12"/>
<polygon fill="black" stroke="black" points="1385.67,-165.6 1375.25,-167.5 1384.58,-172.51 1385.67,-165.6"/>
<text text-anchor="middle" x="1583.5" y="-267.89" font-family="Times,serif" font-size="14.00">ipv6.next_header == 0x6</text>
</g>
<!-- parse_ipv6&#45;&gt;parse_udp -->
<g id="edge27" class="edge">
<title>parse_ipv6&#45;&gt;parse_udp</title>
<path fill="none" stroke="black" d="M1108.79,-342.56C1107.18,-342.21 1105.58,-341.88 1104,-341.59 1035.9,-329.14 531.66,-339.84 483,-290.59 457.96,-265.25 457.74,-221.79 460.99,-193.12"/>
<polygon fill="black" stroke="black" points="464.5,-193.3 462.36,-182.93 457.56,-192.37 464.5,-193.3"/>
<text text-anchor="middle" x="579" y="-267.89" font-family="Times,serif" font-size="14.00">ipv6.next_header == 0x11</text>
</g>
<!-- parse_ipv6&#45;&gt;reject_3 -->
<g id="edge29" class="edge">
<title>parse_ipv6&#45;&gt;reject_3</title>
<path fill="none" stroke="black" stroke-dasharray="5,2" d="M1209.36,-359.71C1325.88,-358.93 1609.42,-350.75 1679,-290.59 1701.43,-271.2 1710.35,-238.89 1713.71,-211.84"/>
<polygon fill="black" stroke="black" points="1717.2,-212.08 1714.74,-201.77 1710.24,-211.36 1717.2,-212.08"/>
<text text-anchor="middle" x="1729.5" y="-267.89" font-family="Times,serif" font-size="14.00">default</text>
</g>
<!-- parse_ipv6_opt&#45;&gt;parse_ipv6_opt -->
<g id="edge30" class="edge">
<title>parse_ipv6_opt&#45;&gt;parse_ipv6_opt</title>
<path fill="none" stroke="black" d="M1007.28,-275.44C1017.75,-274.92 1025,-273.63 1025,-271.59 1025,-270.32 1022.17,-269.34 1017.49,-268.65"/>
<polygon fill="black" stroke="black" points="1017.55,-265.15 1007.28,-267.74 1016.93,-272.12 1017.55,-265.15"/>
<text text-anchor="middle" x="1127.5" y="-267.89" font-family="Times,serif" font-size="14.00">ext_opt.next_header == 0x0</text>
</g>
<!-- parse_ipv6_opt&#45;&gt;parse_ipv6_opt -->
<g id="edge31" class="edge">
<title>parse_ipv6_opt&#45;&gt;parse_ipv6_opt</title>
<path fill="none" stroke="black" d="M1007.01,-277.92C1091.74,-281.86 1230,-279.75 1230,-271.59 1230,-263.76 1102.33,-261.5 1017.17,-264.83"/>
<polygon fill="black" stroke="black" points="1016.85,-261.34 1007.01,-265.26 1017.15,-268.33 1016.85,-261.34"/>
<text text-anchor="middle" x="1336" y="-267.89" font-family="Times,serif" font-size="14.00">ext_opt.next_header == 0x3c</text>
</g>
<!-- parse_ipv6_opt&#45;&gt;parse_ipip -->
<g id="edge33" class="edge">
<title>parse_ipv6_opt&#45;&gt;parse_ipip</title>
<path fill="none" stroke="black" d="M884.79,-254.89C880.14,-254.01 875.51,-253.23 871,-252.59 687.29,-226.83 638.35,-255.23 454,-234.59 335.03,-221.27 197.43,-193.12 123.21,-176.87"/>
<polygon fill="black" stroke="black" points="123.69,-173.39 113.17,-174.66 122.18,-180.23 123.69,-173.39"/>
<text text-anchor="middle" x="556.5" y="-223.39" font-family="Times,serif" font-size="14.00">ext_opt.next_header == 0x4</text>
</g>
<!-- parse_ipv6_opt&#45;&gt;parse_ip6ip -->
<g id="edge36" class="edge">
<title>parse_ipv6_opt&#45;&gt;parse_ip6ip</title>
<path fill="none" stroke="black" d="M923.16,-290.64C897.93,-312.76 863.65,-350.84 886,-379.59 911.29,-412.13 1023.46,-431.67 1094.12,-440.97"/>
<polygon fill="black" stroke="black" points="1093.87,-444.47 1104.23,-442.27 1094.76,-437.52 1093.87,-444.47"/>
<text text-anchor="middle" x="993" y="-356.89" font-family="Times,serif" font-size="14.00">ext_opt.next_header == 0x29</text>
</g>
<!-- parse_ipv6_opt&#45;&gt;parse_ipv6_frag -->
<g id="edge32" class="edge">
<title>parse_ipv6_opt&#45;&gt;parse_ipv6_frag</title>
<path fill="none" stroke="black" d="M946,-252.13C946,-235.79 946,-211.69 946,-192.92"/>
<polygon fill="black" stroke="black" points="949.5,-192.85 946,-182.85 942.5,-192.85 949.5,-192.85"/>
<text text-anchor="middle" x="1052" y="-223.39" font-family="Times,serif" font-size="14.00">ext_opt.next_header == 0x2c</text>
</g>
<!-- parse_ipv6_opt&#45;&gt;parse_tcp -->
<g id="edge34" class="edge">
<title>parse_ipv6_opt&#45;&gt;parse_tcp</title>
<path fill="none" stroke="black" d="M1007.4,-264.33C1051.11,-258.92 1110.92,-249.56 1162,-234.59 1178.24,-229.83 1181.41,-226.18 1197,-219.59 1222.94,-208.63 1251.81,-196.58 1275.92,-186.57"/>
<polygon fill="black" stroke="black" points="1277.36,-189.76 1285.25,-182.69 1274.68,-183.29 1277.36,-189.76"/>
<text text-anchor="middle" x="1299.5" y="-223.39" font-family="Times,serif" font-size="14.00">ext_opt.next_header == 0x6</text>
</g>
<!-- parse_ipv6_opt&#45;&gt;parse_udp -->
<g id="edge35" class="edge">
<title>parse_ipv6_opt&#45;&gt;parse_udp</title>
<path fill="none" stroke="black" d="M884.72,-255.3C880.09,-254.33 875.48,-253.41 871,-252.59 807.98,-241.1 790.87,-246.89 728,-234.59 657.24,-220.75 577.39,-198.42 524.64,-182.71"/>
<polygon fill="black" stroke="black" points="525.37,-179.28 514.79,-179.76 523.36,-185.99 525.37,-179.28"/>
<text text-anchor="middle" x="835" y="-223.39" font-family="Times,serif" font-size="14.00">ext_opt.next_header == 0x11</text>
</g>
<!-- parse_ipv6_opt&#45;&gt;reject_3 -->
<g id="edge37" class="edge">
<title>parse_ipv6_opt&#45;&gt;reject_3</title>
<path fill="none" stroke="black" stroke-dasharray="5,2" d="M1007.16,-268.51C1094.97,-264.9 1261.63,-255.72 1402,-234.59 1478.57,-223.07 1564.31,-203.41 1626.67,-187.85"/>
<polygon fill="black" stroke="black" points="1627.62,-191.22 1636.47,-185.39 1625.92,-184.43 1627.62,-191.22"/>
<text text-anchor="middle" x="1505.5" y="-223.39" font-family="Times,serif" font-size="14.00">default</text>
</g>
<!-- parse_ipip&#45;&gt;parse_ipv4 -->
<g id="edge38" class="edge">
<title>parse_ipip&#45;&gt;parse_ipv4</title>
<path fill="none" stroke="black" d="M48.67,-181.87C28.32,-201.21 0,-234.58 0,-270.59 0,-449.59 0,-449.59 0,-449.59 0,-533.05 98.41,-487.58 181,-499.59 528.87,-550.18 952.01,-555.02 1106.69,-554.94"/>
<polygon fill="black" stroke="black" points="1106.93,-558.44 1116.93,-554.92 1106.92,-551.44 1106.93,-558.44"/>
</g>
<!-- parse_ip6ip&#45;&gt;parse_ipv6 -->
<g id="edge39" class="edge">
<title>parse_ip6ip&#45;&gt;parse_ipv6</title>
<path fill="none" stroke="black" d="M1151.68,-430.43C1151.18,-420.76 1150.95,-408.48 1152,-397.59 1152.25,-395.04 1152.59,-392.4 1152.99,-389.77"/>
<polygon fill="black" stroke="black" points="1156.45,-390.27 1154.75,-379.81 1149.56,-389.04 1156.45,-390.27"/>
</g>
<!-- accept -->
<g id="node13" class="node">
<title>accept</title>
<ellipse fill="none" stroke="black" cx="1099" cy="-44.3" rx="40.11" ry="40.11"/>
<ellipse fill="none" stroke="black" cx="1099" cy="-44.3" rx="44.09" ry="44.09"/>
<text text-anchor="middle" x="1099" y="-40.6" font-family="Helvetica,sans-Serif" font-size="14.00">accept</text>
</g>
<!-- parse_ipv6_frag&#45;&gt;accept -->
<g id="edge40" class="edge">
<title>parse_ipv6_frag&#45;&gt;accept</title>
<path fill="none" stroke="black" d="M969.57,-144.52C992.61,-126.86 1028.22,-99.56 1056.25,-78.07"/>
<polygon fill="black" stroke="black" points="1058.51,-80.75 1064.32,-71.89 1054.25,-75.19 1058.51,-80.75"/>
</g>
<!-- parse_mpls&#45;&gt;accept -->
<g id="edge41" class="edge">
<title>parse_mpls&#45;&gt;accept</title>
<path fill="none" stroke="black" d="M2755.87,-536.43C2743.47,-529.78 2728.86,-522.65 2715,-517.59 2651.18,-494.33 2417,-517.52 2417,-449.59 2417,-449.59 2417,-449.59 2417,-162.59 2417,-98.08 1402.06,-56.47 1153.46,-47.24"/>
<polygon fill="black" stroke="black" points="1153.35,-43.73 1143.23,-46.86 1153.09,-50.73 1153.35,-43.73"/>
</g>
<!-- parse_tcp&#45;&gt;accept -->
<g id="edge42" class="edge">
<title>parse_tcp&#45;&gt;accept</title>
<path fill="none" stroke="black" d="M1293.57,-144.52C1254.39,-124.54 1191.06,-92.24 1147.34,-69.95"/>
<polygon fill="black" stroke="black" points="1148.83,-66.78 1138.33,-65.35 1145.65,-73.01 1148.83,-66.78"/>
</g>
<!-- parse_udp&#45;&gt;accept -->
<g id="edge43" class="edge">
<title>parse_udp&#45;&gt;accept</title>
<path fill="none" stroke="black" d="M514.62,-153.58C630.8,-132.06 923.86,-77.75 1045.15,-55.27"/>
<polygon fill="black" stroke="black" points="1046.12,-58.66 1055.31,-53.39 1044.84,-51.77 1046.12,-58.66"/>
</g>
</g>
</svg>
