<?xml version="1.0" encoding="UTF-8" standalone="no"?>
<!DOCTYPE svg PUBLIC "-//W3C//DTD SVG 1.1//EN"
 "http://www.w3.org/Graphics/SVG/1.1/DTD/svg11.dtd">
<!-- Generated by graphviz version 2.43.0 (0)
 -->
<!-- Title: linux_flow_dissector Pages: 1 -->
<svg width="2448pt" height="642pt"
 viewBox="0.00 0.00 2448.33 641.59" xmlns="http://www.w3.org/2000/svg" xmlns:xlink="http://www.w3.org/1999/xlink">
<g id="graph0" class="graph" transform="scale(1 1) rotate(0) translate(4 637.59)">
<title>linux_flow_dissector</title>
<polygon fill="white" stroke="transparent" points="-4,4 -4,-637.59 2444.33,-637.59 2444.33,4 -4,4"/>
<!-- parse_ethernet -->
<g id="node1" class="node">
<title>parse_ethernet</title>
<polygon fill="none" stroke="black" points="991.33,-633.59 863.33,-633.59 863.33,-595.59 991.33,-595.59 991.33,-633.59"/>
<text text-anchor="middle" x="927.33" y="-618.39" font-family="Helvetica,sans-Serif" font-size="14.00">parse_ethernet</text>
<text text-anchor="middle" x="927.33" y="-603.39" font-family="Helvetica,sans-Serif" font-size="14.00">extract ethernet</text>
</g>
<!-- parse_vlan_ad -->
<g id="node2" class="node">
<title>parse_vlan_ad</title>
<polygon fill="none" stroke="black" points="988.83,-544.59 865.83,-544.59 865.83,-506.59 988.83,-506.59 988.83,-544.59"/>
<text text-anchor="middle" x="927.33" y="-529.39" font-family="Helvetica,sans-Serif" font-size="14.00">parse_vlan_ad</text>
<text text-anchor="middle" x="927.33" y="-514.39" font-family="Helvetica,sans-Serif" font-size="14.00">extract vlan_ad</text>
</g>
<!-- parse_ethernet&#45;&gt;parse_vlan_ad -->
<g id="edge4" class="edge">
<title>parse_ethernet&#45;&gt;parse_vlan_ad</title>
<path fill="none" stroke="black" d="M927.33,-595.57C927.33,-583.78 927.33,-568.15 927.33,-554.75"/>
<polygon fill="black" stroke="black" points="930.83,-554.6 927.33,-544.6 923.83,-554.6 930.83,-554.6"/>
<text text-anchor="middle" x="1038.33" y="-566.39" font-family="Times,serif" font-size="14.00">ethernet.ethertype == 0x88a8</text>
</g>
<!-- parse_vlan_q -->
<g id="node3" class="node">
<title>parse_vlan_q</title>
<polygon fill="none" stroke="black" points="1302.83,-436.59 1187.83,-436.59 1187.83,-398.59 1302.83,-398.59 1302.83,-436.59"/>
<text text-anchor="middle" x="1245.33" y="-421.39" font-family="Helvetica,sans-Serif" font-size="14.00">parse_vlan_q</text>
<text text-anchor="middle" x="1245.33" y="-406.39" font-family="Helvetica,sans-Serif" font-size="14.00">extract vlan_q</text>
</g>
<!-- parse_ethernet&#45;&gt;parse_vlan_q -->
<g id="edge3" class="edge">
<title>parse_ethernet&#45;&gt;parse_vlan_q</title>
<path fill="none" stroke="black" d="M991.64,-613.14C1038.55,-610.53 1102.53,-602.14 1153.33,-577.59 1206.01,-552.13 1226.78,-542.15 1250.33,-488.59 1256.06,-475.57 1255.52,-459.86 1253.24,-446.63"/>
<polygon fill="black" stroke="black" points="1256.62,-445.7 1251.12,-436.64 1249.77,-447.15 1256.62,-445.7"/>
<text text-anchor="middle" x="1351.83" y="-521.89" font-family="Times,serif" font-size="14.00">ethernet.ethertype == 0x8100</text>
</g>
<!-- parse_ipv4 -->
<g id="node4" class="node">
<title>parse_ipv4</title>
<polygon fill="none" stroke="black" points="966.33,-309.59 866.33,-309.59 866.33,-271.59 966.33,-271.59 966.33,-309.59"/>
<text text-anchor="middle" x="916.33" y="-294.39" font-family="Helvetica,sans-Serif" font-size="14.00">parse_ipv4</text>
<text text-anchor="middle" x="916.33" y="-279.39" font-family="Helvetica,sans-Serif" font-size="14.00">extract ipv4</text>
</g>
<!-- parse_ethernet&#45;&gt;parse_ipv4 -->
<g id="edge1" class="edge">
<title>parse_ethernet&#45;&gt;parse_ipv4</title>
<path fill="none" stroke="black" d="M863.08,-602.58C786.39,-585.68 661.14,-545.32 602.33,-455.59 575.75,-415.03 566.09,-383.68 597.33,-346.59 629.74,-308.12 772.84,-296.56 855.95,-293.08"/>
<polygon fill="black" stroke="black" points="856.17,-296.58 866.03,-292.69 855.9,-289.58 856.17,-296.58"/>
<text text-anchor="middle" x="735.33" y="-477.39" font-family="Times,serif" font-size="14.00">ethernet.ethertype == 0x800</text>
</g>
<!-- parse_ipv6 -->
<g id="node5" class="node">
<title>parse_ipv6</title>
<polygon fill="none" stroke="black" points="1673.33,-309.59 1573.33,-309.59 1573.33,-271.59 1673.33,-271.59 1673.33,-309.59"/>
<text text-anchor="middle" x="1623.33" y="-294.39" font-family="Helvetica,sans-Serif" font-size="14.00">parse_ipv6</text>
<text text-anchor="middle" x="1623.33" y="-279.39" font-family="Helvetica,sans-Serif" font-size="14.00">extract ipv6</text>
</g>
<!-- parse_ethernet&#45;&gt;parse_ipv6 -->
<g id="edge2" class="edge">
<title>parse_ethernet&#45;&gt;parse_ipv6</title>
<path fill="none" stroke="black" d="M991.46,-611.02C1223.51,-600.22 2013.39,-549.92 2158.33,-361.59 2162.4,-356.31 2162.8,-351.54 2158.33,-346.59 2142.59,-329.15 1820.94,-305.14 1684.1,-295.67"/>
<polygon fill="black" stroke="black" points="1684.01,-292.16 1673.79,-294.96 1683.53,-299.14 1684.01,-292.16"/>
<text text-anchor="middle" x="2065.83" y="-477.39" font-family="Times,serif" font-size="14.00">ethernet.ethertype == 0x86dd</text>
</g>
<!-- parse_mpls -->
<g id="node6" class="node">
<title>parse_mpls</title>
<polygon fill="none" stroke="black" points="343.33,-309.59 239.33,-309.59 239.33,-271.59 343.33,-271.59 343.33,-309.59"/>
<text text-anchor="middle" x="291.33" y="-294.39" font-family="Helvetica,sans-Serif" font-size="14.00">parse_mpls</text>
<text text-anchor="middle" x="291.33" y="-279.39" font-family="Helvetica,sans-Serif" font-size="14.00">extract mpls</text>
</g>
<!-- parse_ethernet&#45;&gt;parse_mpls -->
<g id="edge5" class="edge">
<title>parse_ethernet&#45;&gt;parse_mpls</title>
<path fill="none" stroke="black" d="M863.28,-612.78C716.85,-610.52 361.25,-602.54 244.33,-577.59 136.73,-554.64 75.59,-579.3 13.33,-488.59 -49.6,-396.91 129.8,-333.65 229.57,-306.5"/>
<polygon fill="black" stroke="black" points="230.5,-309.88 239.26,-303.91 228.69,-303.12 230.5,-309.88"/>
<text text-anchor="middle" x="124.83" y="-477.39" font-family="Times,serif" font-size="14.00">ethernet.ethertype == 0x8847</text>
</g>
<!-- parse_ethernet&#45;&gt;parse_mpls -->
<g id="edge6" class="edge">
<title>parse_ethernet&#45;&gt;parse_mpls</title>
<path fill="none" stroke="black" d="M862.97,-611.56C757.05,-605.53 542.68,-581.76 391.33,-488.59 327.49,-449.29 306.68,-431.78 280.33,-361.59 275.31,-348.23 277.1,-332.61 280.56,-319.52"/>
<polygon fill="black" stroke="black" points="284,-320.24 283.59,-309.65 277.31,-318.18 284,-320.24"/>
<text text-anchor="middle" x="502.83" y="-477.39" font-family="Times,serif" font-size="14.00">ethernet.ethertype == 0x8848</text>
</g>
<!-- reject_0 -->
<g id="node10" class="node">
<title>reject_0</title>
<polygon fill="none" stroke="black" points="2262.33,-328.59 2084.33,-290.59 2262.33,-252.59 2440.33,-290.59 2262.33,-328.59"/>
<text text-anchor="middle" x="2262.33" y="-294.39" font-family="Helvetica,sans-Serif" font-size="14.00">reject:</text>
<text text-anchor="middle" x="2262.33" y="-279.39" font-family="Helvetica,sans-Serif" font-size="14.00">unsupported ethertype</text>
</g>
<!-- parse_ethernet&#45;&gt;reject_0 -->
<g id="edge7" class="edge">
<title>parse_ethernet&#45;&gt;reject_0</title>
<path fill="none" stroke="black" stroke-dasharray="5,2" d="M991.57,-611.14C1234.27,-601.32 2086.4,-561.87 2181.33,-488.59 2228.41,-452.25 2248.3,-383.81 2256.59,-337.95"/>
<polygon fill="black" stroke="black" points="2260.06,-338.4 2258.28,-327.96 2253.16,-337.24 2260.06,-338.4"/>
<text text-anchor="middle" x="2222.83" y="-477.39" font-family="Times,serif" font-size="14.00">default</text>
</g>
<!-- parse_vlan_ad&#45;&gt;parse_vlan_q -->
<g id="edge8" class="edge">
<title>parse_vlan_ad&#45;&gt;parse_vlan_q</title>
<path fill="none" stroke="black" d="M935.76,-506.54C942.15,-495.03 952.11,-480.94 965.33,-473.59 1006.85,-450.51 1132.87,-469.38 1178.33,-455.59 1189.14,-452.32 1200.15,-447.14 1210.05,-441.68"/>
<polygon fill="black" stroke="black" points="1211.87,-444.67 1218.78,-436.64 1208.37,-438.61 1211.87,-444.67"/>
<text text-anchor="middle" x="1107.83" y="-477.39" font-family="Times,serif" font-size="14.00">vlan_ad.encapsulated_proto == 0x8100</text>
</g>
<!-- reject_1 -->
<g id="node11" class="node">
<title>reject_1</title>
<polygon fill="none" stroke="black" points="890.33,-455.59 611.33,-417.59 890.33,-379.59 1169.33,-417.59 890.33,-455.59"/>
<text text-anchor="middle" x="890.33" y="-421.39" font-family="Helvetica,sans-Serif" font-size="14.00">reject:</text>
<text text-anchor="middle" x="890.33" y="-406.39" font-family="Helvetica,sans-Serif" font-size="14.00">802.1AD must be followed by 802.1Q</text>
</g>
<!-- parse_vlan_ad&#45;&gt;reject_1 -->
<g id="edge9" class="edge">
<title>parse_vlan_ad&#45;&gt;reject_1</title>
<path fill="none" stroke="black" stroke-dasharray="5,2" d="M903.95,-506.56C898.86,-501.36 894.15,-495.27 891.33,-488.59 888.27,-481.35 886.69,-473.3 886.04,-465.31"/>
<polygon fill="black" stroke="black" points="889.54,-465.15 885.68,-455.29 882.54,-465.41 889.54,-465.15"/>
<text text-anchor="middle" x="916.83" y="-477.39" font-family="Times,serif" font-size="14.00">default</text>
</g>
<!-- parse_vlan_q&#45;&gt;parse_ipv4 -->
<g id="edge10" class="edge">
<title>parse_vlan_q&#45;&gt;parse_ipv4</title>
<path fill="none" stroke="black" d="M1218.8,-398.47C1206.94,-391.31 1192.47,-383.8 1178.33,-379.59 1126,-364.04 974.98,-396.88 933.33,-361.59 921.43,-351.51 917.09,-334.63 915.77,-319.98"/>
<polygon fill="black" stroke="black" points="919.26,-319.65 915.27,-309.83 912.26,-319.99 919.26,-319.65"/>
<text text-anchor="middle" x="1067.33" y="-350.39" font-family="Times,serif" font-size="14.00">vlan_q.encapsulated_proto == 0x800</text>
</g>
<!-- parse_vlan_q&#45;&gt;parse_ipv6 -->
<g id="edge11" class="edge">
<title>parse_vlan_q&#45;&gt;parse_ipv6</title>
<path fill="none" stroke="black" d="M1303.08,-414.84C1433.39,-410.29 1741.35,-395.98 1772.33,-361.59 1802.88,-327.68 1737.32,-308.84 1683.68,-299.46"/>
<polygon fill="black" stroke="black" points="1683.93,-295.95 1673.49,-297.76 1682.78,-302.86 1683.93,-295.95"/>
<text text-anchor="middle" x="1917.83" y="-350.39" font-family="Times,serif" font-size="14.00">vlan_q.encapsulated_proto == 0x86dd</text>
</g>
<!-- parse_vlan_q&#45;&gt;parse_mpls -->
<g id="edge12" class="edge">
<title>parse_vlan_q&#45;&gt;parse_mpls</title>
<path fill="none" stroke="black" d="M1219.52,-398.59C1207.55,-391.26 1192.8,-383.58 1178.33,-379.59 1063.22,-347.86 759.82,-376.33 641.33,-361.59 610.19,-357.72 603.06,-352.94 572.33,-346.59 497.13,-331.06 410.36,-314.25 353.38,-303.35"/>
<polygon fill="black" stroke="black" points="353.92,-299.89 343.44,-301.46 352.61,-306.77 353.92,-299.89"/>
<text text-anchor="middle" x="779.83" y="-350.39" font-family="Times,serif" font-size="14.00">vlan_q.encapsulated_proto == 0x8847</text>
</g>
<!-- parse_vlan_q&#45;&gt;parse_mpls -->
<g id="edge13" class="edge">
<title>parse_vlan_q&#45;&gt;parse_mpls</title>
<path fill="none" stroke="black" d="M1219.54,-398.5C1207.58,-391.15 1192.83,-383.49 1178.33,-379.59 1130.73,-366.81 325.83,-396.8 291.33,-361.59 280.79,-350.84 280.45,-334.09 282.91,-319.68"/>
<polygon fill="black" stroke="black" points="286.37,-320.23 285.09,-309.71 279.54,-318.73 286.37,-320.23"/>
<text text-anchor="middle" x="429.83" y="-350.39" font-family="Times,serif" font-size="14.00">vlan_q.encapsulated_proto == 0x8848</text>
</g>
<!-- parse_vlan_q&#45;&gt;reject_0 -->
<g id="edge16" class="edge">
<title>parse_vlan_q&#45;&gt;reject_0</title>
<path fill="none" stroke="black" stroke-dasharray="5,2" d="M1302.97,-414.7C1463.79,-409.09 1915.1,-391.11 2060.33,-361.59 2106.27,-352.26 2156.04,-335.1 2194.69,-320.1"/>
<polygon fill="black" stroke="black" points="2196.24,-323.26 2204.27,-316.34 2193.68,-316.74 2196.24,-323.26"/>
<text text-anchor="middle" x="2141.83" y="-350.39" font-family="Times,serif" font-size="14.00">default</text>
</g>
<!-- reject_2 -->
<g id="node12" class="node">
<title>reject_2</title>
<polygon fill="none" stroke="black" points="1279.33,-328.59 1022.33,-290.59 1279.33,-252.59 1536.33,-290.59 1279.33,-328.59"/>
<text text-anchor="middle" x="1279.33" y="-294.39" font-family="Helvetica,sans-Serif" font-size="14.00">reject:</text>
<text text-anchor="middle" x="1279.33" y="-279.39" font-family="Helvetica,sans-Serif" font-size="14.00">vlan stacking beyond kernel depth</text>
</g>
<!-- parse_vlan_q&#45;&gt;reject_2 -->
<g id="edge14" class="edge">
<title>parse_vlan_q&#45;&gt;reject_2</title>
<path fill="none" stroke="black" d="M1225.28,-398.33C1212.41,-384.29 1199.61,-364.37 1208.33,-346.59 1211.59,-339.95 1216.07,-333.88 1221.22,-328.4"/>
<polygon fill="black" stroke="black" points="1223.83,-330.75 1228.6,-321.3 1218.97,-325.71 1223.83,-330.75"/>
<text text-anchor="middle" x="1346.83" y="-350.39" font-family="Times,serif" font-size="14.00">vlan_q.encapsulated_proto == 0x8100</text>
</g>
<!-- parse_vlan_q&#45;&gt;reject_2 -->
<g id="edge15" class="edge">
<title>parse_vlan_q&#45;&gt;reject_2</title>
<path fill="none" stroke="black" d="M1302.98,-411.52C1366.59,-404.59 1462.95,-389.68 1485.33,-361.59 1507.1,-334.27 1486.25,-317.55 1450.74,-307.35"/>
<polygon fill="black" stroke="black" points="1451.45,-303.91 1440.89,-304.76 1449.67,-310.68 1451.45,-303.91"/>
<text text-anchor="middle" x="1630.33" y="-350.39" font-family="Times,serif" font-size="14.00">vlan_q.encapsulated_proto == 0x88a8</text>
</g>
<!-- parse_tcp -->
<g id="node7" class="node">
<title>parse_tcp</title>
<polygon fill="none" stroke="black" points="1440.33,-182.59 1348.33,-182.59 1348.33,-144.59 1440.33,-144.59 1440.33,-182.59"/>
<text text-anchor="middle" x="1394.33" y="-167.39" font-family="Helvetica,sans-Serif" font-size="14.00">parse_tcp</text>
<text text-anchor="middle" x="1394.33" y="-152.39" font-family="Helvetica,sans-Serif" font-size="14.00">extract tcp</text>
</g>
<!-- parse_ipv4&#45;&gt;parse_tcp -->
<g id="edge17" class="edge">
<title>parse_ipv4&#45;&gt;parse_tcp</title>
<path fill="none" stroke="black" d="M955.6,-271.42C972.92,-264.25 993.76,-256.74 1013.33,-252.59 1050.01,-244.82 1318,-253.6 1350.33,-234.59 1366.27,-225.22 1377.3,-207.56 1384.34,-192.33"/>
<polygon fill="black" stroke="black" points="1387.71,-193.35 1388.39,-182.78 1381.26,-190.61 1387.71,-193.35"/>
<text text-anchor="middle" x="1443.33" y="-223.39" font-family="Times,serif" font-size="14.00">ipv4.protocol == 0x6</text>
</g>
<!-- parse_udp -->
<g id="node8" class="node">
<title>parse_udp</title>
<polygon fill="none" stroke="black" points="945.83,-182.59 848.83,-182.59 848.83,-144.59 945.83,-144.59 945.83,-182.59"/>
<text text-anchor="middle" x="897.33" y="-167.39" font-family="Helvetica,sans-Serif" font-size="14.00">parse_udp</text>
<text text-anchor="middle" x="897.33" y="-152.39" font-family="Helvetica,sans-Serif" font-size="14.00">extract udp</text>
</g>
<!-- parse_ipv4&#45;&gt;parse_udp -->
<g id="edge18" class="edge">
<title>parse_ipv4&#45;&gt;parse_udp</title>
<path fill="none" stroke="black" d="M908.82,-271.36C904.87,-260.81 900.43,-247.18 898.33,-234.59 896.06,-221.01 895.61,-205.74 895.8,-192.94"/>
<polygon fill="black" stroke="black" points="899.3,-192.95 896.09,-182.86 892.31,-192.75 899.3,-192.95"/>
<text text-anchor="middle" x="979.83" y="-223.39" font-family="Times,serif" font-size="14.00">ipv4.protocol == 0x11</text>
</g>
<!-- reject_3 -->
<g id="node13" class="node">
<title>reject_3</title>
<polygon fill="none" stroke="black" points="1147.33,-201.59 964.33,-163.59 1147.33,-125.59 1330.33,-163.59 1147.33,-201.59"/>
<text text-anchor="middle" x="1147.33" y="-167.39" font-family="Helvetica,sans-Serif" font-size="14.00">reject:</text>
<text text-anchor="middle" x="1147.33" y="-152.39" font-family="Helvetica,sans-Serif" font-size="14.00">unsupported ip protocol</text>
</g>
<!-- parse_ipv4&#45;&gt;reject_3 -->
<g id="edge19" class="edge">
<title>parse_ipv4&#45;&gt;reject_3</title>
<path fill="none" stroke="black" stroke-dasharray="5,2" d="M963.67,-271.47C979.46,-265.45 997.15,-258.71 1013.33,-252.59 1034.64,-244.53 1041.57,-245.93 1061.33,-234.59 1077.24,-225.46 1093.22,-213.43 1107.02,-201.92"/>
<polygon fill="black" stroke="black" points="1109.53,-204.38 1114.87,-195.23 1104.99,-199.05 1109.53,-204.38"/>
<text text-anchor="middle" x="1108.83" y="-223.39" font-family="Times,serif" font-size="14.00">default</text>
</g>
<!-- parse_ipv6&#45;&gt;parse_tcp -->
<g id="edge20" class="edge">
<title>parse_ipv6&#45;&gt;parse_tcp</title>
<path fill="none" stroke="black" d="M1622.39,-271.57C1620.59,-255.73 1615.51,-233.15 1601.33,-219.59 1560.98,-181.01 1496.75,-168.77 1450.54,-165.24"/>
<polygon fill="black" stroke="black" points="1450.59,-161.73 1440.38,-164.58 1450.13,-168.72 1450.59,-161.73"/>
<text text-anchor="middle" x="1702.83" y="-223.39" font-family="Times,serif" font-size="14.00">ipv6.next_header == 0x6</text>
</g>
<!-- parse_ipv6&#45;&gt;parse_udp -->
<g id="edge21" class="edge">
<title>parse_ipv6&#45;&gt;parse_udp</title>
<path fill="none" stroke="black" d="M1592.51,-271.5C1578.58,-264.25 1561.62,-256.66 1545.33,-252.59 1460.93,-231.54 1235.82,-265 1154.33,-234.59 1144.25,-230.83 1145.3,-223.62 1135.33,-219.59 1060.78,-189.47 1031.29,-227.93 955.33,-201.59 946.21,-198.43 937.07,-193.58 928.84,-188.42"/>
<polygon fill="black" stroke="black" points="930.56,-185.37 920.29,-182.77 926.7,-191.21 930.56,-185.37"/>
<text text-anchor="middle" x="1250.33" y="-223.39" font-family="Times,serif" font-size="14.00">ipv6.next_header == 0x11</text>
</g>
<!-- parse_ipv6&#45;&gt;reject_3 -->
<g id="edge22" class="edge">
<title>parse_ipv6&#45;&gt;reject_3</title>
<path fill="none" stroke="black" stroke-dasharray="5,2" d="M1597.44,-271.57C1582.39,-260.97 1563.14,-247.22 1546.33,-234.59 1537.73,-228.13 1537.31,-223.6 1527.33,-219.59 1449.44,-188.31 1422.41,-213.55 1339.33,-201.59 1308.69,-197.18 1275.51,-191.22 1245.5,-185.37"/>
<polygon fill="black" stroke="black" points="1245.94,-181.89 1235.45,-183.39 1244.59,-188.76 1245.94,-181.89"/>
<text text-anchor="middle" x="1571.83" y="-223.39" font-family="Times,serif" font-size="14.00">default</text>
</g>
<!-- accept -->
<g id="node9" class="node">
<title>accept</title>
<ellipse fill="none" stroke="black" cx="897.33" cy="-44.3" rx="40.11" ry="40.11"/>
<ellipse fill="none" stroke="black" cx="897.33" cy="-44.3" rx="44.09" ry="44.09"/>
<text text-anchor="middle" x="897.33" y="-40.6" font-family="Helvetica,sans-Serif" font-size="14.00">accept</text>
</g>
<!-- parse_mpls&#45;&gt;accept -->
<g id="edge23" class="edge">
<title>parse_mpls&#45;&gt;accept</title>
<path fill="none" stroke="black" d="M336.38,-271.43C446.97,-226.85 731.21,-112.26 847.06,-65.56"/>
<polygon fill="black" stroke="black" points="848.45,-68.77 856.42,-61.79 845.84,-62.28 848.45,-68.77"/>
</g>
<!-- parse_tcp&#45;&gt;accept -->
<g id="edge24" class="edge">
<title>parse_tcp&#45;&gt;accept</title>
<path fill="none" stroke="black" d="M1371.98,-144.48C1362.43,-137.59 1350.84,-130.27 1339.33,-125.59 1206.71,-71.71 1037.06,-53.81 951.64,-48"/>
<polygon fill="black" stroke="black" points="951.86,-44.51 941.65,-47.35 951.4,-51.49 951.86,-44.51"/>
</g>
<!-- parse_udp&#45;&gt;accept -->
<g id="edge25" class="edge">
<title>parse_udp&#45;&gt;accept</title>
<path fill="none" stroke="black" d="M897.33,-144.52C897.33,-132.23 897.33,-115.27 897.33,-98.85"/>
<polygon fill="black" stroke="black" points="900.83,-98.74 897.33,-88.74 893.83,-98.74 900.83,-98.74"/>
</g>
</g>
</svg>
