<?xml version="1.0" encoding="UTF-8" standalone="no"?>
<!DOCTYPE svg PUBLIC "-//W3C//DTD SVG 1.1//EN"
 "http://www.w3.org/Graphics/SVG/1.1/DTD/svg11.dtd">
<!-- Generated by graphviz version 2.43.0 (0)
 -->
<!-- Title: linux_flow_dissector Pages: 1 -->
<svg width="1081pt" height="426pt"
 viewBox="0.00 0.00 1081.34 425.59" xmlns="http://www.w3.org/2000/svg" xmlns:xlink="http://www.w3.org/1999/xlink">
<g id="graph0" class="graph" transform="scale(1 1) rotate(0) translate(4 421.59)">
<title>linux_flow_dissector</title>
<polygon fill="white" stroke="transparent" points="-4,4 -4,-421.59 1077.34,-421.59 1077.34,4 -4,4"/>
<!-- parse_ethernet -->
<g id="node1" class="node">
<title>parse_ethernet</title>
<polygon fill="none" stroke="black" points="713.34,-417.59 585.34,-417.59 585.34,-379.59 713.34,-379.59 713.34,-417.59"/>
<text text-anchor="middle" x="649.34" y="-402.39" font-family="Helvetica,sans-Serif" font-size="14.00">parse_ethernet</text>
<text text-anchor="middle" x="649.34" y="-387.39" font-family="Helvetica,sans-Serif" font-size="14.00">extract ethernet</text>
</g>
<!-- parse_ipv4 -->
<g id="node2" class="node">
<title>parse_ipv4</title>
<polygon fill="none" stroke="black" points="699.34,-309.59 599.34,-309.59 599.34,-271.59 699.34,-271.59 699.34,-309.59"/>
<text text-anchor="middle" x="649.34" y="-294.39" font-family="Helvetica,sans-Serif" font-size="14.00">parse_ipv4</text>
<text text-anchor="middle" x="649.34" y="-279.39" font-family="Helvetica,sans-Serif" font-size="14.00">extract ipv4</text>
</g>
<!-- parse_ethernet&#45;&gt;parse_ipv4 -->
<g id="edge1" class="edge">
<title>parse_ethernet&#45;&gt;parse_ipv4</title>
<path fill="none" stroke="black" d="M649.34,-379.13C649.34,-362.79 649.34,-338.69 649.34,-319.92"/>
<polygon fill="black" stroke="black" points="652.84,-319.85 649.34,-309.85 645.84,-319.85 652.84,-319.85"/>
<text text-anchor="middle" x="756.34" y="-350.39" font-family="Times,serif" font-size="14.00">ethernet.ethertype == 0x800</text>
</g>
<!-- parse_ipv6 -->
<g id="node3" class="node">
<title>parse_ipv6</title>
<polygon fill="none" stroke="black" points="288.34,-309.59 188.34,-309.59 188.34,-271.59 288.34,-271.59 288.34,-309.59"/>
<text text-anchor="middle" x="238.34" y="-294.39" font-family="Helvetica,sans-Serif" font-size="14.00">parse_ipv6</text>
<text text-anchor="middle" x="238.34" y="-279.39" font-family="Helvetica,sans-Serif" font-size="14.00">extract ipv6</text>
</g>
<!-- parse_ethernet&#45;&gt;parse_ipv6 -->
<g id="edge2" class="edge">
<title>parse_ethernet&#45;&gt;parse_ipv6</title>
<path fill="none" stroke="black" d="M585,-390.98C539.15,-385.39 476.32,-375.98 422.34,-361.59 375.65,-349.15 324.42,-329.11 287.9,-313.65"/>
<polygon fill="black" stroke="black" points="289.04,-310.33 278.47,-309.62 286.29,-316.77 289.04,-310.33"/>
<text text-anchor="middle" x="533.84" y="-350.39" font-family="Times,serif" font-size="14.00">ethernet.ethertype == 0x86dd</text>
</g>
<!-- reject_0 -->
<g id="node7" class="node">
<title>reject_0</title>
<polygon fill="none" stroke="black" points="895.34,-328.59 717.34,-290.59 895.34,-252.59 1073.34,-290.59 895.34,-328.59"/>
<text text-anchor="middle" x="895.34" y="-294.39" font-family="Helvetica,sans-Serif" font-size="14.00">reject:</text>
<text text-anchor="middle" x="895.34" y="-279.39" font-family="Helvetica,sans-Serif" font-size="14.00">unsupported ethertype</text>
</g>
<!-- parse_ethernet&#45;&gt;reject_0 -->
<g id="edge3" class="edge">
<title>parse_ethernet&#45;&gt;reject_0</title>
<path fill="none" stroke="black" stroke-dasharray="5,2" d="M713.54,-393.9C769.14,-389.49 844.17,-380.22 867.34,-361.59 875.3,-355.2 881,-346.2 885.09,-336.78"/>
<polygon fill="black" stroke="black" points="888.42,-337.89 888.67,-327.3 881.87,-335.42 888.42,-337.89"/>
<text text-anchor="middle" x="903.84" y="-350.39" font-family="Times,serif" font-size="14.00">default</text>
</g>
<!-- parse_tcp -->
<g id="node4" class="node">
<title>parse_tcp</title>
<polygon fill="none" stroke="black" points="175.34,-182.59 83.34,-182.59 83.34,-144.59 175.34,-144.59 175.34,-182.59"/>
<text text-anchor="middle" x="129.34" y="-167.39" font-family="Helvetica,sans-Serif" font-size="14.00">parse_tcp</text>
<text text-anchor="middle" x="129.34" y="-152.39" font-family="Helvetica,sans-Serif" font-size="14.00">extract tcp</text>
</g>
<!-- parse_ipv4&#45;&gt;parse_tcp -->
<g id="edge4" class="edge">
<title>parse_ipv4&#45;&gt;parse_tcp</title>
<path fill="none" stroke="black" d="M599.04,-290.1C526.2,-289.09 388.47,-280.53 282.34,-234.59 272.47,-230.32 273.04,-224.24 263.34,-219.59 230.85,-204.05 217.39,-215.88 184.34,-201.59 176.22,-198.08 168.01,-193.34 160.5,-188.42"/>
<polygon fill="black" stroke="black" points="162.29,-185.4 152.06,-182.64 158.33,-191.18 162.29,-185.4"/>
<text text-anchor="middle" x="359.34" y="-223.39" font-family="Times,serif" font-size="14.00">ipv4.protocol == 0x6</text>
</g>
<!-- parse_udp -->
<g id="node5" class="node">
<title>parse_udp</title>
<polygon fill="none" stroke="black" points="674.84,-182.59 577.84,-182.59 577.84,-144.59 674.84,-144.59 674.84,-182.59"/>
<text text-anchor="middle" x="626.34" y="-167.39" font-family="Helvetica,sans-Serif" font-size="14.00">parse_udp</text>
<text text-anchor="middle" x="626.34" y="-152.39" font-family="Helvetica,sans-Serif" font-size="14.00">extract udp</text>
</g>
<!-- parse_ipv4&#45;&gt;parse_udp -->
<g id="edge5" class="edge">
<title>parse_ipv4&#45;&gt;parse_udp</title>
<path fill="none" stroke="black" d="M678.49,-271.43C700.15,-257.63 726.44,-240.11 729.34,-234.59 732.44,-228.69 732.77,-225.31 729.34,-219.59 719.17,-202.64 701.81,-190.62 684.21,-182.24"/>
<polygon fill="black" stroke="black" points="685.58,-179.02 675.02,-178.18 682.75,-185.42 685.58,-179.02"/>
<text text-anchor="middle" x="812.84" y="-223.39" font-family="Times,serif" font-size="14.00">ipv4.protocol == 0x11</text>
</g>
<!-- reject_1 -->
<g id="node8" class="node">
<title>reject_1</title>
<polygon fill="none" stroke="black" points="376.34,-201.59 193.34,-163.59 376.34,-125.59 559.34,-163.59 376.34,-201.59"/>
<text text-anchor="middle" x="376.34" y="-167.39" font-family="Helvetica,sans-Serif" font-size="14.00">reject:</text>
<text text-anchor="middle" x="376.34" y="-152.39" font-family="Helvetica,sans-Serif" font-size="14.00">unsupported ip protocol</text>
</g>
<!-- parse_ipv4&#45;&gt;reject_1 -->
<g id="edge6" class="edge">
<title>parse_ipv4&#45;&gt;reject_1</title>
<path fill="none" stroke="black" stroke-dasharray="5,2" d="M657.33,-271.41C662.79,-255.91 667.11,-233.91 655.34,-219.59 654.6,-218.7 558.23,-199.83 478.96,-184.44"/>
<polygon fill="black" stroke="black" points="479.38,-180.96 468.9,-182.49 478.05,-187.83 479.38,-180.96"/>
<text text-anchor="middle" x="686.84" y="-223.39" font-family="Times,serif" font-size="14.00">default</text>
</g>
<!-- parse_ipv6&#45;&gt;parse_tcp -->
<g id="edge7" class="edge">
<title>parse_ipv6&#45;&gt;parse_tcp</title>
<path fill="none" stroke="black" d="M188.26,-284.88C126.97,-277.97 28.58,-262.72 6.34,-234.59 -16.78,-205.36 30.68,-186.19 73.2,-175.43"/>
<polygon fill="black" stroke="black" points="74.11,-178.81 83.01,-173.06 72.47,-172 74.11,-178.81"/>
<text text-anchor="middle" x="97.84" y="-223.39" font-family="Times,serif" font-size="14.00">ipv6.next_header == 0x6</text>
</g>
<!-- parse_ipv6&#45;&gt;parse_udp -->
<g id="edge8" class="edge">
<title>parse_ipv6&#45;&gt;parse_udp</title>
<path fill="none" stroke="black" d="M288.52,-281.74C330.67,-273.8 391.66,-259.14 440.34,-234.59 449.95,-229.75 449.5,-223.94 459.34,-219.59 504.25,-199.75 522.49,-219.15 568.34,-201.59 577.19,-198.2 586.12,-193.36 594.23,-188.3"/>
<polygon fill="black" stroke="black" points="596.23,-191.17 602.68,-182.77 592.39,-185.32 596.23,-191.17"/>
<text text-anchor="middle" x="555.34" y="-223.39" font-family="Times,serif" font-size="14.00">ipv6.next_header == 0x11</text>
</g>
<!-- parse_ipv6&#45;&gt;reject_1 -->
<g id="edge9" class="edge">
<title>parse_ipv6&#45;&gt;reject_1</title>
<path fill="none" stroke="black" stroke-dasharray="5,2" d="M222.6,-271.35C211.72,-256.41 201.06,-235.27 212.34,-219.59 224.24,-203.04 241.37,-191.4 260.11,-183.23"/>
<polygon fill="black" stroke="black" points="261.45,-186.47 269.42,-179.49 258.84,-179.97 261.45,-186.47"/>
<text text-anchor="middle" x="237.84" y="-223.39" font-family="Times,serif" font-size="14.00">default</text>
</g>
<!-- accept -->
<g id="node6" class="node">
<title>accept</title>
<ellipse fill="none" stroke="black" cx="377.34" cy="-44.3" rx="40.11" ry="40.11"/>
<ellipse fill="none" stroke="black" cx="377.34" cy="-44.3" rx="44.09" ry="44.09"/>
<text text-anchor="middle" x="377.34" y="-40.6" font-family="Helvetica,sans-Serif" font-size="14.00">accept</text>
</g>
<!-- parse_tcp&#45;&gt;accept -->
<g id="edge10" class="edge">
<title>parse_tcp&#45;&gt;accept</title>
<path fill="none" stroke="black" d="M153.88,-144.57C163.17,-138.15 174,-131.15 184.34,-125.59 230.7,-100.67 286.48,-78.21 326.13,-63.43"/>
<polygon fill="black" stroke="black" points="327.42,-66.68 335.59,-59.93 325,-60.12 327.42,-66.68"/>
</g>
<!-- parse_udp&#45;&gt;accept -->
<g id="edge11" class="edge">
<title>parse_udp&#45;&gt;accept</title>
<path fill="none" stroke="black" d="M600.05,-144.49C590.3,-138.14 579.02,-131.19 568.34,-125.59 522.38,-101.49 467.56,-79.06 428.46,-64.06"/>
<polygon fill="black" stroke="black" points="429.47,-60.7 418.88,-60.41 426.98,-67.24 429.47,-60.7"/>
</g>
</g>
</svg>
