<?xml version="1.0" encoding="UTF-8" standalone="no"?>
<!DOCTYPE svg PUBLIC "-//W3C//DTD SVG 1.1//EN"
 "http://www.w3.org/Graphics/SVG/1.1/DTD/svg11.dtd">
<!-- Generated by graphviz version 2.43.0 (0)
 -->
<!-- Title: linux_flow_dissector Pages: 1 -->
<svg width="3772pt" height="1048pt"
 viewBox="0.00 0.00 3772.33 1047.59" xmlns="http://www.w3.org/2000/svg" xmlns:xlink="http://www.w3.org/1999/xlink">
<g id="graph0" class="graph" transform="scale(1 1) rotate(0) translate(4 1043.59)">
<title>linux_flow_dissector</title>
<polygon fill="white" stroke="transparent" points="-4,4 -4,-1043.59 3768.33,-1043.59 3768.33,4 -4,4"/>
<!-- parse_ethernet -->
<g id="node1" class="node">
<title>parse_ethernet</title>
<polygon fill="none" stroke="black" points="1772.33,-1039.59 1644.33,-1039.59 1644.33,-1001.59 1772.33,-1001.59 1772.33,-1039.59"/>
<text text-anchor="middle" x="1708.33" y="-1024.39" font-family="Helvetica,sans-Serif" font-size="14.00">parse_ethernet</text>
<text text-anchor="middle" x="1708.33" y="-1009.39" font-family="Helvetica,sans-Serif" font-size="14.00">extract ethernet</text>
</g>
<!-- parse_vlan_ad -->
<g id="node2" class="node">
<title>parse_vlan_ad</title>
<g id="a_node2"><a xlink:href="#" xlink:title="Upstream PROG(VLAN), 802.1AD arm: the outer S&#45;tag must be&#10;followed by exactly one 802.1Q C&#45;tag.">
<polygon fill="none" stroke="black" points="1344.83,-950.59 1221.83,-950.59 1221.83,-912.59 1344.83,-912.59 1344.83,-950.59"/>
<text text-anchor="middle" x="1283.33" y="-935.39" font-family="Helvetica,sans-Serif" font-size="14.00">parse_vlan_ad</text>
<text text-anchor="middle" x="1283.33" y="-920.39" font-family="Helvetica,sans-Serif" font-size="14.00">extract vlan_ad</text>
</a>
</g>
</g>
<!-- parse_ethernet&#45;&gt;parse_vlan_ad -->
<g id="edge4" class="edge">
<title>parse_ethernet&#45;&gt;parse_vlan_ad</title>
<path fill="none" stroke="black" d="M1644.17,-1017.54C1555.24,-1013.96 1399.55,-1004.82 1347.33,-983.59 1332.82,-977.69 1318.94,-967.42 1307.83,-957.63"/>
<polygon fill="black" stroke="black" points="1310,-954.86 1300.27,-950.66 1305.25,-960.01 1310,-954.86"/>
<text text-anchor="middle" x="1458.33" y="-972.39" font-family="Times,serif" font-size="14.00">ethernet.ethertype == 0x88a8</text>
</g>
<!-- parse_vlan_q -->
<g id="node3" class="node">
<title>parse_vlan_q</title>
<g id="a_node3"><a xlink:href="#" xlink:title="Upstream PROG(VLAN), common tail: the final (or only) tag;&#10;a further Q/AD tag is a kernel drop (no triple tagging, no&#10;double&#45;Q).">
<polygon fill="none" stroke="black" points="1440.83,-842.59 1325.83,-842.59 1325.83,-804.59 1440.83,-804.59 1440.83,-842.59"/>
<text text-anchor="middle" x="1383.33" y="-827.39" font-family="Helvetica,sans-Serif" font-size="14.00">parse_vlan_q</text>
<text text-anchor="middle" x="1383.33" y="-812.39" font-family="Helvetica,sans-Serif" font-size="14.00">extract vlan_q</text>
</a>
</g>
</g>
<!-- parse_ethernet&#45;&gt;parse_vlan_q -->
<g id="edge3" class="edge">
<title>parse_ethernet&#45;&gt;parse_vlan_q</title>
<path fill="none" stroke="black" d="M1666.24,-1001.55C1643.25,-989.88 1615.79,-972.72 1597.33,-950.59 1575.6,-924.54 1594.35,-902.5 1569.33,-879.59 1537.18,-850.16 1489.99,-836.43 1451.19,-830.05"/>
<polygon fill="black" stroke="black" points="1451.42,-826.54 1441.01,-828.51 1450.37,-833.46 1451.42,-826.54"/>
<text text-anchor="middle" x="1708.83" y="-927.89" font-family="Times,serif" font-size="14.00">ethernet.ethertype == 0x8100</text>
</g>
<!-- parse_ipv4 -->
<g id="node4" class="node">
<title>parse_ipv4</title>
<polygon fill="none" stroke="black" points="2295.33,-715.59 2195.33,-715.59 2195.33,-677.59 2295.33,-677.59 2295.33,-715.59"/>
<text text-anchor="middle" x="2245.33" y="-700.39" font-family="Helvetica,sans-Serif" font-size="14.00">parse_ipv4</text>
<text text-anchor="middle" x="2245.33" y="-685.39" font-family="Helvetica,sans-Serif" font-size="14.00">extract ipv4</text>
</g>
<!-- parse_ethernet&#45;&gt;parse_ipv4 -->
<g id="edge1" class="edge">
<title>parse_ethernet&#45;&gt;parse_ipv4</title>
<path fill="none" stroke="black" d="M1772.65,-1011.42C1802.43,-1006.05 1837.69,-997.37 1867.33,-983.59 2016.59,-914.2 2163.36,-778.65 2220.42,-722.68"/>
<polygon fill="black" stroke="black" points="2222.9,-725.16 2227.55,-715.64 2217.98,-720.18 2222.9,-725.16"/>
<text text-anchor="middle" x="2143.33" y="-883.39" font-family="Times,serif" font-size="14.00">ethernet.ethertype == 0x800</text>
</g>
<!-- parse_ipv6 -->
<g id="node5" class="node">
<title>parse_ipv6</title>
<polygon fill="none" stroke="black" points="2169.33,-520.59 2069.33,-520.59 2069.33,-482.59 2169.33,-482.59 2169.33,-520.59"/>
<text text-anchor="middle" x="2119.33" y="-505.39" font-family="Helvetica,sans-Serif" font-size="14.00">parse_ipv6</text>
<text text-anchor="middle" x="2119.33" y="-490.39" font-family="Helvetica,sans-Serif" font-size="14.00">extract ipv6</text>
</g>
<!-- parse_ethernet&#45;&gt;parse_ipv6 -->
<g id="edge2" class="edge">
<title>parse_ethernet&#45;&gt;parse_ipv6</title>
<path fill="none" stroke="black" d="M1752,-1001.53C1775.15,-989.99 1802.42,-972.97 1820.33,-950.59 1874.09,-883.44 1869.13,-852.43 1883.33,-767.59 1889.14,-732.88 1912.53,-696.45 1880.33,-658.59 1852.19,-625.5 1763.53,-661.26 1788.33,-625.59 1849.53,-537.56 1981.6,-512.4 2059.14,-505.3"/>
<polygon fill="black" stroke="black" points="2059.58,-508.77 2069.25,-504.45 2058.99,-501.8 2059.58,-508.77"/>
<text text-anchor="middle" x="1997.83" y="-756.39" font-family="Times,serif" font-size="14.00">ethernet.ethertype == 0x86dd</text>
</g>
<!-- parse_mpls -->
<g id="node12" class="node">
<title>parse_mpls</title>
<g id="a_node12"><a xlink:href="#" xlink:title="Upstream PROG(MPLS): read one label entry, stop, BPF_OK.">
<polygon fill="none" stroke="black" points="343.33,-715.59 239.33,-715.59 239.33,-677.59 343.33,-677.59 343.33,-715.59"/>
<text text-anchor="middle" x="291.33" y="-700.39" font-family="Helvetica,sans-Serif" font-size="14.00">parse_mpls</text>
<text text-anchor="middle" x="291.33" y="-685.39" font-family="Helvetica,sans-Serif" font-size="14.00">extract mpls</text>
</a>
</g>
</g>
<!-- parse_ethernet&#45;&gt;parse_mpls -->
<g id="edge5" class="edge">
<title>parse_ethernet&#45;&gt;parse_mpls</title>
<path fill="none" stroke="black" d="M1644.15,-1019.31C1379.79,-1017.96 382.57,-1011.07 244.33,-983.59 136.42,-962.15 75.59,-985.3 13.33,-894.59 -49.6,-802.91 129.8,-739.65 229.57,-712.5"/>
<polygon fill="black" stroke="black" points="230.5,-715.88 239.26,-709.91 228.69,-709.12 230.5,-715.88"/>
<text text-anchor="middle" x="124.83" y="-883.39" font-family="Times,serif" font-size="14.00">ethernet.ethertype == 0x8847</text>
</g>
<!-- parse_ethernet&#45;&gt;parse_mpls -->
<g id="edge6" class="edge">
<title>parse_ethernet&#45;&gt;parse_mpls</title>
<path fill="none" stroke="black" d="M1644.06,-1015.91C1566.36,-1010.94 1431.78,-1000.69 1317.33,-983.59 850.42,-913.84 575.28,-1133.78 277.33,-767.59 267.67,-755.72 270.59,-739.01 276.2,-724.9"/>
<polygon fill="black" stroke="black" points="279.46,-726.18 280.39,-715.63 273.08,-723.3 279.46,-726.18"/>
<text text-anchor="middle" x="518.83" y="-883.39" font-family="Times,serif" font-size="14.00">ethernet.ethertype == 0x8848</text>
</g>
<!-- reject_0 -->
<g id="node16" class="node">
<title>reject_0</title>
<polygon fill="none" stroke="black" points="1693.33,-734.59 1515.33,-696.59 1693.33,-658.59 1871.33,-696.59 1693.33,-734.59"/>
<text text-anchor="middle" x="1693.33" y="-700.39" font-family="Helvetica,sans-Serif" font-size="14.00">reject:</text>
<text text-anchor="middle" x="1693.33" y="-685.39" font-family="Helvetica,sans-Serif" font-size="14.00">unsupported ethertype</text>
</g>
<!-- parse_ethernet&#45;&gt;reject_0 -->
<g id="edge7" class="edge">
<title>parse_ethernet&#45;&gt;reject_0</title>
<path fill="none" stroke="black" stroke-dasharray="5,2" d="M1772.63,-1010.59C1804.55,-1004.7 1838.39,-995.81 1848.33,-983.59 1913.16,-903.86 1918.42,-835.96 1858.33,-752.59 1846.19,-735.75 1828.67,-723.99 1809.54,-715.79"/>
<polygon fill="black" stroke="black" points="1810.62,-712.46 1800.03,-712.05 1808.05,-718.97 1810.62,-712.46"/>
<text text-anchor="middle" x="1923.83" y="-883.39" font-family="Times,serif" font-size="14.00">default</text>
</g>
<!-- parse_vlan_ad&#45;&gt;parse_vlan_q -->
<g id="edge8" class="edge">
<title>parse_vlan_ad&#45;&gt;parse_vlan_q</title>
<path fill="none" stroke="black" d="M1279.45,-912.38C1278.23,-902.06 1278.48,-889.31 1284.33,-879.59 1284.55,-879.22 1314.59,-862.56 1341.51,-847.68"/>
<polygon fill="black" stroke="black" points="1343.42,-850.62 1350.47,-842.72 1340.03,-844.5 1343.42,-850.62"/>
<text text-anchor="middle" x="1426.83" y="-883.39" font-family="Times,serif" font-size="14.00">vlan_ad.encapsulated_proto == 0x8100</text>
</g>
<!-- reject_1 -->
<g id="node17" class="node">
<title>reject_1</title>
<polygon fill="none" stroke="black" points="1028.33,-861.59 749.33,-823.59 1028.33,-785.59 1307.33,-823.59 1028.33,-861.59"/>
<text text-anchor="middle" x="1028.33" y="-827.39" font-family="Helvetica,sans-Serif" font-size="14.00">reject:</text>
<text text-anchor="middle" x="1028.33" y="-812.39" font-family="Helvetica,sans-Serif" font-size="14.00">802.1AD must be followed by 802.1Q</text>
</g>
<!-- parse_vlan_ad&#45;&gt;reject_1 -->
<g id="edge9" class="edge">
<title>parse_vlan_ad&#45;&gt;reject_1</title>
<path fill="none" stroke="black" stroke-dasharray="5,2" d="M1239.78,-912.49C1202.86,-897.14 1149.04,-874.77 1104.93,-856.44"/>
<polygon fill="black" stroke="black" points="1106.26,-853.2 1095.68,-852.59 1103.57,-859.66 1106.26,-853.2"/>
<text text-anchor="middle" x="1218.83" y="-883.39" font-family="Times,serif" font-size="14.00">default</text>
</g>
<!-- parse_vlan_q&#45;&gt;parse_ipv4 -->
<g id="edge10" class="edge">
<title>parse_vlan_q&#45;&gt;parse_ipv4</title>
<path fill="none" stroke="black" d="M1440.98,-805.56C1477.28,-794.79 1525.08,-780.51 1567.33,-767.59 1588.7,-761.06 1593.36,-756.71 1615.33,-752.59 1731.36,-730.84 1762.7,-744.55 1880.33,-734.59 1987.7,-725.51 2112.57,-712.27 2184.91,-704.34"/>
<polygon fill="black" stroke="black" points="2185.64,-707.78 2195.19,-703.21 2184.87,-700.82 2185.64,-707.78"/>
<text text-anchor="middle" x="1749.33" y="-756.39" font-family="Times,serif" font-size="14.00">vlan_q.encapsulated_proto == 0x800</text>
</g>
<!-- parse_vlan_q&#45;&gt;parse_ipv6 -->
<g id="edge11" class="edge">
<title>parse_vlan_q&#45;&gt;parse_ipv6</title>
<path fill="none" stroke="black" d="M1426.63,-804.42C1442.33,-795.63 1458.58,-783.47 1468.33,-767.59 1501.55,-713.52 1443.48,-674.99 1483.33,-625.59 1555.13,-536.59 1914.23,-511.37 2058.84,-504.77"/>
<polygon fill="black" stroke="black" points="2059.04,-508.26 2068.88,-504.32 2058.73,-501.27 2059.04,-508.26"/>
<text text-anchor="middle" x="1621.83" y="-629.39" font-family="Times,serif" font-size="14.00">vlan_q.encapsulated_proto == 0x86dd</text>
</g>
<!-- parse_vlan_q&#45;&gt;parse_mpls -->
<g id="edge12" class="edge">
<title>parse_vlan_q&#45;&gt;parse_mpls</title>
<path fill="none" stroke="black" d="M1357.53,-804.53C1345.57,-797.19 1330.82,-789.52 1316.33,-785.59 1162.72,-743.93 755.01,-805.1 600.33,-767.59 585.45,-763.99 583.84,-757.45 569.33,-752.59 497.04,-728.4 410.41,-713.34 353.29,-705.23"/>
<polygon fill="black" stroke="black" points="353.72,-701.75 343.33,-703.84 352.75,-708.69 353.72,-701.75"/>
<text text-anchor="middle" x="738.83" y="-756.39" font-family="Times,serif" font-size="14.00">vlan_q.encapsulated_proto == 0x8847</text>
</g>
<!-- parse_vlan_q&#45;&gt;parse_mpls -->
<g id="edge13" class="edge">
<title>parse_vlan_q&#45;&gt;parse_mpls</title>
<path fill="none" stroke="black" d="M1357.55,-804.48C1345.59,-797.13 1330.84,-789.47 1316.33,-785.59 1288.74,-778.22 308.35,-787.96 288.33,-767.59 277.76,-756.84 278.13,-740.1 281.32,-725.68"/>
<polygon fill="black" stroke="black" points="284.78,-726.28 284.03,-715.71 278.03,-724.45 284.78,-726.28"/>
<text text-anchor="middle" x="426.83" y="-756.39" font-family="Times,serif" font-size="14.00">vlan_q.encapsulated_proto == 0x8848</text>
</g>
<!-- parse_vlan_q&#45;&gt;reject_0 -->
<g id="edge16" class="edge">
<title>parse_vlan_q&#45;&gt;reject_0</title>
<path fill="none" stroke="black" stroke-dasharray="5,2" d="M1422.08,-804.56C1443.41,-794.3 1470.18,-780.87 1493.33,-767.59 1503.92,-761.52 1505.29,-757.79 1516.33,-752.59 1543.55,-739.79 1574.49,-729.01 1602.81,-720.47"/>
<polygon fill="black" stroke="black" points="1604.1,-723.74 1612.7,-717.55 1602.12,-717.02 1604.1,-723.74"/>
<text text-anchor="middle" x="1541.83" y="-756.39" font-family="Times,serif" font-size="14.00">default</text>
</g>
<!-- reject_2 -->
<g id="node18" class="node">
<title>reject_2</title>
<polygon fill="none" stroke="black" points="1040.33,-734.59 783.33,-696.59 1040.33,-658.59 1297.33,-696.59 1040.33,-734.59"/>
<text text-anchor="middle" x="1040.33" y="-700.39" font-family="Helvetica,sans-Serif" font-size="14.00">reject:</text>
<text text-anchor="middle" x="1040.33" y="-685.39" font-family="Helvetica,sans-Serif" font-size="14.00">vlan stacking beyond kernel depth</text>
</g>
<!-- parse_vlan_q&#45;&gt;reject_2 -->
<g id="edge14" class="edge">
<title>parse_vlan_q&#45;&gt;reject_2</title>
<path fill="none" stroke="black" d="M1356.01,-804.56C1344.24,-797.59 1330.06,-790.2 1316.33,-785.59 1263.12,-767.73 1243.85,-787.39 1191.33,-767.59 1179.91,-763.29 1179.09,-758.36 1168.33,-752.59 1152.5,-744.11 1135.08,-735.92 1118.34,-728.57"/>
<polygon fill="black" stroke="black" points="1119.68,-725.34 1109.11,-724.58 1116.9,-731.76 1119.68,-725.34"/>
<text text-anchor="middle" x="1329.83" y="-756.39" font-family="Times,serif" font-size="14.00">vlan_q.encapsulated_proto == 0x8100</text>
</g>
<!-- parse_vlan_q&#45;&gt;reject_2 -->
<g id="edge15" class="edge">
<title>parse_vlan_q&#45;&gt;reject_2</title>
<path fill="none" stroke="black" d="M1357.18,-804.46C1345.27,-797.19 1330.66,-789.61 1316.33,-785.59 1270.5,-772.75 921.27,-801.95 888.33,-767.59 868.47,-746.88 886.56,-731.73 916.28,-720.93"/>
<polygon fill="black" stroke="black" points="917.49,-724.22 925.85,-717.72 915.26,-717.58 917.49,-724.22"/>
<text text-anchor="middle" x="1026.33" y="-756.39" font-family="Times,serif" font-size="14.00">vlan_q.encapsulated_proto == 0x88a8</text>
</g>
<!-- parse_ipip -->
<g id="node7" class="node">
<title>parse_ipip</title>
<g id="a_node7"><a xlink:href="#" xlink:title="Kernel parse_ip_proto encap arms (IPPROTO_IPIP / IPPROTO_IPV6,&#10;default flags: STOP_AT_ENCAP off): mark is_encap and re&#45;enter&#10;the state machine as the inner family — pure back edges, no&#10;header read; the max_depth budget bounds the nesting.">
<polygon fill="none" stroke="black" points="1714.33,-322.59 1626.33,-322.59 1626.33,-286.59 1714.33,-286.59 1714.33,-322.59"/>
<text text-anchor="middle" x="1670.33" y="-300.89" font-family="Helvetica,sans-Serif" font-size="14.00">parse_ipip</text>
</a>
</g>
</g>
<!-- parse_ipv4&#45;&gt;parse_ipip -->
<g id="edge17" class="edge">
<title>parse_ipv4&#45;&gt;parse_ipip</title>
<path fill="none" stroke="black" d="M2195.01,-690.4C2090.63,-679.43 1857.37,-653.83 1823.33,-640.59 1736.79,-606.95 1715.55,-588.59 1652.33,-520.59 1607.54,-472.42 1616.78,-445.46 1576.33,-393.59 1569.37,-384.67 1562.66,-386.05 1558.33,-375.59 1545.82,-345.39 1581.99,-327.11 1616.5,-316.85"/>
<polygon fill="black" stroke="black" points="1617.45,-320.22 1626.14,-314.16 1615.57,-313.47 1617.45,-320.22"/>
<text text-anchor="middle" x="1729.33" y="-497.89" font-family="Times,serif" font-size="14.00">ipv4.protocol == 0x4</text>
</g>
<!-- parse_ip6ip -->
<g id="node8" class="node">
<title>parse_ip6ip</title>
<polygon fill="none" stroke="black" points="2299.83,-607.59 2202.83,-607.59 2202.83,-571.59 2299.83,-571.59 2299.83,-607.59"/>
<text text-anchor="middle" x="2251.33" y="-585.89" font-family="Helvetica,sans-Serif" font-size="14.00">parse_ip6ip</text>
</g>
<!-- parse_ipv4&#45;&gt;parse_ip6ip -->
<g id="edge20" class="edge">
<title>parse_ipv4&#45;&gt;parse_ip6ip</title>
<path fill="none" stroke="black" d="M2246.37,-677.3C2247.32,-660.82 2248.71,-636.37 2249.78,-617.63"/>
<polygon fill="black" stroke="black" points="2253.28,-617.81 2250.36,-607.63 2246.29,-617.41 2253.28,-617.81"/>
<text text-anchor="middle" x="2329.83" y="-629.39" font-family="Times,serif" font-size="14.00">ipv4.protocol == 0x29</text>
</g>
<!-- parse_gre -->
<g id="node9" class="node">
<title>parse_gre</title>
<g id="a_node9"><a xlink:href="#" xlink:title="Kernel IPPROTO_GRE arm, step order is the crux: version != 0&#10;is an immediate BPF_OK — no thoff advance, no is_encap, the&#10;optional region never read. Only version 0 walks the C/K/S&#10;optionals (parse_gre_opt), sets is_encap, and dispatches.">
<polygon fill="none" stroke="black" points="2421.33,-323.59 2329.33,-323.59 2329.33,-285.59 2421.33,-285.59 2421.33,-323.59"/>
<text text-anchor="middle" x="2375.33" y="-308.39" font-family="Helvetica,sans-Serif" font-size="14.00">parse_gre</text>
<text text-anchor="middle" x="2375.33" y="-293.39" font-family="Helvetica,sans-Serif" font-size="14.00">extract gre</text>
</a>
</g>
</g>
<!-- parse_ipv4&#45;&gt;parse_gre -->
<g id="edge21" class="edge">
<title>parse_ipv4&#45;&gt;parse_gre</title>
<path fill="none" stroke="black" d="M2295.39,-680.72C2415.24,-645.25 2728.27,-553.34 2991.33,-482.59 3080.75,-458.55 3136.43,-504.64 3193.33,-431.59 3203.71,-418.27 3204.95,-405.84 3193.33,-393.59 3167.14,-365.99 2887.98,-385.82 2851.33,-375.59 2837.73,-371.8 2836.82,-364.76 2823.33,-360.59 2752.43,-338.67 2731.01,-351.42 2657.33,-342.59 2579.1,-333.22 2488.83,-321.16 2431.92,-313.4"/>
<polygon fill="black" stroke="black" points="2432.08,-309.89 2421.7,-312 2431.13,-316.82 2432.08,-309.89"/>
<text text-anchor="middle" x="3070.83" y="-497.89" font-family="Times,serif" font-size="14.00">ipv4.protocol == 0x2f</text>
</g>
<!-- parse_tcp -->
<g id="node13" class="node">
<title>parse_tcp</title>
<polygon fill="none" stroke="black" points="1454.33,-323.59 1362.33,-323.59 1362.33,-285.59 1454.33,-285.59 1454.33,-323.59"/>
<text text-anchor="middle" x="1408.33" y="-308.39" font-family="Helvetica,sans-Serif" font-size="14.00">parse_tcp</text>
<text text-anchor="middle" x="1408.33" y="-293.39" font-family="Helvetica,sans-Serif" font-size="14.00">extract tcp</text>
</g>
<!-- parse_ipv4&#45;&gt;parse_tcp -->
<g id="edge18" class="edge">
<title>parse_ipv4&#45;&gt;parse_tcp</title>
<path fill="none" stroke="black" d="M2195.22,-689.6C2124.95,-681.4 1993.09,-666.77 1880.33,-658.59 1789.15,-651.98 1558.96,-658.58 1469.33,-640.59 1406.19,-627.92 1333.33,-654.99 1333.33,-590.59 1333.33,-590.59 1333.33,-590.59 1333.33,-411.59 1333.33,-379.47 1356.57,-350.26 1377.17,-330.68"/>
<polygon fill="black" stroke="black" points="1379.57,-333.24 1384.6,-323.92 1374.85,-328.06 1379.57,-333.24"/>
<text text-anchor="middle" x="1410.33" y="-497.89" font-family="Times,serif" font-size="14.00">ipv4.protocol == 0x6</text>
</g>
<!-- parse_udp -->
<g id="node14" class="node">
<title>parse_udp</title>
<polygon fill="none" stroke="black" points="2762.83,-323.59 2665.83,-323.59 2665.83,-285.59 2762.83,-285.59 2762.83,-323.59"/>
<text text-anchor="middle" x="2714.33" y="-308.39" font-family="Helvetica,sans-Serif" font-size="14.00">parse_udp</text>
<text text-anchor="middle" x="2714.33" y="-293.39" font-family="Helvetica,sans-Serif" font-size="14.00">extract udp</text>
</g>
<!-- parse_ipv4&#45;&gt;parse_udp -->
<g id="edge19" class="edge">
<title>parse_ipv4&#45;&gt;parse_udp</title>
<path fill="none" stroke="black" d="M2295.58,-690.91C2464.03,-674.45 3006.23,-615.1 3150.33,-520.59 3170.38,-507.44 3204.23,-454.5 3211.33,-431.59 3216.33,-415.46 3222.33,-406.41 3211.33,-393.59 3162.56,-336.79 2951.89,-356.51 2878.33,-342.59 2843.13,-335.94 2804,-327.16 2772.78,-319.82"/>
<polygon fill="black" stroke="black" points="2773.48,-316.39 2762.94,-317.5 2771.87,-323.2 2773.48,-316.39"/>
<text text-anchor="middle" x="3264.83" y="-497.89" font-family="Times,serif" font-size="14.00">ipv4.protocol == 0x11</text>
</g>
<!-- reject_3 -->
<g id="node19" class="node">
<title>reject_3</title>
<polygon fill="none" stroke="black" points="3070.33,-342.59 2887.33,-304.59 3070.33,-266.59 3253.33,-304.59 3070.33,-342.59"/>
<text text-anchor="middle" x="3070.33" y="-308.39" font-family="Helvetica,sans-Serif" font-size="14.00">reject:</text>
<text text-anchor="middle" x="3070.33" y="-293.39" font-family="Helvetica,sans-Serif" font-size="14.00">unsupported ip protocol</text>
</g>
<!-- parse_ipv4&#45;&gt;reject_3 -->
<g id="edge22" class="edge">
<title>parse_ipv4&#45;&gt;reject_3</title>
<path fill="none" stroke="black" stroke-dasharray="5,2" d="M2295.44,-696.08C2493.31,-696.83 3215.99,-687.91 3349.33,-520.59 3359.85,-507.39 3356.95,-497.66 3349.33,-482.59 3310.15,-405.14 3219.82,-357.41 3152.49,-331.33"/>
<polygon fill="black" stroke="black" points="3153.32,-327.9 3142.73,-327.64 3150.85,-334.45 3153.32,-327.9"/>
<text text-anchor="middle" x="3380.83" y="-497.89" font-family="Times,serif" font-size="14.00">default</text>
</g>
<!-- parse_ipv6_opt -->
<g id="node6" class="node">
<title>parse_ipv6_opt</title>
<g id="a_node6"><a xlink:href="#" xlink:title="Kernel PROG(IPV6OP): walk the option, dispatch on its own&#10;next_header — HopByHop/DestOpts loop back (self&#45;edge).">
<polygon fill="none" stroke="black" points="2447.33,-431.59 2325.33,-431.59 2325.33,-393.59 2447.33,-393.59 2447.33,-431.59"/>
<text text-anchor="middle" x="2386.33" y="-416.39" font-family="Helvetica,sans-Serif" font-size="14.00">parse_ipv6_opt</text>
<text text-anchor="middle" x="2386.33" y="-401.39" font-family="Helvetica,sans-Serif" font-size="14.00">extract ext_opt</text>
</a>
</g>
</g>
<!-- parse_ipv6&#45;&gt;parse_ipv6_opt -->
<g id="edge23" class="edge">
<title>parse_ipv6&#45;&gt;parse_ipv6_opt</title>
<path fill="none" stroke="black" d="M2169.56,-497.99C2229.89,-494.01 2326.69,-484.65 2356.33,-464.59 2364.85,-458.82 2371.3,-449.76 2375.99,-440.86"/>
<polygon fill="black" stroke="black" points="2379.17,-442.33 2380.26,-431.79 2372.83,-439.35 2379.17,-442.33"/>
<text text-anchor="middle" x="2461.83" y="-453.39" font-family="Times,serif" font-size="14.00">ipv6.next_header == 0x0</text>
</g>
<!-- parse_ipv6&#45;&gt;parse_ipv6_opt -->
<g id="edge24" class="edge">
<title>parse_ipv6&#45;&gt;parse_ipv6_opt</title>
<path fill="none" stroke="black" d="M2129.68,-482.41C2137.2,-471 2148.47,-457.08 2162.33,-449.59 2221.02,-417.89 2245.68,-443.4 2311.33,-431.59 2312.59,-431.37 2313.86,-431.13 2315.14,-430.89"/>
<polygon fill="black" stroke="black" points="2315.94,-434.3 2325.06,-428.91 2314.56,-427.44 2315.94,-434.3"/>
<text text-anchor="middle" x="2257.33" y="-453.39" font-family="Times,serif" font-size="14.00">ipv6.next_header == 0x3c</text>
</g>
<!-- parse_ipv6&#45;&gt;parse_ipip -->
<g id="edge26" class="edge">
<title>parse_ipv6&#45;&gt;parse_ipip</title>
<path fill="none" stroke="black" d="M2069.32,-492.18C2029.01,-485.25 1970.9,-474.91 1920.33,-464.59 1890.85,-458.58 1883.95,-454.85 1854.33,-449.59 1823.44,-444.11 1738.69,-451.35 1714.33,-431.59 1684.65,-407.52 1674.95,-362.17 1671.8,-332.95"/>
<polygon fill="black" stroke="black" points="1675.26,-332.27 1670.89,-322.61 1668.28,-332.88 1675.26,-332.27"/>
<text text-anchor="middle" x="1805.83" y="-408.89" font-family="Times,serif" font-size="14.00">ipv6.next_header == 0x4</text>
</g>
<!-- parse_ipv6&#45;&gt;parse_ip6ip -->
<g id="edge29" class="edge">
<title>parse_ipv6&#45;&gt;parse_ip6ip</title>
<path fill="none" stroke="black" d="M2101.46,-520.76C2093.5,-531.06 2087.5,-543.81 2095.33,-553.59 2107.55,-568.86 2153.58,-577.92 2192.5,-582.99"/>
<polygon fill="black" stroke="black" points="2192.38,-586.5 2202.73,-584.25 2193.24,-579.55 2192.38,-586.5"/>
<text text-anchor="middle" x="2191.33" y="-542.39" font-family="Times,serif" font-size="14.00">ipv6.next_header == 0x29</text>
</g>
<!-- parse_ipv6&#45;&gt;parse_gre -->
<g id="edge30" class="edge">
<title>parse_ipv6&#45;&gt;parse_gre</title>
<path fill="none" stroke="black" d="M2115.36,-482.56C2111.37,-459.39 2108.35,-419.15 2128.33,-393.59 2143.65,-374 2157.85,-383.81 2181.33,-375.59 2228.06,-359.23 2280.91,-340.12 2319.63,-326"/>
<polygon fill="black" stroke="black" points="2320.97,-329.24 2329.16,-322.53 2318.57,-322.67 2320.97,-329.24"/>
<text text-anchor="middle" x="2222.33" y="-408.89" font-family="Times,serif" font-size="14.00">ipv6.next_header == 0x2f</text>
</g>
<!-- parse_ipv6_frag -->
<g id="node11" class="node">
<title>parse_ipv6_frag</title>
<g id="a_node11"><a xlink:href="#" xlink:title="Kernel PROG(IPV6FR) under default flags: read the fragment&#10;header and stop (BPF_OK), always.">
<polygon fill="none" stroke="black" points="2015.33,-323.59 1887.33,-323.59 1887.33,-285.59 2015.33,-285.59 2015.33,-323.59"/>
<text text-anchor="middle" x="1951.33" y="-308.39" font-family="Helvetica,sans-Serif" font-size="14.00">parse_ipv6_frag</text>
<text text-anchor="middle" x="1951.33" y="-293.39" font-family="Helvetica,sans-Serif" font-size="14.00">extract ext_frag</text>
</a>
</g>
</g>
<!-- parse_ipv6&#45;&gt;parse_ipv6_frag -->
<g id="edge25" class="edge">
<title>parse_ipv6&#45;&gt;parse_ipv6_frag</title>
<path fill="none" stroke="black" d="M2069.01,-500C2018.82,-496.4 1944.06,-482.17 1907.33,-431.59 1897.41,-417.93 1901.85,-409.57 1907.33,-393.59 1910.62,-384.01 1916.18,-384.32 1921.33,-375.59 1929.2,-362.25 1936.15,-346.46 1941.37,-333.26"/>
<polygon fill="black" stroke="black" points="1944.7,-334.34 1945.02,-323.75 1938.17,-331.84 1944.7,-334.34"/>
<text text-anchor="middle" x="2002.33" y="-408.89" font-family="Times,serif" font-size="14.00">ipv6.next_header == 0x2c</text>
</g>
<!-- parse_ipv6&#45;&gt;parse_tcp -->
<g id="edge27" class="edge">
<title>parse_ipv6&#45;&gt;parse_tcp</title>
<path fill="none" stroke="black" d="M2069.09,-497.32C1930.39,-487.96 1549.17,-459.92 1500.33,-431.59 1461.6,-409.13 1434.52,-363.14 1420.2,-333.37"/>
<polygon fill="black" stroke="black" points="1423.22,-331.55 1415.84,-323.95 1416.87,-334.5 1423.22,-331.55"/>
<text text-anchor="middle" x="1591.83" y="-408.89" font-family="Times,serif" font-size="14.00">ipv6.next_header == 0x6</text>
</g>
<!-- parse_ipv6&#45;&gt;parse_udp -->
<g id="edge28" class="edge">
<title>parse_ipv6&#45;&gt;parse_udp</title>
<path fill="none" stroke="black" d="M2169.41,-497.84C2338.8,-488.32 2881.35,-456.04 2909.33,-431.59 2933.49,-410.49 2941.9,-386.01 2922.33,-360.59 2917.63,-354.49 2832.52,-333.39 2772.64,-319.17"/>
<polygon fill="black" stroke="black" points="2773.43,-315.76 2762.9,-316.86 2771.82,-322.57 2773.43,-315.76"/>
<text text-anchor="middle" x="3028.33" y="-408.89" font-family="Times,serif" font-size="14.00">ipv6.next_header == 0x11</text>
</g>
<!-- parse_ipv6&#45;&gt;reject_3 -->
<g id="edge31" class="edge">
<title>parse_ipv6&#45;&gt;reject_3</title>
<path fill="none" stroke="black" stroke-dasharray="5,2" d="M2169.49,-498.1C2371.05,-487.95 3111.94,-449.49 3128.33,-431.59 3151.27,-406.54 3131.32,-370.84 3108.77,-343.83"/>
<polygon fill="black" stroke="black" points="3111.26,-341.35 3102.06,-336.1 3105.98,-345.95 3111.26,-341.35"/>
<text text-anchor="middle" x="3163.83" y="-408.89" font-family="Times,serif" font-size="14.00">default</text>
</g>
<!-- parse_ipv6_opt&#45;&gt;parse_ipv6_opt -->
<g id="edge32" class="edge">
<title>parse_ipv6_opt&#45;&gt;parse_ipv6_opt</title>
<path fill="none" stroke="black" d="M2447.61,-416.44C2458.08,-415.92 2465.33,-414.63 2465.33,-412.59 2465.33,-411.32 2462.5,-410.34 2457.82,-409.65"/>
<polygon fill="black" stroke="black" points="2457.88,-406.15 2447.61,-408.74 2457.26,-413.12 2457.88,-406.15"/>
<text text-anchor="middle" x="2567.83" y="-408.89" font-family="Times,serif" font-size="14.00">ext_opt.next_header == 0x0</text>
</g>
<!-- parse_ipv6_opt&#45;&gt;parse_ipv6_opt -->
<g id="edge33" class="edge">
<title>parse_ipv6_opt&#45;&gt;parse_ipv6_opt</title>
<path fill="none" stroke="black" d="M2447.34,-418.92C2532.06,-422.86 2670.33,-420.75 2670.33,-412.59 2670.33,-404.76 2542.66,-402.5 2457.5,-405.83"/>
<polygon fill="black" stroke="black" points="2457.18,-402.34 2447.34,-406.26 2457.48,-409.33 2457.18,-402.34"/>
<text text-anchor="middle" x="2776.33" y="-408.89" font-family="Times,serif" font-size="14.00">ext_opt.next_header == 0x3c</text>
</g>
<!-- parse_ipv6_opt&#45;&gt;parse_ipip -->
<g id="edge35" class="edge">
<title>parse_ipv6_opt&#45;&gt;parse_ipip</title>
<path fill="none" stroke="black" d="M2325.12,-395.89C2320.47,-395.01 2315.84,-394.23 2311.33,-393.59 2128.5,-367.93 2078.23,-407.16 1896.33,-375.59 1835.63,-365.06 1768.47,-342.84 1723.27,-326.24"/>
<polygon fill="black" stroke="black" points="1724.27,-322.88 1713.68,-322.69 1721.84,-329.44 1724.27,-322.88"/>
<text text-anchor="middle" x="1998.83" y="-364.39" font-family="Times,serif" font-size="14.00">ext_opt.next_header == 0x4</text>
</g>
<!-- parse_ipv6_opt&#45;&gt;parse_ip6ip -->
<g id="edge38" class="edge">
<title>parse_ipv6_opt&#45;&gt;parse_ip6ip</title>
<path fill="none" stroke="black" d="M2447.53,-418.44C2490.82,-423.3 2543.52,-432.57 2557.33,-449.59 2561.53,-454.77 2561.05,-459.06 2557.33,-464.59 2502.15,-546.49 2382.66,-574.32 2310.4,-583.76"/>
<polygon fill="black" stroke="black" points="2309.6,-580.33 2300.1,-585.02 2310.45,-587.28 2309.6,-580.33"/>
<text text-anchor="middle" x="2649.33" y="-497.89" font-family="Times,serif" font-size="14.00">ext_opt.next_header == 0x29</text>
</g>
<!-- parse_ipv6_opt&#45;&gt;parse_gre -->
<g id="edge39" class="edge">
<title>parse_ipv6_opt&#45;&gt;parse_gre</title>
<path fill="none" stroke="black" d="M2380.32,-393.47C2378.71,-387.81 2377.18,-381.5 2376.33,-375.59 2374.37,-361.96 2373.95,-346.69 2374.09,-333.9"/>
<polygon fill="black" stroke="black" points="2377.59,-333.9 2374.32,-323.82 2370.59,-333.74 2377.59,-333.9"/>
<text text-anchor="middle" x="2481.33" y="-364.39" font-family="Times,serif" font-size="14.00">ext_opt.next_header == 0x2f</text>
</g>
<!-- parse_ipv6_opt&#45;&gt;parse_ipv6_frag -->
<g id="edge34" class="edge">
<title>parse_ipv6_opt&#45;&gt;parse_ipv6_frag</title>
<path fill="none" stroke="black" d="M2325.06,-396.26C2320.43,-395.3 2315.81,-394.39 2311.33,-393.59 2243.92,-381.58 2225.12,-390.64 2158.33,-375.59 2105.22,-363.63 2046.61,-343.08 2005.36,-327.34"/>
<polygon fill="black" stroke="black" points="2006.37,-323.98 1995.78,-323.65 2003.85,-330.51 2006.37,-323.98"/>
<text text-anchor="middle" x="2264.33" y="-364.39" font-family="Times,serif" font-size="14.00">ext_opt.next_header == 0x2c</text>
</g>
<!-- parse_ipv6_opt&#45;&gt;parse_tcp -->
<g id="edge36" class="edge">
<title>parse_ipv6_opt&#45;&gt;parse_tcp</title>
<path fill="none" stroke="black" d="M2325.13,-395.8C2320.48,-394.94 2315.84,-394.19 2311.33,-393.59 2159.7,-373.64 1774.05,-401.54 1623.33,-375.59 1566.32,-365.78 1503.71,-344.07 1460.83,-327.41"/>
<polygon fill="black" stroke="black" points="1462.04,-324.13 1451.45,-323.73 1459.48,-330.64 1462.04,-324.13"/>
<text text-anchor="middle" x="1725.83" y="-364.39" font-family="Times,serif" font-size="14.00">ext_opt.next_header == 0x6</text>
</g>
<!-- parse_ipv6_opt&#45;&gt;parse_udp -->
<g id="edge37" class="edge">
<title>parse_ipv6_opt&#45;&gt;parse_udp</title>
<path fill="none" stroke="black" d="M2447.59,-405.75C2487.86,-400.66 2541.25,-391.5 2586.33,-375.59 2619.09,-364.03 2653.49,-344.77 2678.36,-329.37"/>
<polygon fill="black" stroke="black" points="2680.47,-332.18 2687.08,-323.89 2676.75,-326.25 2680.47,-332.18"/>
<text text-anchor="middle" x="2726.33" y="-364.39" font-family="Times,serif" font-size="14.00">ext_opt.next_header == 0x11</text>
</g>
<!-- parse_ipv6_opt&#45;&gt;reject_3 -->
<g id="edge40" class="edge">
<title>parse_ipv6_opt&#45;&gt;reject_3</title>
<path fill="none" stroke="black" stroke-dasharray="5,2" d="M2447.42,-410.81C2534.63,-408.77 2699.53,-401.49 2837.33,-375.59 2891.28,-365.45 2950.5,-347.57 2995.74,-332.42"/>
<polygon fill="black" stroke="black" points="2997.11,-335.65 3005.46,-329.13 2994.87,-329.01 2997.11,-335.65"/>
<text text-anchor="middle" x="2927.83" y="-364.39" font-family="Times,serif" font-size="14.00">default</text>
</g>
<!-- parse_ipip&#45;&gt;parse_ipv4 -->
<g id="edge41" class="edge">
<title>parse_ipip&#45;&gt;parse_ipv4</title>
<path fill="none" stroke="black" d="M1706.43,-322.61C1740.23,-339.12 1791.64,-365.69 1833.33,-393.59 1874.81,-421.35 1880.63,-434.34 1920.33,-464.59 2023.45,-543.18 2149.63,-630.42 2209.94,-671.59"/>
<polygon fill="black" stroke="black" points="2208.12,-674.58 2218.35,-677.32 2212.06,-668.79 2208.12,-674.58"/>
</g>
<!-- parse_ip6ip&#45;&gt;parse_ipv6 -->
<g id="edge42" class="edge">
<title>parse_ip6ip&#45;&gt;parse_ipv6</title>
<path fill="none" stroke="black" d="M2275.78,-571.58C2286.94,-561.74 2295.94,-549.24 2287.33,-538.59 2273.79,-521.84 2222.06,-512.53 2179.54,-507.6"/>
<polygon fill="black" stroke="black" points="2179.83,-504.11 2169.51,-506.5 2179.07,-511.07 2179.83,-504.11"/>
</g>
<!-- parse_gre_opt -->
<g id="node10" class="node">
<title>parse_gre_opt</title>
<g id="a_node10"><a xlink:href="#" xlink:title="TEB (0x6558) re&#45;enters parse_ethernet itself: the kernel reads&#10;the inner Ethernet and runs its full parse_eth_proto dispatcher,&#10;so inner VLAN/MPLS/IPvX all live.">
<polygon fill="none" stroke="black" points="3426.33,-190.3 3304.33,-190.3 3304.33,-152.3 3426.33,-152.3 3426.33,-190.3"/>
<text text-anchor="middle" x="3365.33" y="-175.1" font-family="Helvetica,sans-Serif" font-size="14.00">parse_gre_opt</text>
<text text-anchor="middle" x="3365.33" y="-160.1" font-family="Helvetica,sans-Serif" font-size="14.00">extract gre_opt</text>
</a>
</g>
</g>
<!-- parse_gre&#45;&gt;parse_gre_opt -->
<g id="edge43" class="edge">
<title>parse_gre&#45;&gt;parse_gre_opt</title>
<path fill="none" stroke="black" d="M2421.42,-297.48C2579.87,-276.47 3102.93,-207.1 3294.35,-181.71"/>
<polygon fill="black" stroke="black" points="3294.85,-185.17 3304.3,-180.39 3293.93,-178.24 3294.85,-185.17"/>
<text text-anchor="middle" x="2969.83" y="-237.39" font-family="Times,serif" font-size="14.00">gre.version == 0x0</text>
</g>
<!-- accept -->
<g id="node15" class="node">
<title>accept</title>
<ellipse fill="none" stroke="black" cx="1951.33" cy="-171.3" rx="40.11" ry="40.11"/>
<ellipse fill="none" stroke="black" cx="1951.33" cy="-171.3" rx="44.09" ry="44.09"/>
<text text-anchor="middle" x="1951.33" y="-167.6" font-family="Helvetica,sans-Serif" font-size="14.00">accept</text>
</g>
<!-- parse_gre&#45;&gt;accept -->
<g id="edge44" class="edge">
<title>parse_gre&#45;&gt;accept</title>
<path fill="none" stroke="black" stroke-dasharray="5,2" d="M2329.15,-289.29C2249.53,-264.64 2086.98,-214.3 2003.44,-188.43"/>
<polygon fill="black" stroke="black" points="2004.25,-185.02 1993.66,-185.4 2002.18,-191.71 2004.25,-185.02"/>
<text text-anchor="middle" x="2213.83" y="-237.39" font-family="Times,serif" font-size="14.00">default</text>
</g>
<!-- parse_gre_opt&#45;&gt;parse_ethernet -->
<g id="edge47" class="edge">
<title>parse_gre_opt&#45;&gt;parse_ethernet</title>
<path fill="none" stroke="black" d="M3426.52,-178.52C3499.09,-189.67 3610.33,-220.35 3610.33,-303.59 3610.33,-932.59 3610.33,-932.59 3610.33,-932.59 3610.33,-979.2 2133.39,-1011.22 1782.48,-1018.17"/>
<polygon fill="black" stroke="black" points="1782.36,-1014.68 1772.43,-1018.37 1782.5,-1021.67 1782.36,-1014.68"/>
<text text-anchor="middle" x="3687.33" y="-585.89" font-family="Times,serif" font-size="14.00">gre.proto == 0x6558</text>
</g>
<!-- parse_gre_opt&#45;&gt;parse_ipv4 -->
<g id="edge45" class="edge">
<title>parse_gre_opt&#45;&gt;parse_ipv4</title>
<path fill="none" stroke="black" d="M3386.78,-190.34C3411.96,-213.67 3450.33,-256.89 3450.33,-303.59 3450.33,-590.59 3450.33,-590.59 3450.33,-590.59 3450.33,-648.69 2549.69,-684.81 2305.68,-693.53"/>
<polygon fill="black" stroke="black" points="2305.44,-690.04 2295.57,-693.89 2305.69,-697.03 2305.44,-690.04"/>
<text text-anchor="middle" x="3522.83" y="-453.39" font-family="Times,serif" font-size="14.00">gre.proto == 0x800</text>
</g>
<!-- parse_gre_opt&#45;&gt;parse_ipv6 -->
<g id="edge46" class="edge">
<title>parse_gre_opt&#45;&gt;parse_ipv6</title>
<path fill="none" stroke="black" d="M3359.8,-190.43C3343.64,-239.82 3291.36,-376.68 3193.33,-431.59 3125.68,-469.49 2574.79,-478.99 2497.33,-482.59 2385.13,-487.81 2254.21,-494.08 2179.61,-497.68"/>
<polygon fill="black" stroke="black" points="2179.29,-494.19 2169.47,-498.17 2179.62,-501.18 2179.29,-494.19"/>
<text text-anchor="middle" x="3348.33" y="-364.39" font-family="Times,serif" font-size="14.00">gre.proto == 0x86dd</text>
</g>
<!-- reject_4 -->
<g id="node20" class="node">
<title>reject_4</title>
<polygon fill="none" stroke="black" points="3365.33,-76 3192.33,-38 3365.33,0 3538.33,-38 3365.33,-76"/>
<text text-anchor="middle" x="3365.33" y="-41.8" font-family="Helvetica,sans-Serif" font-size="14.00">reject:</text>
<text text-anchor="middle" x="3365.33" y="-26.8" font-family="Helvetica,sans-Serif" font-size="14.00">unsupported gre proto</text>
</g>
<!-- parse_gre_opt&#45;&gt;reject_4 -->
<g id="edge48" class="edge">
<title>parse_gre_opt&#45;&gt;reject_4</title>
<path fill="none" stroke="black" stroke-dasharray="5,2" d="M3365.33,-152.04C3365.33,-135.11 3365.33,-109.19 3365.33,-86.43"/>
<polygon fill="black" stroke="black" points="3368.83,-86.25 3365.33,-76.25 3361.83,-86.25 3368.83,-86.25"/>
<text text-anchor="middle" x="3390.83" y="-97.8" font-family="Times,serif" font-size="14.00">default</text>
</g>
<!-- parse_ipv6_frag&#45;&gt;accept -->
<g id="edge49" class="edge">
<title>parse_ipv6_frag&#45;&gt;accept</title>
<path fill="none" stroke="black" d="M1951.33,-285.34C1951.33,-269.96 1951.33,-247.14 1951.33,-226.03"/>
<polygon fill="black" stroke="black" points="1954.83,-225.85 1951.33,-215.85 1947.83,-225.85 1954.83,-225.85"/>
</g>
<!-- parse_mpls&#45;&gt;accept -->
<g id="edge50" class="edge">
<title>parse_mpls&#45;&gt;accept</title>
<path fill="none" stroke="black" d="M343.58,-693.02C453.23,-686.18 697.33,-662.85 697.33,-590.59 697.33,-590.59 697.33,-590.59 697.33,-303.59 697.33,-181.19 1654.64,-172.45 1896.4,-172.19"/>
<polygon fill="black" stroke="black" points="1896.7,-175.69 1906.7,-172.19 1896.7,-168.69 1896.7,-175.69"/>
</g>
<!-- parse_tcp&#45;&gt;accept -->
<g id="edge51" class="edge">
<title>parse_tcp&#45;&gt;accept</title>
<path fill="none" stroke="black" d="M1454.62,-292.4C1555,-268.13 1792.15,-210.79 1898.32,-185.11"/>
<polygon fill="black" stroke="black" points="1899.28,-188.48 1908.18,-182.73 1897.64,-181.68 1899.28,-188.48"/>
</g>
<!-- parse_udp&#45;&gt;accept -->
<g id="edge52" class="edge">
<title>parse_udp&#45;&gt;accept</title>
<path fill="none" stroke="black" d="M2665.73,-295.23C2529.95,-271.87 2147.27,-206.01 2005.25,-181.58"/>
<polygon fill="black" stroke="black" points="2005.5,-178.07 1995.05,-179.82 2004.31,-184.97 2005.5,-178.07"/>
</g>
</g>
</svg>
