<?xml version="1.0" encoding="UTF-8" standalone="no"?>
<!DOCTYPE svg PUBLIC "-//W3C//DTD SVG 1.1//EN"
 "http://www.w3.org/Graphics/SVG/1.1/DTD/svg11.dtd">
<!-- Generated by graphviz version 2.43.0 (0)
 -->
<!-- Title: gibb_edge Pages: 1 -->
<svg width="1461pt" height="617pt"
 viewBox="0.00 0.00 1461.00 616.59" xmlns="http://www.w3.org/2000/svg" xmlns:xlink="http://www.w3.org/1999/xlink">
<g id="graph0" class="graph" transform="scale(1 1) rotate(0) translate(4 612.59)">
<title>gibb_edge</title>
<polygon fill="white" stroke="transparent" points="-4,4 -4,-612.59 1457,-612.59 1457,4 -4,4"/>
<!-- parse_ethernet -->
<g id="node1" class="node">
<title>parse_ethernet</title>
<polygon fill="none" stroke="black" points="563,-608.59 435,-608.59 435,-570.59 563,-570.59 563,-608.59"/>
<text text-anchor="middle" x="499" y="-593.39" font-family="Helvetica,sans-Serif" font-size="14.00">parse_ethernet</text>
<text text-anchor="middle" x="499" y="-578.39" font-family="Helvetica,sans-Serif" font-size="14.00">extract ethernet</text>
</g>
<!-- parse_mpls1 -->
<g id="node2" class="node">
<title>parse_mpls1</title>
<g id="a_node2"><a xlink:href="#" xlink:title="First of the two bounded MPLS labels (`max = 2` in the&#10;source). The source&#39;s `map(bos, next&#45;header)` peeks a 4&#45;bit&#10;pseudo&#45;field from the NEXT header; transcribed by dispatching&#10;on `bos` alone &#45; bos=0 continues the stack with nothing else&#10;consumed, bos=1 hands off to the nibble state.">
<polygon fill="none" stroke="black" points="299.5,-519.59 194.5,-519.59 194.5,-481.59 299.5,-481.59 299.5,-519.59"/>
<text text-anchor="middle" x="247" y="-504.39" font-family="Helvetica,sans-Serif" font-size="14.00">parse_mpls1</text>
<text text-anchor="middle" x="247" y="-489.39" font-family="Helvetica,sans-Serif" font-size="14.00">extract mpls</text>
</a>
</g>
</g>
<!-- parse_ethernet&#45;&gt;parse_mpls1 -->
<g id="edge1" class="edge">
<title>parse_ethernet&#45;&gt;parse_mpls1</title>
<path fill="none" stroke="black" d="M434.92,-588.48C368.78,-586.85 271.98,-579.72 248,-552.59 242.56,-546.44 240.93,-538.04 241.06,-529.84"/>
<polygon fill="black" stroke="black" points="244.56,-530.02 242.03,-519.73 237.59,-529.36 244.56,-530.02"/>
<text text-anchor="middle" x="362.5" y="-541.39" font-family="Times,serif" font-size="14.00">ethernet.ether_type == 0x8847</text>
</g>
<!-- parse_ethernet&#45;&gt;parse_mpls1 -->
<g id="edge2" class="edge">
<title>parse_ethernet&#45;&gt;parse_mpls1</title>
<path fill="none" stroke="black" d="M495.8,-570.53C492.84,-559.31 487.29,-545.57 477,-537.59 451.57,-517.88 368.83,-508.77 309.89,-504.69"/>
<polygon fill="black" stroke="black" points="309.75,-501.17 299.55,-504.01 309.29,-508.16 309.75,-501.17"/>
<text text-anchor="middle" x="602.5" y="-541.39" font-family="Times,serif" font-size="14.00">ethernet.ether_type == 0x8848</text>
</g>
<!-- parse_ipv4 -->
<g id="node5" class="node">
<title>parse_ipv4</title>
<polygon fill="none" stroke="black" points="783,-252.59 683,-252.59 683,-214.59 783,-214.59 783,-252.59"/>
<text text-anchor="middle" x="733" y="-237.39" font-family="Helvetica,sans-Serif" font-size="14.00">parse_ipv4</text>
<text text-anchor="middle" x="733" y="-222.39" font-family="Helvetica,sans-Serif" font-size="14.00">extract ipv4</text>
</g>
<!-- parse_ethernet&#45;&gt;parse_ipv4 -->
<g id="edge3" class="edge">
<title>parse_ethernet&#45;&gt;parse_ipv4</title>
<path fill="none" stroke="black" d="M563.17,-587.67C742.02,-584.26 1233,-568.76 1233,-501.59 1233,-501.59 1233,-501.59 1233,-321.59 1233,-277.42 926.22,-249.07 793.26,-238.86"/>
<polygon fill="black" stroke="black" points="793.47,-235.36 783.23,-238.09 792.94,-242.34 793.47,-235.36"/>
<text text-anchor="middle" x="1343" y="-407.89" font-family="Times,serif" font-size="14.00">ethernet.ether_type == 0x800</text>
</g>
<!-- parse_ipv6 -->
<g id="node6" class="node">
<title>parse_ipv6</title>
<polygon fill="none" stroke="black" points="540,-252.59 440,-252.59 440,-214.59 540,-214.59 540,-252.59"/>
<text text-anchor="middle" x="490" y="-237.39" font-family="Helvetica,sans-Serif" font-size="14.00">parse_ipv6</text>
<text text-anchor="middle" x="490" y="-222.39" font-family="Helvetica,sans-Serif" font-size="14.00">extract ipv6</text>
</g>
<!-- parse_ethernet&#45;&gt;parse_ipv6 -->
<g id="edge4" class="edge">
<title>parse_ethernet&#45;&gt;parse_ipv6</title>
<path fill="none" stroke="black" d="M563.23,-583.27C691.68,-571.76 968,-542.27 968,-501.59 968,-501.59 968,-501.59 968,-321.59 968,-295.95 962.51,-284.55 941,-270.59 916.06,-254.41 703.63,-255.04 674,-252.59 632.8,-249.19 586.49,-244.66 550.63,-240.99"/>
<polygon fill="black" stroke="black" points="550.64,-237.47 540.34,-239.93 549.92,-244.43 550.64,-237.47"/>
<text text-anchor="middle" x="1082.5" y="-407.89" font-family="Times,serif" font-size="14.00">ethernet.ether_type == 0x86dd</text>
</g>
<!-- accept -->
<g id="node9" class="node">
<title>accept</title>
<ellipse fill="none" stroke="black" cx="214" cy="-44.3" rx="40.11" ry="40.11"/>
<ellipse fill="none" stroke="black" cx="214" cy="-44.3" rx="44.09" ry="44.09"/>
<text text-anchor="middle" x="214" y="-40.6" font-family="Helvetica,sans-Serif" font-size="14.00">accept</text>
</g>
<!-- parse_ethernet&#45;&gt;accept -->
<g id="edge5" class="edge">
<title>parse_ethernet&#45;&gt;accept</title>
<path fill="none" stroke="black" stroke-dasharray="5,2" d="M434.79,-584C300.01,-573.5 0,-545.23 0,-501.59 0,-501.59 0,-501.59 0,-143.59 0,-73.49 95.99,-53.2 159.4,-47.44"/>
<polygon fill="black" stroke="black" points="159.97,-50.91 169.66,-46.61 159.41,-43.93 159.97,-50.91"/>
<text text-anchor="middle" x="25.5" y="-318.89" font-family="Times,serif" font-size="14.00">default</text>
</g>
<!-- parse_mpls2 -->
<g id="node3" class="node">
<title>parse_mpls2</title>
<g id="a_node3"><a xlink:href="#" xlink:title="Second MPLS label; a third (bos=0) falls to the default &#45;&#10;beyond the graph&#39;s bound is simply not a recognized&#10;sequence.">
<polygon fill="none" stroke="black" points="230.5,-430.59 125.5,-430.59 125.5,-392.59 230.5,-392.59 230.5,-430.59"/>
<text text-anchor="middle" x="178" y="-415.39" font-family="Helvetica,sans-Serif" font-size="14.00">parse_mpls2</text>
<text text-anchor="middle" x="178" y="-400.39" font-family="Helvetica,sans-Serif" font-size="14.00">extract mpls</text>
</a>
</g>
</g>
<!-- parse_mpls1&#45;&gt;parse_mpls2 -->
<g id="edge6" class="edge">
<title>parse_mpls1&#45;&gt;parse_mpls2</title>
<path fill="none" stroke="black" d="M197.19,-481.5C189.97,-476.76 183.48,-470.87 179,-463.59 174.91,-456.96 173.52,-448.86 173.45,-441.08"/>
<polygon fill="black" stroke="black" points="176.96,-441.04 174.04,-430.85 169.97,-440.63 176.96,-441.04"/>
<text text-anchor="middle" x="241" y="-452.39" font-family="Times,serif" font-size="14.00">mpls.bos == 0x0</text>
</g>
<!-- parse_payload_nibble -->
<g id="node4" class="node">
<title>parse_payload_nibble</title>
<g id="a_node4"><a xlink:href="#" xlink:title="One shared state for both MPLS depths: peek the payload&#39;s&#10;first nibble, then continue with the matching full header&#10;(b10000/b10100/b10110 in the source&#39;s map).">
<polygon fill="none" stroke="black" points="422,-341.59 186,-341.59 186,-303.59 422,-303.59 422,-341.59"/>
<text text-anchor="middle" x="304" y="-326.39" font-family="Helvetica,sans-Serif" font-size="14.00">parse_payload_nibble</text>
<text text-anchor="middle" x="304" y="-311.39" font-family="Helvetica,sans-Serif" font-size="14.00">lookahead mpls_payload_nibble</text>
</a>
</g>
</g>
<!-- parse_mpls1&#45;&gt;parse_payload_nibble -->
<g id="edge7" class="edge">
<title>parse_mpls1&#45;&gt;parse_payload_nibble</title>
<path fill="none" stroke="black" d="M286.55,-481.42C293.14,-476.58 299.1,-470.68 303,-463.59 322.11,-428.89 317.29,-381.63 311.27,-351.87"/>
<polygon fill="black" stroke="black" points="314.61,-350.76 309.04,-341.75 307.77,-352.27 314.61,-350.76"/>
<text text-anchor="middle" x="379" y="-407.89" font-family="Times,serif" font-size="14.00">mpls.bos == 0x1</text>
</g>
<!-- parse_mpls1&#45;&gt;accept -->
<g id="edge8" class="edge">
<title>parse_mpls1&#45;&gt;accept</title>
<path fill="none" stroke="black" stroke-dasharray="5,2" d="M194.3,-494.31C145.04,-486.12 79,-465.31 79,-412.59 79,-412.59 79,-412.59 79,-143.59 79,-100.83 123.82,-74.71 161.81,-60.26"/>
<polygon fill="black" stroke="black" points="163.07,-63.52 171.29,-56.83 160.69,-56.94 163.07,-63.52"/>
<text text-anchor="middle" x="104.5" y="-274.39" font-family="Times,serif" font-size="14.00">default</text>
</g>
<!-- parse_mpls2&#45;&gt;parse_payload_nibble -->
<g id="edge9" class="edge">
<title>parse_mpls2&#45;&gt;parse_payload_nibble</title>
<path fill="none" stroke="black" d="M173.39,-392.33C171.84,-381.73 171.99,-368.72 179,-359.59 182.48,-355.06 186.5,-351.07 190.91,-347.56"/>
<polygon fill="black" stroke="black" points="193.04,-350.34 199.24,-341.75 189.03,-344.6 193.04,-350.34"/>
<text text-anchor="middle" x="241" y="-363.39" font-family="Times,serif" font-size="14.00">mpls.bos == 0x1</text>
</g>
<!-- parse_mpls2&#45;&gt;accept -->
<g id="edge10" class="edge">
<title>parse_mpls2&#45;&gt;accept</title>
<path fill="none" stroke="black" stroke-dasharray="5,2" d="M172.99,-392.4C164.11,-357.67 147.53,-279.6 158,-214.59 164.68,-173.14 180,-128.1 192.93,-94.9"/>
<polygon fill="black" stroke="black" points="196.25,-96.02 196.67,-85.43 189.74,-93.44 196.25,-96.02"/>
<text text-anchor="middle" x="183.5" y="-229.89" font-family="Times,serif" font-size="14.00">default</text>
</g>
<!-- parse_payload_nibble&#45;&gt;parse_ipv4 -->
<g id="edge12" class="edge">
<title>parse_payload_nibble&#45;&gt;parse_ipv4</title>
<path fill="none" stroke="black" d="M422.13,-316.39C531.15,-310.71 679.62,-300.4 703,-285.59 711.76,-280.05 718.28,-270.94 722.96,-261.95"/>
<polygon fill="black" stroke="black" points="726.18,-263.33 727.18,-252.78 719.82,-260.39 726.18,-263.33"/>
<text text-anchor="middle" x="827" y="-274.39" font-family="Times,serif" font-size="14.00">mpls_payload_nibble.v == 0x4</text>
</g>
<!-- parse_payload_nibble&#45;&gt;parse_ipv6 -->
<g id="edge13" class="edge">
<title>parse_payload_nibble&#45;&gt;parse_ipv6</title>
<path fill="none" stroke="black" d="M420.96,-303.58C441.77,-298.6 459.51,-292.6 468,-285.59 475.16,-279.68 480.05,-271 483.36,-262.47"/>
<polygon fill="black" stroke="black" points="486.77,-263.29 486.56,-252.7 480.12,-261.11 486.77,-263.29"/>
<text text-anchor="middle" x="589" y="-274.39" font-family="Times,serif" font-size="14.00">mpls_payload_nibble.v == 0x6</text>
</g>
<!-- parse_eompls -->
<g id="node7" class="node">
<title>parse_eompls</title>
<polygon fill="none" stroke="black" points="365,-252.59 245,-252.59 245,-214.59 365,-214.59 365,-252.59"/>
<text text-anchor="middle" x="305" y="-237.39" font-family="Helvetica,sans-Serif" font-size="14.00">parse_eompls</text>
<text text-anchor="middle" x="305" y="-222.39" font-family="Helvetica,sans-Serif" font-size="14.00">extract eompls</text>
</g>
<!-- parse_payload_nibble&#45;&gt;parse_eompls -->
<g id="edge11" class="edge">
<title>parse_payload_nibble&#45;&gt;parse_eompls</title>
<path fill="none" stroke="black" d="M264.03,-303.58C250.72,-294.87 240.89,-283.49 248,-270.59 250.35,-266.33 253.44,-262.51 256.96,-259.09"/>
<polygon fill="black" stroke="black" points="259.27,-261.72 264.72,-252.63 254.79,-256.34 259.27,-261.72"/>
<text text-anchor="middle" x="358" y="-274.39" font-family="Times,serif" font-size="14.00">mpls_payload_nibble.v == 0x0</text>
</g>
<!-- parse_payload_nibble&#45;&gt;accept -->
<g id="edge14" class="edge">
<title>parse_payload_nibble&#45;&gt;accept</title>
<path fill="none" stroke="black" stroke-dasharray="5,2" d="M261.3,-303.49C253.91,-298.65 247.01,-292.72 242,-285.59 203.41,-230.65 202.1,-150.64 206.55,-98.28"/>
<polygon fill="black" stroke="black" points="210.05,-98.48 207.51,-88.19 203.08,-97.82 210.05,-98.48"/>
<text text-anchor="middle" x="234.5" y="-185.39" font-family="Times,serif" font-size="14.00">default</text>
</g>
<!-- parse_ipv4&#45;&gt;accept -->
<g id="edge15" class="edge">
<title>parse_ipv4&#45;&gt;accept</title>
<path fill="none" stroke="black" d="M682.76,-214.46C583.79,-178.75 364.58,-99.64 264.99,-63.7"/>
<polygon fill="black" stroke="black" points="266.05,-60.36 255.45,-60.26 263.67,-66.94 266.05,-60.36"/>
</g>
<!-- parse_ipv6&#45;&gt;accept -->
<g id="edge16" class="edge">
<title>parse_ipv6&#45;&gt;accept</title>
<path fill="none" stroke="black" d="M476.36,-214.27C458.41,-191.16 424.91,-151.35 389,-125.59 350.85,-98.23 301.89,-76.72 265.46,-62.88"/>
<polygon fill="black" stroke="black" points="266.6,-59.57 256.01,-59.36 264.15,-66.13 266.6,-59.57"/>
</g>
<!-- parse_ethernet2 -->
<g id="node8" class="node">
<title>parse_ethernet2</title>
<g id="a_node8"><a xlink:href="#" xlink:title="The source&#39;s `ethernet2`: the inner (pseudo&#45;wire) Ethernet&#10;header, terminal. Same layout as `Ethernet` &#45; reused as a&#10;second instance.">
<polygon fill="none" stroke="black" points="379.5,-163.59 242.5,-163.59 242.5,-125.59 379.5,-125.59 379.5,-163.59"/>
<text text-anchor="middle" x="311" y="-148.39" font-family="Helvetica,sans-Serif" font-size="14.00">parse_ethernet2</text>
<text text-anchor="middle" x="311" y="-133.39" font-family="Helvetica,sans-Serif" font-size="14.00">extract ethernet2</text>
</a>
</g>
</g>
<!-- parse_eompls&#45;&gt;parse_ethernet2 -->
<g id="edge17" class="edge">
<title>parse_eompls&#45;&gt;parse_ethernet2</title>
<path fill="none" stroke="black" d="M306.24,-214.57C307.06,-202.78 308.13,-187.15 309.06,-173.75"/>
<polygon fill="black" stroke="black" points="312.56,-173.81 309.76,-163.6 305.58,-173.33 312.56,-173.81"/>
</g>
<!-- parse_ethernet2&#45;&gt;accept -->
<g id="edge18" class="edge">
<title>parse_ethernet2&#45;&gt;accept</title>
<path fill="none" stroke="black" d="M293.21,-125.56C281.66,-113.86 266.16,-98.15 251.94,-83.74"/>
<polygon fill="black" stroke="black" points="254.16,-81.01 244.64,-76.35 249.17,-85.92 254.16,-81.01"/>
</g>
</g>
</svg>
