<?xml version="1.0" encoding="UTF-8" standalone="no"?>
<!DOCTYPE svg PUBLIC "-//W3C//DTD SVG 1.1//EN"
 "http://www.w3.org/Graphics/SVG/1.1/DTD/svg11.dtd">
<!-- Generated by graphviz version 2.43.0 (0)
 -->
<!-- Title: katran_parser Pages: 1 -->
<svg width="1793pt" height="820pt"
 viewBox="0.00 0.00 1793.00 819.59" xmlns="http://www.w3.org/2000/svg" xmlns:xlink="http://www.w3.org/1999/xlink">
<g id="graph0" class="graph" transform="scale(1 1) rotate(0) translate(4 815.59)">
<title>katran_parser</title>
<polygon fill="white" stroke="transparent" points="-4,4 -4,-815.59 1789,-815.59 1789,4 -4,4"/>
<!-- parse_ethernet -->
<g id="node1" class="node">
<title>parse_ethernet</title>
<g id="a_node1"><a xlink:href="#" xlink:title="XDP entry: EtherType demux, no VLAN/MPLS. Non&#45;IP (incl. ARP)&#10;accepts as XDP_PASS without entering the parser.">
<polygon fill="none" stroke="black" points="1319,-811.59 1191,-811.59 1191,-773.59 1319,-773.59 1319,-811.59"/>
<text text-anchor="middle" x="1255" y="-796.39" font-family="Helvetica,sans-Serif" font-size="14.00">parse_ethernet</text>
<text text-anchor="middle" x="1255" y="-781.39" font-family="Helvetica,sans-Serif" font-size="14.00">extract ethernet</text>
</a>
</g>
</g>
<!-- parse_ipv4 -->
<g id="node2" class="node">
<title>parse_ipv4</title>
<g id="a_node2"><a xlink:href="#" xlink:title="parse_l3_headers v4: ihl != 5 or any fragment &#45;&gt; XDP_DROP.">
<polygon fill="none" stroke="black" points="1036,-722.59 936,-722.59 936,-684.59 1036,-684.59 1036,-722.59"/>
<text text-anchor="middle" x="986" y="-707.39" font-family="Helvetica,sans-Serif" font-size="14.00">parse_ipv4</text>
<text text-anchor="middle" x="986" y="-692.39" font-family="Helvetica,sans-Serif" font-size="14.00">extract ipv4</text>
</a>
</g>
</g>
<!-- parse_ethernet&#45;&gt;parse_ipv4 -->
<g id="edge1" class="edge">
<title>parse_ethernet&#45;&gt;parse_ipv4</title>
<path fill="none" stroke="black" d="M1190.74,-786.63C1133.3,-781.27 1054.13,-771.31 1027,-755.59 1016.87,-749.72 1008.25,-740.31 1001.57,-731.17"/>
<polygon fill="black" stroke="black" points="1004.27,-728.92 995.77,-722.6 998.48,-732.84 1004.27,-728.92"/>
<text text-anchor="middle" x="1134" y="-744.39" font-family="Times,serif" font-size="14.00">ethernet.ethertype == 0x800</text>
</g>
<!-- parse_ipv6 -->
<g id="node4" class="node">
<title>parse_ipv6</title>
<g id="a_node4"><a xlink:href="#" xlink:title="parse_l3_headers v6: Fragment nexthdr &#45;&gt; DROP; ICMPv6 &#45;&gt;&#10;inner; no extension&#45;header walk (any other nexthdr is the&#10;L4 proto). TCP/UDP dispatch, else PASS.">
<polygon fill="none" stroke="black" points="1305,-506.59 1205,-506.59 1205,-468.59 1305,-468.59 1305,-506.59"/>
<text text-anchor="middle" x="1255" y="-491.39" font-family="Helvetica,sans-Serif" font-size="14.00">parse_ipv6</text>
<text text-anchor="middle" x="1255" y="-476.39" font-family="Helvetica,sans-Serif" font-size="14.00">extract ipv6</text>
</a>
</g>
</g>
<!-- parse_ethernet&#45;&gt;parse_ipv6 -->
<g id="edge2" class="edge">
<title>parse_ethernet&#45;&gt;parse_ipv6</title>
<path fill="none" stroke="black" d="M1255,-773.55C1255,-722.83 1255,-578.71 1255,-517.1"/>
<polygon fill="black" stroke="black" points="1258.5,-516.93 1255,-506.93 1251.5,-516.93 1258.5,-516.93"/>
<text text-anchor="middle" x="1366.5" y="-655.39" font-family="Times,serif" font-size="14.00">ethernet.ethertype == 0x86dd</text>
</g>
<!-- accept -->
<g id="node12" class="node">
<title>accept</title>
<ellipse fill="none" stroke="black" cx="999" cy="-44.3" rx="40.11" ry="40.11"/>
<ellipse fill="none" stroke="black" cx="999" cy="-44.3" rx="44.09" ry="44.09"/>
<text text-anchor="middle" x="999" y="-40.6" font-family="Helvetica,sans-Serif" font-size="14.00">accept</text>
</g>
<!-- parse_ethernet&#45;&gt;accept -->
<g id="edge3" class="edge">
<title>parse_ethernet&#45;&gt;accept</title>
<path fill="none" stroke="black" stroke-dasharray="5,2" d="M1319.1,-786.54C1449.63,-775.37 1734,-746.27 1734,-704.59 1734,-704.59 1734,-704.59 1734,-143.59 1734,-74.95 1223.82,-52.45 1053.56,-46.86"/>
<polygon fill="black" stroke="black" points="1053.43,-43.35 1043.32,-46.53 1053.2,-50.35 1053.43,-43.35"/>
<text text-anchor="middle" x="1759.5" y="-439.39" font-family="Times,serif" font-size="14.00">default</text>
</g>
<!-- parse_ipv4_proto -->
<g id="node3" class="node">
<title>parse_ipv4_proto</title>
<g id="a_node3"><a xlink:href="#" xlink:title="Proto dispatch (no extract): ICMP inner, TCP, UDP, else PASS.">
<polygon fill="none" stroke="black" points="694.5,-613.59 559.5,-613.59 559.5,-577.59 694.5,-577.59 694.5,-613.59"/>
<text text-anchor="middle" x="627" y="-591.89" font-family="Helvetica,sans-Serif" font-size="14.00">parse_ipv4_proto</text>
</a>
</g>
</g>
<!-- parse_ipv4&#45;&gt;parse_ipv4_proto -->
<g id="edge4" class="edge">
<title>parse_ipv4&#45;&gt;parse_ipv4_proto</title>
<path fill="none" stroke="black" d="M935.87,-702.89C855.66,-702.43 703.1,-697.37 660,-666.59 645.87,-656.51 637.6,-638.77 632.87,-623.68"/>
<polygon fill="black" stroke="black" points="636.17,-622.49 630.14,-613.78 629.43,-624.35 636.17,-622.49"/>
<text text-anchor="middle" x="821" y="-655.39" font-family="Times,serif" font-size="14.00">ipv4.ihl == 0x5 &amp;&amp; ipv4.mf_frag_off == 0x0</text>
</g>
<!-- reject_0 -->
<g id="node13" class="node">
<title>reject_0</title>
<polygon fill="none" stroke="black" points="986,-633.59 787,-595.59 986,-557.59 1185,-595.59 986,-633.59"/>
<text text-anchor="middle" x="986" y="-599.39" font-family="Helvetica,sans-Serif" font-size="14.00">reject:</text>
<text text-anchor="middle" x="986" y="-584.39" font-family="Helvetica,sans-Serif" font-size="14.00">ipv4 ihl!=5 or fragmented</text>
</g>
<!-- parse_ipv4&#45;&gt;reject_0 -->
<g id="edge5" class="edge">
<title>parse_ipv4&#45;&gt;reject_0</title>
<path fill="none" stroke="black" stroke-dasharray="5,2" d="M986,-684.13C986,-672.96 986,-658.17 986,-643.93"/>
<polygon fill="black" stroke="black" points="989.5,-643.71 986,-633.71 982.5,-643.71 989.5,-643.71"/>
<text text-anchor="middle" x="1011.5" y="-655.39" font-family="Times,serif" font-size="14.00">default</text>
</g>
<!-- parse_icmp -->
<g id="node5" class="node">
<title>parse_icmp</title>
<g id="a_node5"><a xlink:href="#" xlink:title="parse_icmp (v4): echo (8) accepts [&#45;&gt; XDP_TX]; DEST_UNREACH&#10;(3) parses the inner packet; any other type accepts [PASS].">
<polygon fill="none" stroke="black" points="422,-506.59 318,-506.59 318,-468.59 422,-468.59 422,-506.59"/>
<text text-anchor="middle" x="370" y="-491.39" font-family="Helvetica,sans-Serif" font-size="14.00">parse_icmp</text>
<text text-anchor="middle" x="370" y="-476.39" font-family="Helvetica,sans-Serif" font-size="14.00">extract icmp</text>
</a>
</g>
</g>
<!-- parse_ipv4_proto&#45;&gt;parse_icmp -->
<g id="edge6" class="edge">
<title>parse_ipv4_proto&#45;&gt;parse_icmp</title>
<path fill="none" stroke="black" d="M564.82,-577.55C532.65,-567.9 493.07,-554.74 459,-539.59 441.32,-531.73 422.61,-521.35 406.93,-512.01"/>
<polygon fill="black" stroke="black" points="408.45,-508.84 398.08,-506.66 404.83,-514.83 408.45,-508.84"/>
<text text-anchor="middle" x="536" y="-528.39" font-family="Times,serif" font-size="14.00">ipv4.protocol == 0x1</text>
</g>
<!-- parse_tcp -->
<g id="node10" class="node">
<title>parse_tcp</title>
<g id="a_node10"><a xlink:href="#" xlink:title="Shared L4 terminal (outer or inner): the projection lifts&#10;ports (swapped under is_icmp) and TCP SYN/RST flags.">
<polygon fill="none" stroke="black" points="671,-163.59 579,-163.59 579,-125.59 671,-125.59 671,-163.59"/>
<text text-anchor="middle" x="625" y="-148.39" font-family="Helvetica,sans-Serif" font-size="14.00">parse_tcp</text>
<text text-anchor="middle" x="625" y="-133.39" font-family="Helvetica,sans-Serif" font-size="14.00">extract tcp</text>
</a>
</g>
</g>
<!-- parse_ipv4_proto&#45;&gt;parse_tcp -->
<g id="edge7" class="edge">
<title>parse_ipv4_proto&#45;&gt;parse_tcp</title>
<path fill="none" stroke="black" d="M627,-577.33C627,-556.36 627,-519.88 627,-488.59 627,-488.59 627,-488.59 627,-315.09 627,-265.3 626.13,-207.29 625.53,-173.67"/>
<polygon fill="black" stroke="black" points="629.03,-173.59 625.35,-163.65 622.03,-173.72 629.03,-173.59"/>
<text text-anchor="middle" x="704" y="-375.89" font-family="Times,serif" font-size="14.00">ipv4.protocol == 0x6</text>
</g>
<!-- parse_udp -->
<g id="node11" class="node">
<title>parse_udp</title>
<polygon fill="none" stroke="black" points="1047.5,-163.59 950.5,-163.59 950.5,-125.59 1047.5,-125.59 1047.5,-163.59"/>
<text text-anchor="middle" x="999" y="-148.39" font-family="Helvetica,sans-Serif" font-size="14.00">parse_udp</text>
<text text-anchor="middle" x="999" y="-133.39" font-family="Helvetica,sans-Serif" font-size="14.00">extract udp</text>
</g>
<!-- parse_ipv4_proto&#45;&gt;parse_udp -->
<g id="edge8" class="edge">
<title>parse_ipv4_proto&#45;&gt;parse_udp</title>
<path fill="none" stroke="black" d="M646.02,-577.38C678.16,-547.48 743.74,-482.88 785,-417.59 804.58,-386.61 801.94,-375 817,-341.59 849.43,-269.65 835,-234 894,-181.59 907.13,-169.93 924.21,-162.01 940.77,-156.65"/>
<polygon fill="black" stroke="black" points="941.84,-159.98 950.43,-153.77 939.85,-153.27 941.84,-159.98"/>
<text text-anchor="middle" x="898.5" y="-375.89" font-family="Times,serif" font-size="14.00">ipv4.protocol == 0x11</text>
</g>
<!-- parse_ipv4_proto&#45;&gt;accept -->
<g id="edge9" class="edge">
<title>parse_ipv4_proto&#45;&gt;accept</title>
<path fill="none" stroke="black" stroke-dasharray="5,2" d="M559.3,-590.18C397.18,-578.69 0,-544.83 0,-488.59 0,-488.59 0,-488.59 0,-143.59 0,-47.89 735.55,-44.05 944.34,-44.89"/>
<polygon fill="black" stroke="black" points="944.44,-48.39 954.46,-44.94 944.48,-41.39 944.44,-48.39"/>
<text text-anchor="middle" x="25.5" y="-312.39" font-family="Times,serif" font-size="14.00">default</text>
</g>
<!-- parse_icmp6 -->
<g id="node6" class="node">
<title>parse_icmp6</title>
<g id="a_node6"><a xlink:href="#" xlink:title="parse_icmpv6: echo (128) accepts [TX]; DEST_UNREACH (1) /&#10;PKT_TOOBIG (2) parse inner; else PASS.">
<polygon fill="none" stroke="black" points="1141.5,-398.59 1036.5,-398.59 1036.5,-360.59 1141.5,-360.59 1141.5,-398.59"/>
<text text-anchor="middle" x="1089" y="-383.39" font-family="Helvetica,sans-Serif" font-size="14.00">parse_icmp6</text>
<text text-anchor="middle" x="1089" y="-368.39" font-family="Helvetica,sans-Serif" font-size="14.00">extract icmp</text>
</a>
</g>
</g>
<!-- parse_ipv6&#45;&gt;parse_icmp6 -->
<g id="edge11" class="edge">
<title>parse_ipv6&#45;&gt;parse_icmp6</title>
<path fill="none" stroke="black" d="M1204.76,-484.46C1152.95,-481.09 1077.21,-472.46 1059,-450.59 1048.49,-437.97 1055.24,-421.12 1064.98,-407.11"/>
<polygon fill="black" stroke="black" points="1068.02,-408.9 1071.3,-398.82 1062.45,-404.65 1068.02,-408.9"/>
<text text-anchor="middle" x="1154.5" y="-439.39" font-family="Times,serif" font-size="14.00">ipv6.next_header == 0x3a</text>
</g>
<!-- parse_ipv6&#45;&gt;parse_tcp -->
<g id="edge12" class="edge">
<title>parse_ipv6&#45;&gt;parse_tcp</title>
<path fill="none" stroke="black" d="M1204.86,-482.48C1152.29,-477.37 1073.91,-467.22 1049,-450.59 1002.09,-419.28 1029.92,-374.35 984,-341.59 950.08,-317.4 931.43,-337.06 892,-323.59 772.94,-282.92 718.77,-293.89 639,-196.59 633.68,-190.1 630.37,-181.75 628.32,-173.68"/>
<polygon fill="black" stroke="black" points="631.73,-172.9 626.34,-163.79 624.87,-174.28 631.73,-172.9"/>
<text text-anchor="middle" x="983.5" y="-312.39" font-family="Times,serif" font-size="14.00">ipv6.next_header == 0x6</text>
</g>
<!-- parse_ipv6&#45;&gt;parse_udp -->
<g id="edge13" class="edge">
<title>parse_ipv6&#45;&gt;parse_udp</title>
<path fill="none" stroke="black" d="M1305.36,-484.17C1355.81,-480.57 1428.45,-471.76 1446,-450.59 1446.79,-449.64 1447.17,-195.24 1434,-181.59 1430.77,-178.24 1176.03,-158.81 1057.93,-149.97"/>
<polygon fill="black" stroke="black" points="1057.85,-146.46 1047.62,-149.2 1057.33,-153.44 1057.85,-146.46"/>
<text text-anchor="middle" x="1541" y="-312.39" font-family="Times,serif" font-size="14.00">ipv6.next_header == 0x11</text>
</g>
<!-- parse_ipv6&#45;&gt;accept -->
<g id="edge14" class="edge">
<title>parse_ipv6&#45;&gt;accept</title>
<path fill="none" stroke="black" stroke-dasharray="5,2" d="M1305.26,-483.83C1412.69,-476.54 1655,-452.16 1655,-380.59 1655,-380.59 1655,-380.59 1655,-143.59 1655,-82.98 1211.31,-55.58 1053.72,-47.76"/>
<polygon fill="black" stroke="black" points="1053.48,-44.24 1043.32,-47.25 1053.13,-51.24 1053.48,-44.24"/>
<text text-anchor="middle" x="1680.5" y="-248.89" font-family="Times,serif" font-size="14.00">default</text>
</g>
<!-- reject_1 -->
<g id="node14" class="node">
<title>reject_1</title>
<polygon fill="none" stroke="black" points="1276,-417.59 1160,-379.59 1276,-341.59 1392,-379.59 1276,-417.59"/>
<text text-anchor="middle" x="1276" y="-383.39" font-family="Helvetica,sans-Serif" font-size="14.00">reject:</text>
<text text-anchor="middle" x="1276" y="-368.39" font-family="Helvetica,sans-Serif" font-size="14.00">ipv6 fragment</text>
</g>
<!-- parse_ipv6&#45;&gt;reject_1 -->
<g id="edge10" class="edge">
<title>parse_ipv6&#45;&gt;reject_1</title>
<path fill="none" stroke="black" d="M1253.92,-468.51C1253.69,-458.69 1253.99,-446.39 1256,-435.59 1256.77,-431.44 1257.83,-427.18 1259.04,-422.96"/>
<polygon fill="black" stroke="black" points="1262.43,-423.85 1262.14,-413.26 1255.76,-421.72 1262.43,-423.85"/>
<text text-anchor="middle" x="1351" y="-439.39" font-family="Times,serif" font-size="14.00">ipv6.next_header == 0x2c</text>
</g>
<!-- parse_inner_ipv4 -->
<g id="node7" class="node">
<title>parse_inner_ipv4</title>
<g id="a_node7"><a xlink:href="#" xlink:title="Inner v4 (ICMP error payload): ihl != 5 &#45;&gt; DROP; no frag&#10;check (katran&#39;s parse_icmp doesn&#39;t). is_icmp marks the&#10;inversion for the projection.">
<polygon fill="none" stroke="black" points="441.5,-398.59 298.5,-398.59 298.5,-360.59 441.5,-360.59 441.5,-398.59"/>
<text text-anchor="middle" x="370" y="-383.39" font-family="Helvetica,sans-Serif" font-size="14.00">parse_inner_ipv4</text>
<text text-anchor="middle" x="370" y="-368.39" font-family="Helvetica,sans-Serif" font-size="14.00">extract inner_ipv4</text>
</a>
</g>
</g>
<!-- parse_icmp&#45;&gt;parse_inner_ipv4 -->
<g id="edge15" class="edge">
<title>parse_icmp&#45;&gt;parse_inner_ipv4</title>
<path fill="none" stroke="black" d="M370,-468.13C370,-451.79 370,-427.69 370,-408.92"/>
<polygon fill="black" stroke="black" points="373.5,-408.85 370,-398.85 366.5,-408.85 373.5,-408.85"/>
<text text-anchor="middle" x="435" y="-439.39" font-family="Times,serif" font-size="14.00">icmp.type == 0x3</text>
</g>
<!-- parse_icmp&#45;&gt;accept -->
<g id="edge16" class="edge">
<title>parse_icmp&#45;&gt;accept</title>
<path fill="none" stroke="black" stroke-dasharray="5,2" d="M317.74,-479.36C230.82,-465.84 66,-433.27 66,-380.59 66,-380.59 66,-380.59 66,-143.59 66,-54.69 744.71,-45.93 944.38,-45.28"/>
<polygon fill="black" stroke="black" points="944.64,-48.78 954.63,-45.25 944.62,-41.78 944.64,-48.78"/>
<text text-anchor="middle" x="91.5" y="-248.89" font-family="Times,serif" font-size="14.00">default</text>
</g>
<!-- parse_inner_ipv6 -->
<g id="node9" class="node">
<title>parse_inner_ipv6</title>
<g id="a_node9"><a xlink:href="#" xlink:title="Inner v6: nexthdr taken directly (no frag/ext check in&#10;parse_icmpv6). TCP/UDP else PASS. Reuses the `ipv6` instance&#10;(its 128&#45;bit addresses are var_bytes, which the IR cannot carry&#10;under two instance names); the projection reads the LAST ipv6&#10;under `is_icmp`, so the inner addresses win on the ICMP path&#10;exactly as katran records them.">
<polygon fill="none" stroke="black" points="1186.5,-271.59 1051.5,-271.59 1051.5,-233.59 1186.5,-233.59 1186.5,-271.59"/>
<text text-anchor="middle" x="1119" y="-256.39" font-family="Helvetica,sans-Serif" font-size="14.00">parse_inner_ipv6</text>
<text text-anchor="middle" x="1119" y="-241.39" font-family="Helvetica,sans-Serif" font-size="14.00">extract ipv6</text>
</a>
</g>
</g>
<!-- parse_icmp6&#45;&gt;parse_inner_ipv6 -->
<g id="edge17" class="edge">
<title>parse_icmp6&#45;&gt;parse_inner_ipv6</title>
<path fill="none" stroke="black" d="M1083.35,-360.37C1079.81,-346.02 1076.8,-325.65 1082,-308.59 1085.07,-298.52 1090.68,-288.62 1096.61,-280.06"/>
<polygon fill="black" stroke="black" points="1099.44,-282.11 1102.57,-271.99 1093.81,-277.95 1099.44,-282.11"/>
<text text-anchor="middle" x="1147" y="-312.39" font-family="Times,serif" font-size="14.00">icmp.type == 0x1</text>
</g>
<!-- parse_icmp6&#45;&gt;parse_inner_ipv6 -->
<g id="edge18" class="edge">
<title>parse_icmp6&#45;&gt;parse_inner_ipv6</title>
<path fill="none" stroke="black" d="M1115.99,-360.48C1126.59,-353.91 1139.06,-346.82 1151,-341.59 1176.9,-330.26 1195.08,-346.23 1212,-323.59 1226.33,-304.42 1207.49,-288 1183.11,-275.9"/>
<polygon fill="black" stroke="black" points="1184.47,-272.67 1173.92,-271.63 1181.52,-279.02 1184.47,-272.67"/>
<text text-anchor="middle" x="1281" y="-312.39" font-family="Times,serif" font-size="14.00">icmp.type == 0x2</text>
</g>
<!-- parse_icmp6&#45;&gt;accept -->
<g id="edge19" class="edge">
<title>parse_icmp6&#45;&gt;accept</title>
<path fill="none" stroke="black" stroke-dasharray="5,2" d="M1113.4,-360.57C1124.35,-353.42 1137.77,-345.89 1151,-341.59 1193.23,-327.87 1320.05,-356.37 1350,-323.59 1358.87,-313.89 1448.87,-253.9 1343,-125.59 1306.58,-81.46 1140.47,-59 1053.09,-50.07"/>
<polygon fill="black" stroke="black" points="1053.39,-46.58 1043.1,-49.07 1052.7,-53.55 1053.39,-46.58"/>
<text text-anchor="middle" x="1410.5" y="-185.39" font-family="Times,serif" font-size="14.00">default</text>
</g>
<!-- parse_inner_ipv4_proto -->
<g id="node8" class="node">
<title>parse_inner_ipv4_proto</title>
<polygon fill="none" stroke="black" points="313,-270.59 135,-270.59 135,-234.59 313,-234.59 313,-270.59"/>
<text text-anchor="middle" x="224" y="-248.89" font-family="Helvetica,sans-Serif" font-size="14.00">parse_inner_ipv4_proto</text>
</g>
<!-- parse_inner_ipv4&#45;&gt;parse_inner_ipv4_proto -->
<g id="edge20" class="edge">
<title>parse_inner_ipv4&#45;&gt;parse_inner_ipv4_proto</title>
<path fill="none" stroke="black" d="M310.48,-360.56C290.16,-352.01 268.65,-339.99 253,-323.59 241.67,-311.72 234.5,-294.8 230.12,-280.57"/>
<polygon fill="black" stroke="black" points="233.45,-279.49 227.41,-270.8 226.71,-281.37 233.45,-279.49"/>
<text text-anchor="middle" x="331.5" y="-312.39" font-family="Times,serif" font-size="14.00">inner_ipv4.ihl == 0x5</text>
</g>
<!-- reject_2 -->
<g id="node15" class="node">
<title>reject_2</title>
<polygon fill="none" stroke="black" points="465,-290.59 331,-252.59 465,-214.59 599,-252.59 465,-290.59"/>
<text text-anchor="middle" x="465" y="-256.39" font-family="Helvetica,sans-Serif" font-size="14.00">reject:</text>
<text text-anchor="middle" x="465" y="-241.39" font-family="Helvetica,sans-Serif" font-size="14.00">inner ipv4 ihl!=5</text>
</g>
<!-- parse_inner_ipv4&#45;&gt;reject_2 -->
<g id="edge21" class="edge">
<title>parse_inner_ipv4&#45;&gt;reject_2</title>
<path fill="none" stroke="black" stroke-dasharray="5,2" d="M384.88,-360.42C393.5,-349.78 404.5,-336.03 414,-323.59 421.56,-313.7 429.56,-302.88 436.93,-292.77"/>
<polygon fill="black" stroke="black" points="439.91,-294.63 442.95,-284.48 434.25,-290.52 439.91,-294.63"/>
<text text-anchor="middle" x="449.5" y="-312.39" font-family="Times,serif" font-size="14.00">default</text>
</g>
<!-- parse_inner_ipv4_proto&#45;&gt;parse_tcp -->
<g id="edge22" class="edge">
<title>parse_inner_ipv4_proto&#45;&gt;parse_tcp</title>
<path fill="none" stroke="black" d="M257.02,-234.55C289.51,-218.5 340.95,-194.97 388,-181.59 448.54,-164.37 520.27,-154.94 568.84,-150.09"/>
<polygon fill="black" stroke="black" points="569.22,-153.57 578.83,-149.13 568.54,-146.61 569.22,-153.57"/>
<text text-anchor="middle" x="487" y="-185.39" font-family="Times,serif" font-size="14.00">inner_ipv4.protocol == 0x6</text>
</g>
<!-- parse_inner_ipv4_proto&#45;&gt;parse_udp -->
<g id="edge23" class="edge">
<title>parse_inner_ipv4_proto&#45;&gt;parse_udp</title>
<path fill="none" stroke="black" d="M261.37,-234.52C279.33,-227.09 301.39,-219.07 322,-214.59 438.66,-189.24 471.8,-213.32 590,-196.59 621.07,-192.2 628.02,-186.59 659,-181.59 757.1,-165.78 872.29,-155.26 940.27,-149.86"/>
<polygon fill="black" stroke="black" points="940.66,-153.34 950.36,-149.07 940.12,-146.36 940.66,-153.34"/>
<text text-anchor="middle" x="762.5" y="-185.39" font-family="Times,serif" font-size="14.00">inner_ipv4.protocol == 0x11</text>
</g>
<!-- parse_inner_ipv4_proto&#45;&gt;accept -->
<g id="edge24" class="edge">
<title>parse_inner_ipv4_proto&#45;&gt;accept</title>
<path fill="none" stroke="black" stroke-dasharray="5,2" d="M249.11,-234.58C272.61,-219.2 309.08,-196.74 343,-181.59 552.82,-87.92 829.43,-57.66 944.82,-48.72"/>
<polygon fill="black" stroke="black" points="945.11,-52.21 954.82,-47.97 944.59,-45.23 945.11,-52.21"/>
<text text-anchor="middle" x="521.5" y="-140.89" font-family="Times,serif" font-size="14.00">default</text>
</g>
<!-- parse_inner_ipv6&#45;&gt;parse_tcp -->
<g id="edge25" class="edge">
<title>parse_inner_ipv6&#45;&gt;parse_tcp</title>
<path fill="none" stroke="black" d="M1051.24,-235.47C1010.12,-225.26 956.72,-211.25 910,-196.59 891.49,-190.78 887.81,-186.37 869,-181.59 805.84,-165.56 731.55,-155.87 681.68,-150.64"/>
<polygon fill="black" stroke="black" points="681.73,-147.13 671.42,-149.59 681.02,-154.09 681.73,-147.13"/>
<text text-anchor="middle" x="1001.5" y="-185.39" font-family="Times,serif" font-size="14.00">ipv6.next_header == 0x6</text>
</g>
<!-- parse_inner_ipv6&#45;&gt;parse_udp -->
<g id="edge26" class="edge">
<title>parse_inner_ipv6&#45;&gt;parse_udp</title>
<path fill="none" stroke="black" d="M1117.71,-233.57C1115.68,-217.95 1110.45,-195.7 1097,-181.59 1086.28,-170.35 1071.75,-162.6 1057.16,-157.26"/>
<polygon fill="black" stroke="black" points="1058.2,-153.92 1047.61,-154.09 1056,-160.56 1058.2,-153.92"/>
<text text-anchor="middle" x="1203" y="-185.39" font-family="Times,serif" font-size="14.00">ipv6.next_header == 0x11</text>
</g>
<!-- parse_inner_ipv6&#45;&gt;accept -->
<g id="edge27" class="edge">
<title>parse_inner_ipv6&#45;&gt;accept</title>
<path fill="none" stroke="black" stroke-dasharray="5,2" d="M1186.79,-249.06C1250.91,-243.85 1333.19,-228.21 1303,-181.59 1247.64,-96.1 1124.6,-63.73 1053.19,-51.86"/>
<polygon fill="black" stroke="black" points="1053.46,-48.36 1043.04,-50.25 1052.37,-55.27 1053.46,-48.36"/>
<text text-anchor="middle" x="1313.5" y="-140.89" font-family="Times,serif" font-size="14.00">default</text>
</g>
<!-- parse_tcp&#45;&gt;accept -->
<g id="edge28" class="edge">
<title>parse_tcp&#45;&gt;accept</title>
<path fill="none" stroke="black" d="M671.23,-131.44C741.04,-113.09 872.98,-78.42 946.38,-59.13"/>
<polygon fill="black" stroke="black" points="947.55,-62.44 956.33,-56.51 945.77,-55.67 947.55,-62.44"/>
</g>
<!-- parse_udp&#45;&gt;accept -->
<g id="edge29" class="edge">
<title>parse_udp&#45;&gt;accept</title>
<path fill="none" stroke="black" d="M999,-125.56C999,-117.91 999,-108.55 999,-98.96"/>
<polygon fill="black" stroke="black" points="1002.5,-98.94 999,-88.94 995.5,-98.94 1002.5,-98.94"/>
</g>
</g>
</svg>
