<?xml version="1.0" encoding="UTF-8" standalone="no"?>
<!DOCTYPE svg PUBLIC "-//W3C//DTD SVG 1.1//EN"
 "http://www.w3.org/Graphics/SVG/1.1/DTD/svg11.dtd">
<!-- Generated by graphviz version 2.43.0 (0)
 -->
<!-- Title: gibb_service_provider Pages: 1 -->
<svg width="1386pt" height="795pt"
 viewBox="0.00 0.00 1386.00 794.59" xmlns="http://www.w3.org/2000/svg" xmlns:xlink="http://www.w3.org/1999/xlink">
<g id="graph0" class="graph" transform="scale(1 1) rotate(0) translate(4 790.59)">
<title>gibb_service_provider</title>
<polygon fill="white" stroke="transparent" points="-4,4 -4,-790.59 1382,-790.59 1382,4 -4,4"/>
<!-- parse_ethernet -->
<g id="node1" class="node">
<title>parse_ethernet</title>
<polygon fill="none" stroke="black" points="701,-786.59 573,-786.59 573,-748.59 701,-748.59 701,-786.59"/>
<text text-anchor="middle" x="637" y="-771.39" font-family="Helvetica,sans-Serif" font-size="14.00">parse_ethernet</text>
<text text-anchor="middle" x="637" y="-756.39" font-family="Helvetica,sans-Serif" font-size="14.00">extract ethernet</text>
</g>
<!-- parse_mpls1 -->
<g id="node2" class="node">
<title>parse_mpls1</title>
<g id="a_node2"><a xlink:href="#" xlink:title="First of the five bounded MPLS labels (`max = 5` in the&#10;source).">
<polygon fill="none" stroke="black" points="437.5,-697.59 332.5,-697.59 332.5,-659.59 437.5,-659.59 437.5,-697.59"/>
<text text-anchor="middle" x="385" y="-682.39" font-family="Helvetica,sans-Serif" font-size="14.00">parse_mpls1</text>
<text text-anchor="middle" x="385" y="-667.39" font-family="Helvetica,sans-Serif" font-size="14.00">extract mpls</text>
</a>
</g>
</g>
<!-- parse_ethernet&#45;&gt;parse_mpls1 -->
<g id="edge1" class="edge">
<title>parse_ethernet&#45;&gt;parse_mpls1</title>
<path fill="none" stroke="black" d="M572.92,-766.48C506.78,-764.85 409.98,-757.72 386,-730.59 380.56,-724.44 378.93,-716.04 379.06,-707.84"/>
<polygon fill="black" stroke="black" points="382.56,-708.02 380.03,-697.73 375.59,-707.36 382.56,-708.02"/>
<text text-anchor="middle" x="500.5" y="-719.39" font-family="Times,serif" font-size="14.00">ethernet.ether_type == 0x8847</text>
</g>
<!-- parse_ethernet&#45;&gt;parse_mpls1 -->
<g id="edge2" class="edge">
<title>parse_ethernet&#45;&gt;parse_mpls1</title>
<path fill="none" stroke="black" d="M633.8,-748.53C630.84,-737.31 625.29,-723.57 615,-715.59 589.57,-695.88 506.83,-686.77 447.89,-682.69"/>
<polygon fill="black" stroke="black" points="447.75,-679.17 437.55,-682.01 447.29,-686.16 447.75,-679.17"/>
<text text-anchor="middle" x="740.5" y="-719.39" font-family="Times,serif" font-size="14.00">ethernet.ether_type == 0x8848</text>
</g>
<!-- parse_ipv4 -->
<g id="node8" class="node">
<title>parse_ipv4</title>
<g id="a_node8"><a xlink:href="#" xlink:title="Terminal &#45; this graph has no L4 dispatch.">
<polygon fill="none" stroke="black" points="766,-163.59 666,-163.59 666,-125.59 766,-125.59 766,-163.59"/>
<text text-anchor="middle" x="716" y="-148.39" font-family="Helvetica,sans-Serif" font-size="14.00">parse_ipv4</text>
<text text-anchor="middle" x="716" y="-133.39" font-family="Helvetica,sans-Serif" font-size="14.00">extract ipv4</text>
</a>
</g>
</g>
<!-- parse_ethernet&#45;&gt;parse_ipv4 -->
<g id="edge3" class="edge">
<title>parse_ethernet&#45;&gt;parse_ipv4</title>
<path fill="none" stroke="black" d="M701.15,-762.49C840.4,-752.72 1158,-725.42 1158,-679.59 1158,-679.59 1158,-679.59 1158,-232.59 1158,-155.74 897.53,-145.61 776.49,-145.05"/>
<polygon fill="black" stroke="black" points="776.28,-141.55 766.27,-145.03 776.26,-148.55 776.28,-141.55"/>
<text text-anchor="middle" x="1268" y="-452.39" font-family="Times,serif" font-size="14.00">ethernet.ether_type == 0x800</text>
</g>
<!-- parse_ipv6 -->
<g id="node9" class="node">
<title>parse_ipv6</title>
<polygon fill="none" stroke="black" points="497,-163.59 397,-163.59 397,-125.59 497,-125.59 497,-163.59"/>
<text text-anchor="middle" x="447" y="-148.39" font-family="Helvetica,sans-Serif" font-size="14.00">parse_ipv6</text>
<text text-anchor="middle" x="447" y="-133.39" font-family="Helvetica,sans-Serif" font-size="14.00">extract ipv6</text>
</g>
<!-- parse_ethernet&#45;&gt;parse_ipv6 -->
<g id="edge4" class="edge">
<title>parse_ethernet&#45;&gt;parse_ipv6</title>
<path fill="none" stroke="black" d="M701.22,-760.87C756.83,-755.07 832.39,-744.9 859,-730.59 886.15,-715.99 906,-710.42 906,-679.59 906,-679.59 906,-679.59 906,-232.59 906,-207.54 902.6,-195.85 882,-181.59 861.38,-167.32 681.99,-165.66 657,-163.59 606.47,-159.41 549.11,-154.48 507.12,-150.84"/>
<polygon fill="black" stroke="black" points="507.33,-147.34 497.06,-149.96 506.72,-154.32 507.33,-147.34"/>
<text text-anchor="middle" x="1020.5" y="-452.39" font-family="Times,serif" font-size="14.00">ethernet.ether_type == 0x86dd</text>
</g>
<!-- accept -->
<g id="node10" class="node">
<title>accept</title>
<ellipse fill="none" stroke="black" cx="262" cy="-44.3" rx="40.11" ry="40.11"/>
<ellipse fill="none" stroke="black" cx="262" cy="-44.3" rx="44.09" ry="44.09"/>
<text text-anchor="middle" x="262" y="-40.6" font-family="Helvetica,sans-Serif" font-size="14.00">accept</text>
</g>
<!-- parse_ethernet&#45;&gt;accept -->
<g id="edge5" class="edge">
<title>parse_ethernet&#45;&gt;accept</title>
<path fill="none" stroke="black" stroke-dasharray="5,2" d="M572.71,-764.48C410.97,-758.3 0,-736.97 0,-679.59 0,-679.59 0,-679.59 0,-143.59 0,-99.48 131.84,-68.49 208.47,-54.2"/>
<polygon fill="black" stroke="black" points="209.23,-57.62 218.44,-52.38 207.98,-50.73 209.23,-57.62"/>
<text text-anchor="middle" x="25.5" y="-407.89" font-family="Times,serif" font-size="14.00">default</text>
</g>
<!-- parse_mpls2 -->
<g id="node3" class="node">
<title>parse_mpls2</title>
<polygon fill="none" stroke="black" points="454.5,-608.59 349.5,-608.59 349.5,-570.59 454.5,-570.59 454.5,-608.59"/>
<text text-anchor="middle" x="402" y="-593.39" font-family="Helvetica,sans-Serif" font-size="14.00">parse_mpls2</text>
<text text-anchor="middle" x="402" y="-578.39" font-family="Helvetica,sans-Serif" font-size="14.00">extract mpls</text>
</g>
<!-- parse_mpls1&#45;&gt;parse_mpls2 -->
<g id="edge6" class="edge">
<title>parse_mpls1&#45;&gt;parse_mpls2</title>
<path fill="none" stroke="black" d="M376.33,-659.37C372.82,-649.51 370.35,-637.22 374,-626.59 375.14,-623.27 376.72,-620.02 378.57,-616.92"/>
<polygon fill="black" stroke="black" points="381.49,-618.84 384.28,-608.61 375.73,-614.87 381.49,-618.84"/>
<text text-anchor="middle" x="436" y="-630.39" font-family="Times,serif" font-size="14.00">mpls.bos == 0x0</text>
</g>
<!-- parse_mpls_payload -->
<g id="node7" class="node">
<title>parse_mpls_payload</title>
<g id="a_node7"><a xlink:href="#" xlink:title="Bottom of stack: the source&#39;s 4&#45;bit pseudo&#45;field, extracted&#10;here as a real header. This graph maps only 4/6 (no EoMPLS arm,&#10;unlike big&#45;union); other nibbles end the sequence.">
<polygon fill="none" stroke="black" points="580,-252.59 344,-252.59 344,-214.59 580,-214.59 580,-252.59"/>
<text text-anchor="middle" x="462" y="-237.39" font-family="Helvetica,sans-Serif" font-size="14.00">parse_mpls_payload</text>
<text text-anchor="middle" x="462" y="-222.39" font-family="Helvetica,sans-Serif" font-size="14.00">lookahead mpls_payload_nibble</text>
</a>
</g>
</g>
<!-- parse_mpls1&#45;&gt;parse_mpls_payload -->
<g id="edge7" class="edge">
<title>parse_mpls1&#45;&gt;parse_mpls_payload</title>
<path fill="none" stroke="black" d="M437.57,-673.57C459.63,-669.06 483.49,-659.91 498,-641.59 551.43,-574.15 457.25,-514.13 513,-448.59 534.93,-422.81 566.08,-457.21 587,-430.59 634.33,-370.38 580.66,-321 523,-270.59 517.9,-266.13 512.17,-261.93 506.32,-258.07"/>
<polygon fill="black" stroke="black" points="508.04,-255.02 497.71,-252.68 504.33,-260.96 508.04,-255.02"/>
<text text-anchor="middle" x="575" y="-452.39" font-family="Times,serif" font-size="14.00">mpls.bos == 0x1</text>
</g>
<!-- parse_mpls1&#45;&gt;accept -->
<g id="edge8" class="edge">
<title>parse_mpls1&#45;&gt;accept</title>
<path fill="none" stroke="black" stroke-dasharray="5,2" d="M332.4,-673.49C244.91,-665.21 79,-642.65 79,-590.59 79,-590.59 79,-590.59 79,-143.59 79,-84.64 153.61,-60.9 207.55,-51.43"/>
<polygon fill="black" stroke="black" points="208.4,-54.84 217.7,-49.78 207.27,-47.93 208.4,-54.84"/>
<text text-anchor="middle" x="104.5" y="-363.39" font-family="Times,serif" font-size="14.00">default</text>
</g>
<!-- parse_mpls3 -->
<g id="node4" class="node">
<title>parse_mpls3</title>
<polygon fill="none" stroke="black" points="318.5,-519.59 213.5,-519.59 213.5,-481.59 318.5,-481.59 318.5,-519.59"/>
<text text-anchor="middle" x="266" y="-504.39" font-family="Helvetica,sans-Serif" font-size="14.00">parse_mpls3</text>
<text text-anchor="middle" x="266" y="-489.39" font-family="Helvetica,sans-Serif" font-size="14.00">extract mpls</text>
</g>
<!-- parse_mpls2&#45;&gt;parse_mpls3 -->
<g id="edge9" class="edge">
<title>parse_mpls2&#45;&gt;parse_mpls3</title>
<path fill="none" stroke="black" d="M349.3,-572.6C336.16,-567.33 322.54,-560.7 311,-552.59 301.38,-545.84 292.44,-536.63 285.1,-527.89"/>
<polygon fill="black" stroke="black" points="287.83,-525.7 278.84,-520.08 282.37,-530.07 287.83,-525.7"/>
<text text-anchor="middle" x="373" y="-541.39" font-family="Times,serif" font-size="14.00">mpls.bos == 0x0</text>
</g>
<!-- parse_mpls2&#45;&gt;parse_mpls_payload -->
<g id="edge10" class="edge">
<title>parse_mpls2&#45;&gt;parse_mpls_payload</title>
<path fill="none" stroke="black" d="M422.41,-570.33C427.22,-565.05 431.85,-558.98 435,-552.59 466.89,-487.83 414.49,-446.05 463,-392.59 483.14,-370.39 509.85,-398.45 528,-374.59 545.01,-352.24 574.77,-382.78 504,-270.59 501.57,-266.74 498.6,-263.08 495.37,-259.68"/>
<polygon fill="black" stroke="black" points="497.66,-257.02 488.01,-252.65 492.83,-262.08 497.66,-257.02"/>
<text text-anchor="middle" x="525" y="-407.89" font-family="Times,serif" font-size="14.00">mpls.bos == 0x1</text>
</g>
<!-- parse_mpls2&#45;&gt;accept -->
<g id="edge11" class="edge">
<title>parse_mpls2&#45;&gt;accept</title>
<path fill="none" stroke="black" stroke-dasharray="5,2" d="M454.58,-577.35C510.94,-562.19 597.62,-529.15 637,-463.59 655.95,-432.04 952.95,-674.84 624,-181.59 555.68,-79.15 399.53,-53.54 316.41,-47.25"/>
<polygon fill="black" stroke="black" points="316.61,-43.75 306.4,-46.56 316.13,-50.74 316.61,-43.75"/>
<text text-anchor="middle" x="748.5" y="-318.89" font-family="Times,serif" font-size="14.00">default</text>
</g>
<!-- parse_mpls4 -->
<g id="node5" class="node">
<title>parse_mpls4</title>
<polygon fill="none" stroke="black" points="287.5,-430.59 182.5,-430.59 182.5,-392.59 287.5,-392.59 287.5,-430.59"/>
<text text-anchor="middle" x="235" y="-415.39" font-family="Helvetica,sans-Serif" font-size="14.00">parse_mpls4</text>
<text text-anchor="middle" x="235" y="-400.39" font-family="Helvetica,sans-Serif" font-size="14.00">extract mpls</text>
</g>
<!-- parse_mpls3&#45;&gt;parse_mpls4 -->
<g id="edge12" class="edge">
<title>parse_mpls3&#45;&gt;parse_mpls4</title>
<path fill="none" stroke="black" d="M259.58,-481.57C255.34,-469.67 249.7,-453.84 244.89,-440.35"/>
<polygon fill="black" stroke="black" points="248.07,-438.84 241.41,-430.6 241.47,-441.19 248.07,-438.84"/>
<text text-anchor="middle" x="315" y="-452.39" font-family="Times,serif" font-size="14.00">mpls.bos == 0x0</text>
</g>
<!-- parse_mpls3&#45;&gt;parse_mpls_payload -->
<g id="edge13" class="edge">
<title>parse_mpls3&#45;&gt;parse_mpls_payload</title>
<path fill="none" stroke="black" d="M318.6,-494.75C340.74,-490.07 365.02,-481.01 381,-463.59 413.01,-428.72 370.34,-392.88 404,-359.59 431.77,-332.14 465.38,-371.9 490,-341.59 508.49,-318.83 494.95,-285.14 481.02,-261.67"/>
<polygon fill="black" stroke="black" points="483.81,-259.52 475.53,-252.91 477.88,-263.24 483.81,-259.52"/>
<text text-anchor="middle" x="466" y="-363.39" font-family="Times,serif" font-size="14.00">mpls.bos == 0x1</text>
</g>
<!-- parse_mpls3&#45;&gt;accept -->
<g id="edge14" class="edge">
<title>parse_mpls3&#45;&gt;accept</title>
<path fill="none" stroke="black" stroke-dasharray="5,2" d="M229.67,-481.5C209.81,-469.71 186.56,-452.46 173,-430.59 135.04,-369.36 130.93,-340.82 147,-270.59 162.47,-202.97 202.64,-133.01 231.13,-89.36"/>
<polygon fill="black" stroke="black" points="234.07,-91.26 236.66,-80.98 228.23,-87.4 234.07,-91.26"/>
<text text-anchor="middle" x="172.5" y="-274.39" font-family="Times,serif" font-size="14.00">default</text>
</g>
<!-- parse_mpls5 -->
<g id="node6" class="node">
<title>parse_mpls5</title>
<g id="a_node6"><a xlink:href="#" xlink:title="Fifth label: the bound is exhausted, so bos=0 (a sixth&#10;label) falls to the default &#45; not a recognized sequence.">
<polygon fill="none" stroke="black" points="315.5,-341.59 210.5,-341.59 210.5,-303.59 315.5,-303.59 315.5,-341.59"/>
<text text-anchor="middle" x="263" y="-326.39" font-family="Helvetica,sans-Serif" font-size="14.00">parse_mpls5</text>
<text text-anchor="middle" x="263" y="-311.39" font-family="Helvetica,sans-Serif" font-size="14.00">extract mpls</text>
</a>
</g>
</g>
<!-- parse_mpls4&#45;&gt;parse_mpls5 -->
<g id="edge15" class="edge">
<title>parse_mpls4&#45;&gt;parse_mpls5</title>
<path fill="none" stroke="black" d="M220.92,-392.28C215.11,-382.39 210.81,-370.1 216,-359.59 217.89,-355.76 220.41,-352.22 223.31,-348.98"/>
<polygon fill="black" stroke="black" points="225.82,-351.41 230.62,-341.97 220.98,-346.36 225.82,-351.41"/>
<text text-anchor="middle" x="278" y="-363.39" font-family="Times,serif" font-size="14.00">mpls.bos == 0x0</text>
</g>
<!-- parse_mpls4&#45;&gt;parse_mpls_payload -->
<g id="edge16" class="edge">
<title>parse_mpls4&#45;&gt;parse_mpls_payload</title>
<path fill="none" stroke="black" d="M287.76,-402.19C306.24,-396.94 325.89,-388.41 340,-374.59 364.01,-351.08 341.89,-327 366,-303.59 384.15,-285.97 399.15,-299.92 420,-285.59 429.46,-279.1 437.94,-269.89 444.76,-261.08"/>
<polygon fill="black" stroke="black" points="447.69,-263 450.77,-252.86 442.04,-258.87 447.69,-263"/>
<text text-anchor="middle" x="428" y="-318.89" font-family="Times,serif" font-size="14.00">mpls.bos == 0x1</text>
</g>
<!-- parse_mpls4&#45;&gt;accept -->
<g id="edge17" class="edge">
<title>parse_mpls4&#45;&gt;accept</title>
<path fill="none" stroke="black" stroke-dasharray="5,2" d="M220.49,-392.27C216.67,-386.81 212.83,-380.66 210,-374.59 196.55,-345.77 199.75,-335.38 201,-303.59 202.56,-263.95 200.37,-253.53 208,-214.59 216.02,-173.67 230.63,-128.77 242.63,-95.5"/>
<polygon fill="black" stroke="black" points="245.95,-96.59 246.09,-86 239.38,-94.19 245.95,-96.59"/>
<text text-anchor="middle" x="233.5" y="-229.89" font-family="Times,serif" font-size="14.00">default</text>
</g>
<!-- parse_mpls5&#45;&gt;parse_mpls_payload -->
<g id="edge18" class="edge">
<title>parse_mpls5&#45;&gt;parse_mpls_payload</title>
<path fill="none" stroke="black" d="M270.42,-303.36C275.88,-292.23 284.38,-278.63 296,-270.59 307.63,-262.55 320.72,-256.26 334.32,-251.34"/>
<polygon fill="black" stroke="black" points="335.45,-254.66 343.81,-248.16 333.22,-248.02 335.45,-254.66"/>
<text text-anchor="middle" x="358" y="-274.39" font-family="Times,serif" font-size="14.00">mpls.bos == 0x1</text>
</g>
<!-- parse_mpls5&#45;&gt;accept -->
<g id="edge19" class="edge">
<title>parse_mpls5&#45;&gt;accept</title>
<path fill="none" stroke="black" stroke-dasharray="5,2" d="M262.93,-303.46C262.79,-262.52 262.42,-161.59 262.19,-98.74"/>
<polygon fill="black" stroke="black" points="265.69,-98.61 262.16,-88.62 258.69,-98.63 265.69,-98.61"/>
<text text-anchor="middle" x="288.5" y="-185.39" font-family="Times,serif" font-size="14.00">default</text>
</g>
<!-- parse_mpls_payload&#45;&gt;parse_ipv4 -->
<g id="edge20" class="edge">
<title>parse_mpls_payload&#45;&gt;parse_ipv4</title>
<path fill="none" stroke="black" d="M568.83,-214.58C588.82,-209.77 609.3,-203.83 628,-196.59 646.31,-189.5 665.31,-178.95 680.95,-169.29"/>
<polygon fill="black" stroke="black" points="683.16,-172.03 689.74,-163.73 679.42,-166.11 683.16,-172.03"/>
<text text-anchor="middle" x="768" y="-185.39" font-family="Times,serif" font-size="14.00">mpls_payload_nibble.v == 0x4</text>
</g>
<!-- parse_mpls_payload&#45;&gt;parse_ipv6 -->
<g id="edge21" class="edge">
<title>parse_mpls_payload&#45;&gt;parse_ipv6</title>
<path fill="none" stroke="black" d="M420.73,-214.47C414.02,-209.65 407.98,-203.74 404,-196.59 398.91,-187.45 402.77,-178.41 409.9,-170.53"/>
<polygon fill="black" stroke="black" points="412.31,-173.07 417.19,-163.66 407.51,-167.97 412.31,-173.07"/>
<text text-anchor="middle" x="514" y="-185.39" font-family="Times,serif" font-size="14.00">mpls_payload_nibble.v == 0x6</text>
</g>
<!-- parse_mpls_payload&#45;&gt;accept -->
<g id="edge22" class="edge">
<title>parse_mpls_payload&#45;&gt;accept</title>
<path fill="none" stroke="black" stroke-dasharray="5,2" d="M417.13,-214.54C391.6,-202.72 360.2,-185.42 337,-163.59 315.97,-143.8 298.32,-116.92 285.43,-93.79"/>
<polygon fill="black" stroke="black" points="288.4,-91.92 280.55,-84.8 282.24,-95.25 288.4,-91.92"/>
<text text-anchor="middle" x="362.5" y="-140.89" font-family="Times,serif" font-size="14.00">default</text>
</g>
<!-- parse_ipv4&#45;&gt;accept -->
<g id="edge23" class="edge">
<title>parse_ipv4&#45;&gt;accept</title>
<path fill="none" stroke="black" d="M689.66,-125.43C678.5,-118.52 665.07,-111.22 652,-106.59 537.06,-65.93 393.55,-52.18 316.67,-47.58"/>
<polygon fill="black" stroke="black" points="316.46,-44.06 306.28,-46.99 316.06,-51.05 316.46,-44.06"/>
</g>
<!-- parse_ipv6&#45;&gt;accept -->
<g id="edge24" class="edge">
<title>parse_ipv6&#45;&gt;accept</title>
<path fill="none" stroke="black" d="M413.07,-125.56C384.08,-110.16 342.06,-87.84 309.69,-70.64"/>
<polygon fill="black" stroke="black" points="311.31,-67.53 300.84,-65.93 308.03,-73.72 311.31,-67.53"/>
</g>
</g>
</svg>
